<svg width="29" height="30" viewBox="0 0 29 30" fill="none" xmlns="http://www.w3.org/2000/svg">
<path d="M14.5 26.0526C20.5494 26.0526 25.558 21.0332 25.558 14.9946C25.558 8.94515 20.5386 3.93649 14.4892 3.93649C8.45055 3.93649 3.44189 8.94515 3.44189 14.9946C3.44189 21.0332 8.4614 26.0526 14.5 26.0526Z" fill="#32D74B" fill-opacity="0.7"/>
<path d="M13.2857 20.296C12.9171 20.296 12.6136 20.1442 12.3317 19.7648L9.61053 16.4257C9.44791 16.2088 9.35034 15.9704 9.35034 15.721C9.35034 15.2332 9.72978 14.832 10.2176 14.832C10.532 14.832 10.7705 14.9296 11.0416 15.2873L13.2424 18.1277L17.8716 10.6907C18.0776 10.3654 18.3594 10.192 18.6413 10.192C19.1183 10.192 19.5628 10.5172 19.5628 11.0267C19.5628 11.2652 19.4219 11.5146 19.2918 11.7423L14.1963 19.7648C13.9687 20.1225 13.6543 20.296 13.2857 20.296Z" fill="white" fill-opacity="0.8"/>
</svg>
