<svg width="18" height="20" viewBox="0 0 18 20" fill="none" xmlns="http://www.w3.org/2000/svg">
<g clip-path="url(#clip0_662_683)">
<path d="M9 18.9956C13.9235 18.9956 18 14.9103 18 9.99561C18 5.07208 13.9147 0.995605 8.99121 0.995605C4.07647 0.995605 0 5.07208 0 9.99561C0 14.9103 4.0853 18.9956 9 18.9956Z" fill="#F12C4C"/>
<path d="M9.35969 4.59526C9.06334 4.59526 8.85246 4.80042 8.85246 5.09681V12.6027L8.90946 14.301L9.23429 14.187L7.18827 11.9473L5.88886 10.6706C5.79767 10.5795 5.66659 10.5339 5.52979 10.5339C5.24484 10.5339 5.03969 10.7504 5.03969 11.0297C5.03969 11.1665 5.08529 11.2862 5.19356 11.4001L8.97782 15.1901C9.08613 15.3041 9.21721 15.3611 9.35969 15.3611C9.50216 15.3611 9.63324 15.3041 9.74152 15.1901L13.5201 11.4001C13.6284 11.2862 13.6797 11.1665 13.6797 11.0297C13.6797 10.7504 13.4745 10.5339 13.1896 10.5339C13.0528 10.5339 12.916 10.5795 12.8305 10.6706L11.5311 11.9473L9.49076 14.187L9.80992 14.301L9.86691 12.6027V5.09681C9.86691 4.80042 9.65604 4.59526 9.35969 4.59526Z" fill="white"/>
</g>
<defs>
<clipPath id="clip0_662_683">
<rect width="18" height="18.0089" fill="white" transform="translate(0 0.995605)"/>
</clipPath>
</defs>
</svg>
