<svg width="18" height="20" viewBox="0 0 18 20" fill="none" xmlns="http://www.w3.org/2000/svg">
<g clip-path="url(#clip0_662_666)">
<path d="M9 18.9956C13.9235 18.9956 18 14.9103 18 9.99561C18 5.07208 13.9147 0.995605 8.99121 0.995605C4.07647 0.995605 0 5.07208 0 9.99561C0 14.9103 4.0853 18.9956 9 18.9956Z" fill="#32D74B"/>
<path d="M9.36004 15.3615C9.65639 15.3615 9.86727 15.1564 9.86727 14.86V7.35412L9.81027 5.65576L9.48544 5.76974L11.5315 8.00953L12.8309 9.28617C12.9221 9.37733 13.0531 9.42293 13.1899 9.42293C13.4749 9.42293 13.68 9.20637 13.68 8.9271C13.68 8.79031 13.6344 8.67063 13.5262 8.55667L9.74191 4.76668C9.63359 4.6527 9.50252 4.5957 9.36004 4.5957C9.21756 4.5957 9.08649 4.6527 8.97821 4.76668L5.19962 8.55667C5.09133 8.67063 5.04004 8.79031 5.04004 8.9271C5.04004 9.20637 5.24521 9.42293 5.53017 9.42293C5.66695 9.42293 5.80373 9.37733 5.88922 9.28617L7.18864 8.00953L9.22896 5.76974L8.90981 5.65576L8.85281 7.35412V14.86C8.85281 15.1564 9.06369 15.3615 9.36004 15.3615Z" fill="white"/>
</g>
<defs>
<clipPath id="clip0_662_666">
<rect width="18" height="18.0089" fill="white" transform="translate(0 0.995605)"/>
</clipPath>
</defs>
</svg>
