<svg width="29" height="29" viewBox="0 0 29 29" fill="none" xmlns="http://www.w3.org/2000/svg">
<g clip-path="url(#clip0_224_426)">
<path d="M14.2961 26.5831C14.6187 26.5831 14.9289 26.5583 15.2639 26.5335L15.9711 27.8859C16.12 28.1712 16.3805 28.3077 16.7279 28.2705C17.038 28.2085 17.249 27.9727 17.2986 27.6502L17.5095 26.1489C18.1298 25.9752 18.7378 25.7395 19.3209 25.4914L20.4375 26.4963C20.6732 26.7196 20.971 26.7569 21.2812 26.5956C21.5541 26.4343 21.6658 26.1489 21.6038 25.8139L21.2936 24.3375C21.8147 23.9777 22.3233 23.5683 22.7824 23.1093L24.1595 23.68C24.4697 23.8164 24.7674 23.742 25.0031 23.4691C25.2141 23.2333 25.2265 22.9232 25.0528 22.6378L24.2464 21.3475C24.6185 20.8389 24.9163 20.2682 25.2017 19.6726L26.7277 19.747C27.0503 19.7718 27.3109 19.5858 27.4225 19.288C27.5218 18.9778 27.4349 18.6801 27.1743 18.4816L25.9833 17.5386C26.1446 16.9307 26.2687 16.298 26.3307 15.628L27.7575 15.169C28.0801 15.0697 28.2662 14.8339 28.2662 14.499C28.2662 14.164 28.0801 13.9283 27.7575 13.8166L26.3307 13.37C26.2687 12.7 26.1446 12.0797 25.9833 11.4594L27.1743 10.5164C27.4225 10.3179 27.5218 10.0326 27.4225 9.72241C27.3109 9.42462 27.0503 9.23854 26.7277 9.26335L25.2017 9.31298C24.9163 8.71745 24.6185 8.17155 24.2464 7.63807L25.0528 6.34776C25.2265 6.08722 25.2017 5.77705 25.0031 5.54132C24.7674 5.26838 24.4697 5.20635 24.1595 5.33041L22.7824 5.88871C22.3233 5.44207 21.8147 5.02024 21.2936 4.66044L21.6038 3.19645C21.6782 2.84906 21.5541 2.56371 21.2812 2.41483C20.971 2.24113 20.6732 2.27835 20.4375 2.51408L19.3209 3.50662C18.7378 3.24608 18.1298 3.03516 17.5095 2.84906L17.2986 1.36025C17.249 1.03768 17.0257 0.801949 16.7155 0.739915C16.3805 0.702695 16.1075 0.839169 15.9711 1.11212L15.2639 2.46445C14.9289 2.43964 14.6187 2.42724 14.2961 2.42724C13.9612 2.42724 13.6634 2.43964 13.3285 2.46445L12.6089 1.11212C12.4724 0.839169 12.1995 0.702695 11.8644 0.739915C11.5542 0.801949 11.331 1.03768 11.2937 1.36025L11.0704 2.84906C10.4501 3.03516 9.85455 3.23367 9.25905 3.50662L8.14242 2.51408C7.9067 2.27835 7.60893 2.25354 7.29876 2.41483C7.02582 2.56371 6.90174 2.84906 6.97618 3.19645L7.28635 4.66044C6.77768 5.02024 6.25659 5.44207 5.79754 5.88871L4.42039 5.33041C4.11023 5.20635 3.82487 5.26838 3.58915 5.54132C3.37823 5.77705 3.35342 6.08722 3.52711 6.34776L4.33355 7.63807C3.97375 8.17155 3.66359 8.71745 3.37823 9.31298L1.86461 9.26335C1.54204 9.23854 1.26908 9.42462 1.15742 9.72241C1.05817 10.0326 1.15742 10.3179 1.40556 10.5164L2.5966 11.4594C2.43531 12.0797 2.31125 12.7 2.27403 13.3576L0.822442 13.8166C0.499866 13.9283 0.326172 14.164 0.326172 14.499C0.326172 14.8339 0.499866 15.0697 0.822442 15.169L2.27403 15.628C2.31125 16.298 2.43531 16.9307 2.5966 17.5386L1.40556 18.4816C1.15742 18.6677 1.07058 18.9654 1.15742 19.288C1.26908 19.5858 1.54204 19.7718 1.86461 19.747L3.37823 19.6726C3.66359 20.2682 3.97375 20.8389 4.33355 21.3475L3.52711 22.6378C3.35342 22.9232 3.37823 23.2333 3.58915 23.4691C3.82487 23.742 4.11023 23.8164 4.42039 23.68L5.79754 23.1093C6.25659 23.5683 6.77768 23.9777 7.28635 24.3375L6.97618 25.8139C6.91415 26.1489 7.02582 26.4343 7.29876 26.5956C7.60893 26.7569 7.9067 26.7196 8.14242 26.4963L9.25905 25.4914C9.85455 25.7395 10.4501 25.9752 11.0704 26.1489L11.2937 27.6502C11.331 27.9727 11.5542 28.2085 11.8644 28.2705C12.1995 28.3077 12.46 28.1712 12.6089 27.8859L13.3285 26.5335C13.651 26.5583 13.9612 26.5831 14.2961 26.5831ZM14.2961 24.7097C8.61388 24.7097 4.22189 20.1689 4.22189 14.5114C4.22189 8.84152 8.61388 4.30065 14.2961 4.30065C19.9784 4.30065 24.3705 8.84152 24.3705 14.5114C24.3705 20.1689 19.9784 24.7097 14.2961 24.7097ZM12.125 12.4643L13.5021 11.5958L9.29623 4.39991L7.86947 5.20635L12.125 12.4643ZM17.1745 15.293H25.5491L25.5367 13.6926H17.1745V15.293ZM13.5145 17.4394L12.1498 16.5461L7.74541 23.7544L9.15978 24.5857L13.5145 17.4394ZM14.2713 17.7744C16.0579 17.7744 17.5095 16.3228 17.5095 14.5238C17.5095 12.7248 16.0579 11.2732 14.2713 11.2732C12.4724 11.2732 11.0208 12.7248 11.0208 14.5238C11.0208 16.3228 12.4724 17.7744 14.2713 17.7744ZM14.2713 16.025C13.4153 16.025 12.7701 15.3674 12.7701 14.5238C12.7701 13.6801 13.4153 13.0226 14.2713 13.0226C15.115 13.0226 15.7602 13.6801 15.7602 14.5238C15.7602 15.3674 15.115 16.025 14.2713 16.025Z" fill="white" fill-opacity="0.85"/>
</g>
<defs>
<clipPath id="clip0_224_426">
<rect width="27.94" height="27.5426" fill="white" transform="translate(0.326172 0.733887)"/>
</clipPath>
</defs>
</svg>
