<svg width="29" height="28" viewBox="0 0 29 28" fill="none" xmlns="http://www.w3.org/2000/svg">
<g clip-path="url(#clip0_224_396)">
<path d="M1.69043 16.231C1.69043 16.8899 2.4195 17.2876 2.97353 16.931L7.53599 13.9945C9.00884 13.0466 10.9393 13.2304 12.2067 14.4394L13.0346 15.2292C14.8064 16.9193 17.5116 17.159 19.553 15.8069L26.1104 11.4635C26.4762 11.2212 26.5942 10.7382 26.3812 10.3546C26.1432 9.92595 25.5905 9.79106 25.1818 10.0619L19.6421 13.7334C17.6093 15.0806 14.9149 14.8427 13.1497 13.16C11.4048 11.4967 8.74847 11.2429 6.72013 12.5457L2.07304 15.5305C1.83459 15.6837 1.69043 15.9476 1.69043 16.231ZM25.8098 13.0582C27.0833 13.0582 28.123 11.9017 28.123 10.4848C28.123 9.06797 27.0833 7.91138 25.8098 7.91138C24.5362 7.91138 23.4967 9.06797 23.4967 10.4848C23.4967 11.9017 24.5362 13.0582 25.8098 13.0582Z" fill="white"/>
<path d="M0.326172 26.7493C0.326172 27.4432 0.742024 27.8914 1.36581 27.8914H27.2136C27.7853 27.8914 28.2662 27.3854 28.2662 26.7348C28.2662 26.0987 27.7853 25.5782 27.2136 25.5782H2.78229C2.5094 25.5782 2.41843 25.4771 2.41843 25.1734V2.31626C2.41843 1.69459 1.95059 1.15967 1.37879 1.15967C0.794005 1.15967 0.326172 1.69459 0.326172 2.31626V26.7493Z" fill="white"/>
</g>
<defs>
<clipPath id="clip0_224_396">
<rect width="27.94" height="26.9052" fill="white" transform="translate(0.326172 0.986328)"/>
</clipPath>
</defs>
</svg>
