<svg width="32" height="28" viewBox="0 0 32 28" fill="none" xmlns="http://www.w3.org/2000/svg">
<path d="M1.53809 15.5015C1.53809 16.1702 2.26234 16.588 2.8412 16.2531L8.22368 13.1391C9.86107 12.1918 11.9182 12.3819 13.3542 13.6132L14.3257 14.4462C16.3656 16.1953 19.2941 16.4474 21.603 15.0728L29.0283 10.6519C29.4496 10.401 29.5838 9.85359 29.3261 9.43635C29.0742 9.0285 28.5417 8.89812 28.1299 9.14346L21.7039 12.9716C19.4047 14.3414 16.4878 14.0911 14.4555 12.3498C12.447 10.6288 9.57129 10.3623 7.28069 11.6847L1.97224 14.7495C1.70358 14.9046 1.53809 15.1913 1.53809 15.5015ZM28.7256 12.2462C30.1611 12.2462 31.333 11.0744 31.333 9.63879C31.333 8.20325 30.1611 7.03137 28.7256 7.03137C27.29 7.03137 26.1182 8.20325 26.1182 9.63879C26.1182 11.0744 27.29 12.2462 28.7256 12.2462Z" fill="#F12C4C"/>
<path d="M0 26.1183C0 26.8214 0.46875 27.2755 1.17188 27.2755H30.3076C30.9521 27.2755 31.4941 26.7628 31.4941 26.1037C31.4941 25.4591 30.9521 24.9318 30.3076 24.9318H2.76855C2.46094 24.9318 2.3584 24.8293 2.3584 24.5216V1.36243C2.3584 0.732544 1.83105 0.190552 1.18652 0.190552C0.527344 0.190552 0 0.732544 0 1.36243V26.1183Z" fill="white"/>
</svg>
