<svg width="29" height="28" viewBox="0 0 29 28" fill="none" xmlns="http://www.w3.org/2000/svg">
<g clip-path="url(#clip0_224_301)">
<path d="M11.8256 26.3344H24.7875C27.0918 26.3344 28.2661 25.1823 28.2661 22.9001V11.5225C28.2661 9.24033 27.0918 8.08812 24.7875 8.08812H8.5353C6.20881 8.08812 5.05664 9.24033 5.05664 11.5225V15.2116C5.35576 15.1784 5.65488 15.1562 5.94292 15.1562C6.24205 15.1562 6.54116 15.1784 6.84028 15.2116V11.6222C6.84028 10.4701 7.4496 9.87175 8.55746 9.87175H24.7542C25.851 9.87175 26.4825 10.4701 26.4825 11.6222V22.8004C26.4825 23.9526 25.851 24.5508 24.7542 24.5508H12.723C12.5125 25.1933 12.2023 25.7915 11.8256 26.3344ZM7.3942 6.30451H25.9396C25.7735 5.29637 25.2971 4.74244 24.1892 4.74244H9.14464C8.03675 4.74244 7.56038 5.29637 7.3942 6.30451ZM9.67639 3.23577H23.6574C23.591 2.29409 23.0592 1.80664 22.0289 1.80664H11.2939C10.2746 1.80664 9.74287 2.29409 9.67639 3.23577Z" fill="white" fill-opacity="0.85"/>
<path d="M5.95405 27.9408C9.00061 27.9408 11.5819 25.3817 11.5819 22.3129C11.5819 19.222 9.04493 16.6851 5.95405 16.6851C2.86315 16.6851 0.326172 19.222 0.326172 22.3129C0.326172 25.4038 2.86315 27.9408 5.95405 27.9408Z" fill="white" fill-opacity="0.85"/>
<path d="M4.12598 24.5399V20.0641C4.12598 19.5989 4.59128 19.4105 5.00118 19.6432L8.61275 21.7924C9.04482 22.0472 9.07809 22.5568 8.67923 22.7894L5.00118 24.9608C4.59128 25.2046 4.12598 25.0051 4.12598 24.5399Z" fill="#1E1E1E"/>
</g>
<defs>
<clipPath id="clip0_224_301">
<rect width="27.94" height="27.7073" fill="white" transform="translate(0.326172 0.233643)"/>
</clipPath>
</defs>
</svg>
