<svg width="38" height="26" viewBox="0 0 38 26" fill="none" xmlns="http://www.w3.org/2000/svg">
<path d="M2.90156 19.8402H11.327C13.1481 19.8402 14.2286 18.7718 14.2286 16.9872V8.46459C14.2286 6.6921 13.1481 5.6116 11.327 5.6116H2.90156C1.0805 5.6116 0 6.6921 0 8.46459V16.9872C0 18.7718 1.0805 19.8402 2.90156 19.8402ZM2.93798 18.007C2.24597 18.007 1.8332 17.5821 1.8332 16.89V8.98821C1.8332 8.29625 1.33743 18.007 2.02943 18.007L12.132 18.2115C12.8241 18.2115 12.3954 7.88186 12.3954 8.57382V16.89C12.3954 17.5821 11.9826 18.007 11.2905 18.007H2.93798Z" fill="#F12C4C"/>
<path d="M11.7172 12.8244C11.7172 15.3418 9.67639 17.3827 7.1589 17.3827C4.64141 17.3827 2.60059 15.3418 2.60059 12.8244C2.60059 10.3069 4.64141 8.26604 7.1589 8.26604C9.67639 8.26604 11.7172 10.3069 11.7172 12.8244ZM3.51641 12.8244C3.51641 14.836 5.14721 16.4668 7.1589 16.4668C9.1706 16.4668 10.8014 14.836 10.8014 12.8244C10.8014 10.8127 9.1706 9.18186 7.1589 9.18186C5.14721 9.18186 3.51641 10.8127 3.51641 12.8244Z" fill="white"/>
<path d="M18.7926 25.4248C19.3267 25.4248 19.691 25.0848 19.691 24.5749V0.876858C19.691 0.379101 19.3267 0.0391693 18.7926 0.0391693C18.2583 0.0391693 17.9062 0.379101 17.9062 0.876858V24.5749C17.9062 25.0848 18.2583 25.4248 18.7926 25.4248ZM26.2589 19.8402H34.6843C36.5054 19.8402 37.5859 18.7718 37.5859 16.9872V8.4646C37.5859 6.69211 36.5054 5.61162 34.6843 5.61162H26.2589C24.4378 5.61162 23.3573 6.69211 23.3573 8.4646V16.9872C23.3573 18.7718 24.4378 19.8402 26.2589 19.8402Z" fill="white"/>
<path fill-rule="evenodd" clip-rule="evenodd" d="M32.389 13.7864L30.967 15.2084C30.817 15.3584 30.6136 15.4228 30.4179 15.4016C30.2707 15.3856 30.1277 15.3212 30.0149 15.2084L28.5929 13.7864C28.4615 13.655 28.3958 13.4827 28.3957 13.3105C28.3956 13.1382 28.4613 12.9658 28.5929 12.8343L30.0149 11.4122C30.1609 11.2662 30.3572 11.2013 30.548 11.2174C30.7008 11.2303 30.8501 11.2952 30.967 11.4122L32.389 12.8343C32.5204 12.9656 32.5861 13.1378 32.5862 13.31C32.5863 13.4824 32.5206 13.6548 32.389 13.7864ZM33.1764 12.8125L33.1777 12.8119L33.1707 12.793C33.1654 12.7792 33.1611 12.7654 33.1553 12.7517L32.2929 10.4301L31.7739 11.1737L30.4915 8.73196C30.4915 8.73196 28.4697 11.7392 27.9568 12.506L27.9579 12.5061C27.5811 13.0691 27.6404 13.8374 28.1376 14.3346L29.4666 15.6636C30.0324 16.2293 30.9496 16.2293 31.5152 15.6636L32.8443 14.3346C33.2561 13.9227 33.3643 13.3256 33.1764 12.8125Z" fill="#F12C4C"/>
<path fill-rule="evenodd" clip-rule="evenodd" d="M30.4905 11.934C30.2595 11.934 30.0723 12.1212 30.0723 12.3522C30.0723 12.5832 30.2595 12.7705 30.4905 12.7705C30.7215 12.7705 30.9088 12.5832 30.9088 12.3522C30.9088 12.1212 30.7215 11.934 30.4905 11.934Z" fill="#F12C4C"/>
<path fill-rule="evenodd" clip-rule="evenodd" d="M30.4905 13.8503C30.2595 13.8503 30.0723 14.0376 30.0723 14.2686C30.0723 14.4995 30.2595 14.6868 30.4905 14.6868C30.7215 14.6868 30.9088 14.4995 30.9088 14.2686C30.9088 14.0376 30.7215 13.8503 30.4905 13.8503Z" fill="#F12C4C"/>
<path fill-rule="evenodd" clip-rule="evenodd" d="M31.4495 12.892C31.2185 12.892 31.0312 13.0793 31.0312 13.3103C31.0312 13.5413 31.2185 13.7286 31.4495 13.7286C31.6805 13.7286 31.8678 13.5413 31.8678 13.3103C31.8678 13.0793 31.6805 12.892 31.4495 12.892Z" fill="#F12C4C"/>
<path fill-rule="evenodd" clip-rule="evenodd" d="M29.1143 13.3103C29.1143 13.5413 29.3015 13.7286 29.5326 13.7286C29.7636 13.7286 29.9509 13.5413 29.9509 13.3103C29.9509 13.0793 29.7636 12.892 29.5326 12.892C29.3015 12.892 29.1143 13.0793 29.1143 13.3103Z" fill="#F12C4C"/>
</svg>
