<svg width="20" height="20" viewBox="0 0 20 20" fill="none" xmlns="http://www.w3.org/2000/svg">
<path d="M14.9232 0H5.07682C2.27297 0 0 2.27297 0 5.07682V14.9232C0 17.727 2.27297 20 5.07682 20H14.9232C17.727 20 20 17.727 20 14.9232V5.07682C20 2.27297 17.727 0 14.9232 0Z" fill="#F12C4C"/>
<path d="M10.0003 16.7536C13.6864 16.7536 16.6745 13.7655 16.6745 10.0795C16.6745 6.39343 13.6864 3.4053 10.0003 3.4053C6.3143 3.4053 3.32617 6.39343 3.32617 10.0795C3.32617 13.7655 6.3143 16.7536 10.0003 16.7536Z" fill="white"/>
<path d="M10.0006 15.5391C13.0159 15.5391 15.4602 13.0947 15.4602 10.0795C15.4602 7.06422 13.0159 4.61987 10.0006 4.61987C6.98536 4.61987 4.54102 7.06422 4.54102 10.0795C4.54102 13.0947 6.98536 15.5391 10.0006 15.5391Z" fill="#F12C4C"/>
</svg>
