<svg width="21" height="21" viewBox="0 0 21 21" fill="none" xmlns="http://www.w3.org/2000/svg">
<path d="M16.2978 20.2164H4.41754C3.286 20.2164 2.47993 19.8872 1.95873 19.3739C1.43902 18.8621 1.10975 18.0761 1.10975 16.9771V4.95986C1.10975 3.87067 1.43835 3.08354 1.95958 2.56866C2.48187 2.05275 3.28837 1.72059 4.41754 1.72059H16.2978C17.427 1.72059 18.2335 2.05275 18.7558 2.56866C19.277 3.08354 19.6056 3.87067 19.6056 4.95986V16.9771C19.6056 18.0761 19.2763 18.8621 18.7566 19.3739C18.2354 19.8872 17.4294 20.2164 16.2978 20.2164Z" stroke="white" stroke-width="1.56716"/>
<path fill-rule="evenodd" clip-rule="evenodd" d="M13.0609 12.4639L11.0558 14.469C10.8443 14.6805 10.5575 14.7714 10.2816 14.7414C10.074 14.7188 9.87241 14.6281 9.71332 14.469L7.70817 12.4639C7.52295 12.2786 7.43027 12.0357 7.43014 11.793C7.43002 11.5499 7.52269 11.3069 7.70817 11.1214L9.71332 9.11623C9.91918 8.91038 10.1959 8.81885 10.465 8.84156C10.6805 8.85974 10.8909 8.95126 11.0558 9.11623L13.0609 11.1214C13.2462 11.3066 13.3388 11.5494 13.339 11.7922C13.3391 12.0353 13.2464 12.2784 13.0609 12.4639ZM14.1713 11.0906L14.173 11.0899L14.1632 11.0632C14.1558 11.0437 14.1496 11.0242 14.1415 11.005L12.9254 7.73136L12.1935 8.77988L10.3854 5.33691C10.3854 5.33691 7.53448 9.57732 6.81128 10.6585L6.81282 10.6587C6.2815 11.4525 6.3652 12.5359 7.06623 13.2369L8.94026 15.1108C9.73795 15.9085 11.0313 15.9085 11.8288 15.1108L13.7029 13.2369C14.2835 12.6561 14.4362 11.8142 14.1713 11.0906Z" fill="white"/>
<path fill-rule="evenodd" clip-rule="evenodd" d="M10.3857 9.85181C10.0599 9.85181 9.7959 10.1158 9.7959 10.4416C9.7959 10.7673 10.0599 11.0313 10.3857 11.0313C10.7114 11.0313 10.9754 10.7673 10.9754 10.4416C10.9754 10.1158 10.7114 9.85181 10.3857 9.85181Z" fill="white"/>
<path fill-rule="evenodd" clip-rule="evenodd" d="M10.3857 12.554C10.0599 12.554 9.7959 12.818 9.7959 13.1437C9.7959 13.4694 10.0599 13.7335 10.3857 13.7335C10.7114 13.7335 10.9754 13.4694 10.9754 13.1437C10.9754 12.818 10.7114 12.554 10.3857 12.554Z" fill="white"/>
<path fill-rule="evenodd" clip-rule="evenodd" d="M11.7363 11.2029C11.4105 11.2029 11.1465 11.4669 11.1465 11.7927C11.1465 12.1184 11.4105 12.3824 11.7363 12.3824C12.062 12.3824 12.326 12.1184 12.326 11.7927C12.326 11.4669 12.062 11.2029 11.7363 11.2029Z" fill="white"/>
<path fill-rule="evenodd" clip-rule="evenodd" d="M8.44434 11.7927C8.44434 12.1184 8.70839 12.3824 9.03423 12.3824C9.35994 12.3824 9.624 12.1184 9.624 11.7927C9.624 11.4669 9.35994 11.2029 9.03423 11.2029C8.70839 11.2029 8.44434 11.4669 8.44434 11.7927Z" fill="white"/>
</svg>
