<svg width="20" height="20" viewBox="0 0 20 20" fill="none" xmlns="http://www.w3.org/2000/svg">
<path d="M14.9232 0H5.07682C2.27297 0 0 2.27297 0 5.07682V14.9232C0 17.727 2.27297 20 5.07682 20H14.9232C17.727 20 20 17.727 20 14.9232V5.07682C20 2.27297 17.727 0 14.9232 0Z" fill="white"/>
<path d="M14.9827 10.4821L14.9694 10.4464C14.9602 10.4212 14.9509 10.396 14.9403 10.3709L13.3443 6.06358L12.3814 7.44239L10.0039 2.91391C10.0039 2.91391 6.25288 8.49139 5.29791 9.91391C4.95238 10.4303 4.79677 11.0507 4.85764 11.669C4.91851 12.2874 5.19209 12.8655 5.63169 13.3046L8.09527 15.7695C8.59923 16.2734 9.28266 16.5564 9.99527 16.5564C10.7079 16.5564 11.3913 16.2734 11.8953 15.7695L14.3602 13.3046C14.7229 12.9429 14.9743 12.4848 15.0846 11.9845C15.195 11.4843 15.1596 10.9629 14.9827 10.4821ZM13.5257 12.2874L10.8847 14.9245C10.7689 15.0407 10.6313 15.1329 10.4798 15.1958C10.3283 15.2587 10.1659 15.291 10.0019 15.291C9.83786 15.291 9.67545 15.2587 9.52396 15.1958C9.37248 15.1329 9.2349 15.0407 9.11911 14.9245L6.48202 12.2874C6.24803 12.0532 6.1166 11.7357 6.1166 11.4046C6.1166 11.0736 6.24803 10.7561 6.48202 10.5219L9.11911 7.88477C9.23498 7.76875 9.3726 7.67671 9.52407 7.61392C9.67554 7.55112 9.83791 7.5188 10.0019 7.5188C10.1659 7.5188 10.3282 7.55112 10.4797 7.61392C10.6312 7.67671 10.7688 7.76875 10.8847 7.88477L13.5218 10.5219C13.6381 10.6376 13.7304 10.7751 13.7934 10.9266C13.8564 11.0781 13.8888 11.2406 13.8888 11.4046C13.8888 11.5687 13.8564 11.7312 13.7934 11.8827C13.7304 12.0342 13.6381 12.1717 13.5218 12.2874H13.5257Z" fill="#F9305B"/>
<path d="M10.5518 10.1765C10.8549 9.87337 10.8549 9.38194 10.5518 9.07883C10.2486 8.77572 9.75721 8.77572 9.4541 9.07883C9.15099 9.38194 9.15099 9.87337 9.4541 10.1765C9.75721 10.4796 10.2486 10.4796 10.5518 10.1765Z" fill="#F9305B"/>
<path d="M10.1803 13.937C10.5975 13.8385 10.8559 13.4205 10.7575 13.0033C10.659 12.5861 10.241 12.3277 9.82376 12.4262C9.40656 12.5247 9.14818 12.9427 9.24665 13.3599C9.34512 13.7771 9.76315 14.0355 10.1803 13.937Z" fill="#F9305B"/>
<path d="M11.7781 12.1815C12.2068 12.1815 12.5543 11.834 12.5543 11.4053C12.5543 10.9766 12.2068 10.6292 11.7781 10.6292C11.3495 10.6292 11.002 10.9766 11.002 11.4053C11.002 11.834 11.3495 12.1815 11.7781 12.1815Z" fill="#F9305B"/>
<path d="M8.22538 12.1815C8.65404 12.1815 9.00154 11.834 9.00154 11.4053C9.00154 10.9766 8.65404 10.6292 8.22538 10.6292C7.79672 10.6292 7.44922 10.9766 7.44922 11.4053C7.44922 11.834 7.79672 12.1815 8.22538 12.1815Z" fill="#F9305B"/>
</svg>
