<svg width="30" height="30" viewBox="0 0 30 30" fill="none" xmlns="http://www.w3.org/2000/svg">
<g clip-path="url(#clip0_75_216)">
<path d="M14.9414 29.8828C23.1152 29.8828 29.8828 23.1006 29.8828 14.9414C29.8828 6.76758 23.1006 0 14.9268 0C6.76758 0 0 6.76758 0 14.9414C0 23.1006 6.78223 29.8828 14.9414 29.8828ZM14.9414 27.3926C8.02734 27.3926 2.50488 21.8555 2.50488 14.9414C2.50488 8.02734 8.0127 2.49023 14.9268 2.49023C21.8408 2.49023 27.3926 8.02734 27.3926 14.9414C27.3926 21.8555 21.8555 27.3926 14.9414 27.3926Z" fill="white" fill-opacity="0.85"/>
<path d="M6.97266 12.0557H22.9395C23.584 12.0557 24.0527 11.6455 24.0527 11.0156C24.0527 10.4004 23.584 9.99023 22.9395 9.99023H6.97266C6.31348 9.99023 5.85938 10.4004 5.85938 11.0156C5.85938 11.6455 6.31348 12.0557 6.97266 12.0557ZM9.14062 16.9043H20.7715C21.416 16.9043 21.8701 16.4941 21.8701 15.8643C21.8701 15.249 21.416 14.8389 20.7715 14.8389H9.14062C8.48145 14.8389 8.02734 15.249 8.02734 15.8643C8.02734 16.4941 8.48145 16.9043 9.14062 16.9043ZM11.3965 21.7676H18.501C19.1455 21.7676 19.6143 21.3428 19.6143 20.7275C19.6143 20.1123 19.1455 19.7021 18.501 19.7021H11.3965C10.752 19.7021 10.2979 20.1123 10.2979 20.7275C10.2979 21.3428 10.752 21.7676 11.3965 21.7676Z" fill="white" fill-opacity="0.85"/>
</g>
<defs>
<clipPath id="clip0_75_216">
<rect width="29.8828" height="29.8975" fill="white"/>
</clipPath>
</defs>
</svg>
