<svg width="28" height="28" viewBox="0 0 28 28" fill="none" xmlns="http://www.w3.org/2000/svg">
<g clip-path="url(#clip0_514_2823)">
<path d="M22.2717 23.2533L23.6374 21.9822L15.9301 14.3696L25.1788 9.05562L24.2729 7.48713L15.1729 12.7065V1.86215H13.361V14.0721C13.361 14.3696 13.4285 14.613 13.6855 14.8564L22.2717 23.2533ZM14.1182 27.6748C21.6632 27.6748 27.9102 21.4144 27.9102 13.8828C27.9102 6.33779 21.6497 0.0908203 14.1047 0.0908203C6.57314 0.0908203 0.326172 6.33779 0.326172 13.8828C0.326172 21.4144 6.58666 27.6748 14.1182 27.6748ZM14.1182 25.3762C7.73599 25.3762 2.63836 20.265 2.63836 13.8828C2.63836 7.50064 7.72248 2.38948 14.1047 2.38948C20.4868 2.38948 25.6115 7.50064 25.6115 13.8828C25.6115 20.265 20.5004 25.3762 14.1182 25.3762Z" fill="white" fill-opacity="0.85"/>
</g>
<defs>
<clipPath id="clip0_514_2823">
<rect width="27.584" height="27.5976" fill="white" transform="translate(0.326172 0.0908203)"/>
</clipPath>
</defs>
</svg>
