<svg width="29" height="28" viewBox="0 0 29 28" fill="none" xmlns="http://www.w3.org/2000/svg">
<g clip-path="url(#clip0_224_392)">
<path d="M10.9205 23.9922H17.6752V15.4699C17.6752 14.9314 17.324 14.5802 16.7855 14.5802H11.822C11.2717 14.5802 10.9205 14.9314 10.9205 15.4699V23.9922ZM6.34331 25.198H22.1821C23.8445 25.198 24.8161 24.2498 24.8161 22.6109V9.67523L22.9314 8.38748V22.1309C22.9314 22.8918 22.5216 23.3133 21.7842 23.3133H6.74132C5.99211 23.3133 5.58238 22.8918 5.58238 22.1309V8.39919L3.69764 9.67523V22.6109C3.69764 24.2498 4.66928 25.198 6.34331 25.198ZM0.326172 12.1687C0.326172 12.6487 0.700779 13.1052 1.33293 13.1052C1.66071 13.1052 1.92996 12.9296 2.17579 12.7306L13.894 2.89714C14.1515 2.66301 14.4676 2.66301 14.7252 2.89714L26.4434 12.7306C26.6774 12.9296 26.9467 13.1052 27.2745 13.1052C27.8247 13.1052 28.2695 12.7657 28.2695 12.2038C28.2695 11.8526 28.1525 11.6185 27.9066 11.4077L15.7202 1.16458C14.8539 0.427073 13.777 0.427073 12.8989 1.16458L0.700779 11.4077C0.443236 11.6185 0.326172 11.8995 0.326172 12.1687ZM21.8778 6.88905L24.8161 9.37083V3.96243C24.8161 3.44734 24.4884 3.11957 23.9732 3.11957H22.7207C22.2173 3.11957 21.8778 3.44734 21.8778 3.96243V6.88905Z" fill="white" fill-opacity="0.85"/>
</g>
<defs>
<clipPath id="clip0_224_392">
<rect width="27.9434" height="26.5678" fill="white" transform="translate(0.326172 0.61145)"/>
</clipPath>
</defs>
</svg>
