<svg width="29" height="20" viewBox="0 0 29 20" fill="none" xmlns="http://www.w3.org/2000/svg">
<g clip-path="url(#clip0_224_417)">
<path d="M13.1971 19.5007H25.7978C27.4732 19.5007 28.2657 18.9991 28.2657 17.8956C28.2657 15.2671 24.945 11.4649 19.4975 11.4649C14.0599 11.4649 10.7393 15.2671 10.7393 17.8956C10.7393 18.9991 11.5318 19.5007 13.1971 19.5007ZM12.7156 17.9859C12.4548 17.9859 12.3545 17.9157 12.3545 17.7049C12.3545 16.0597 14.9027 12.9797 19.4975 12.9797C24.1023 12.9797 26.6505 16.0597 26.6505 17.7049C26.6505 17.9157 26.5402 17.9859 26.2793 17.9859H12.7156ZM19.5075 10.2209C21.8952 10.2209 23.8414 8.09398 23.8414 5.50566C23.8414 2.93739 21.9052 0.920898 19.5075 0.920898C17.1198 0.920898 15.1635 2.97752 15.1735 5.52573C15.1835 8.10405 17.1198 10.2209 19.5075 10.2209ZM19.5075 8.70599C18.0427 8.70599 16.7887 7.30145 16.7887 5.52573C16.7787 3.78011 18.0127 2.43578 19.5075 2.43578C21.0023 2.43578 22.2262 3.76005 22.2262 5.50566C22.2262 7.28139 20.9822 8.70599 19.5075 8.70599Z" fill="white" fill-opacity="0.85"/>
<path d="M2.36273 19.5007H10.2381C9.75653 19.2298 9.39539 18.6279 9.46559 18.0159H2.12196C1.91128 18.0159 1.82099 17.9356 1.82099 17.745C1.82099 15.257 4.66013 12.9295 7.94072 12.9295C9.19473 12.9295 10.3384 13.2305 11.3115 13.8023C11.6225 13.4011 11.9937 13.0499 12.4452 12.7389C11.1511 11.8861 9.59606 11.4447 7.94072 11.4447C3.73716 11.4447 0.326172 14.4945 0.326172 17.8353C0.326172 18.9489 1.00837 19.5007 2.36273 19.5007ZM7.95072 10.3011C10.0174 10.3011 11.7129 8.44505 11.7129 6.16773C11.7129 3.94056 10.0375 2.14478 7.95072 2.14478C5.88407 2.14478 4.17858 3.97065 4.18861 6.1878C4.18861 8.45512 5.88407 10.3011 7.95072 10.3011ZM7.95072 8.80625C6.71675 8.80625 5.68343 7.63245 5.68343 6.1878C5.68343 4.77324 6.70673 3.63959 7.95072 3.63959C9.21479 3.63959 10.2281 4.75318 10.2281 6.16773C10.2281 7.63245 9.18473 8.80625 7.95072 8.80625Z" fill="white" fill-opacity="0.85"/>
</g>
<defs>
<clipPath id="clip0_224_417">
<rect width="27.94" height="18.9109" fill="white" transform="translate(0.326172 0.589844)"/>
</clipPath>
</defs>
</svg>
