<svg width="55" height="56" viewBox="0 0 55 56" fill="none" xmlns="http://www.w3.org/2000/svg">
<g clip-path="url(#clip0_995_73)">
<path d="M27.4299 54.994C42.2325 54.994 54.4885 42.7116 54.4885 27.9355C54.4885 13.1328 42.2061 0.876862 27.4035 0.876862C12.6273 0.876862 0.371338 13.1328 0.371338 27.9355C0.371338 42.7116 12.6538 54.994 27.4299 54.994ZM27.4299 50.4843C14.9087 50.4843 4.90763 40.4568 4.90763 27.9355C4.90763 15.4142 14.8822 5.38662 27.4035 5.38662C39.9246 5.38662 49.9788 15.4142 49.9788 27.9355C49.9788 40.4568 39.9512 50.4843 27.4299 50.4843Z" fill="white" fill-opacity="0.85"/>
<path d="M22.4691 38.3078L37.5637 29.3679C38.6778 28.7314 38.6513 27.1926 37.5637 26.5294L22.4691 17.5895C21.3286 16.9263 19.8164 17.4304 19.8164 18.7302V37.1673C19.8164 38.4406 21.2225 39.0507 22.4691 38.3078Z" fill="white" fill-opacity="0.85"/>
</g>
<defs>
<clipPath id="clip0_995_73">
<rect width="54.1172" height="54.1438" fill="white" transform="translate(0.371338 0.876862)"/>
</clipPath>
</defs>
</svg>
