<svg width="29" height="29" viewBox="0 0 29 29" fill="none" xmlns="http://www.w3.org/2000/svg">
<g clip-path="url(#clip0_514_2804)">
<path d="M8.12249 28.1734C8.74365 28.1734 9.17466 27.8438 9.948 27.1592L14.3215 23.2675H22.4601C26.2378 23.2675 28.2662 21.1758 28.2662 17.4614V7.75086C28.2662 4.03652 26.2378 1.94482 22.4601 1.94482H6.1322C2.35448 1.94482 0.326172 4.02384 0.326172 7.75086V17.4614C0.326172 21.1884 2.35448 23.2675 6.1322 23.2675H6.7407V26.5635C6.7407 27.5396 7.2351 28.1734 8.12249 28.1734ZM8.64225 25.8536V22.1772C8.64225 21.4927 8.37603 21.2265 7.69147 21.2265H6.1322C3.57147 21.2265 2.36716 19.9207 2.36716 17.4487V7.75086C2.36716 5.27886 3.57147 3.98581 6.1322 3.98581H22.4601C25.0082 3.98581 26.2252 5.27886 26.2252 7.75086V17.4487C26.2252 19.9207 25.0082 21.2265 22.4601 21.2265H14.2455C13.5356 21.2265 13.1806 21.3279 12.6989 21.8223L8.64225 25.8536Z" fill="white" fill-opacity="0.85"/>
<path d="M14.0553 15.2302C14.6891 15.2302 15.0694 14.8245 15.0694 14.3301C15.0694 14.2794 15.0694 14.2161 15.0694 14.178C15.0694 13.4681 15.4877 13.0118 16.3751 12.4287C17.6048 11.6173 18.4795 10.882 18.4795 9.36076C18.4795 7.25643 16.6033 6.12817 14.4482 6.12817C12.2678 6.12817 10.8353 7.15501 10.4803 8.32128C10.417 8.52412 10.3789 8.72695 10.3789 8.94246C10.3789 9.5129 10.8226 9.81718 11.2537 9.81718C11.6846 9.81718 11.9508 9.61433 12.179 9.31005L12.4073 9.00586C12.851 8.27058 13.5228 7.83956 14.3595 7.83956C15.5258 7.83956 16.2737 8.49876 16.2737 9.46219C16.2737 10.3242 15.7413 10.7426 14.6257 11.5159C13.7256 12.1497 13.0411 12.8216 13.0411 14.0639C13.0411 14.1146 13.0411 14.178 13.0411 14.2287C13.0411 14.888 13.396 15.2302 14.0553 15.2302ZM14.0172 19.0079C14.7524 19.0079 15.3863 18.4375 15.3863 17.6896C15.3863 16.9543 14.7652 16.3838 14.0172 16.3838C13.2819 16.3838 12.6607 16.967 12.6607 17.6896C12.6607 18.4248 13.2947 19.0079 14.0172 19.0079Z" fill="white" fill-opacity="0.85"/>
</g>
<defs>
<clipPath id="clip0_514_2804">
<rect width="27.94" height="27.8512" fill="white" transform="translate(0.326172 0.322021)"/>
</clipPath>
</defs>
</svg>
