<svg width="22" height="22" viewBox="0 0 22 22" fill="none" xmlns="http://www.w3.org/2000/svg">
<path d="M8.41125 2.78873C7.96426 3.33188 7.2762 3.61688 6.57606 3.54889C5.25257 3.42035 4.14094 4.53199 4.26947 5.85548C4.33747 6.55562 4.05247 7.24367 3.50931 7.69067C2.48257 8.53563 2.48257 10.1077 3.50931 10.9527C4.05246 11.3997 4.33747 12.0877 4.26947 12.7879C4.14094 14.1114 5.25257 15.223 6.57606 15.0945C7.2762 15.0265 7.96426 15.3115 8.41125 15.8546C9.25621 16.8814 10.8283 16.8814 11.6733 15.8546C12.1203 15.3115 12.8083 15.0265 13.5085 15.0945C14.8319 15.223 15.9436 14.1114 15.815 12.7879C15.7471 12.0877 16.032 11.3997 16.5752 10.9527C17.6019 10.1077 17.6019 8.53563 16.5752 7.69067C16.032 7.24367 15.7471 6.55562 15.815 5.85548C15.9436 4.53199 14.8319 3.42035 13.5085 3.54889C12.8083 3.61688 12.1203 3.33188 11.6733 2.78873C10.8283 1.76199 9.25621 1.76199 8.41125 2.78873Z" fill="#007AFF" stroke="#007AFF" stroke-width="0.654987"/>
<g filter="url(#filter0_d_220_335)">
<path d="M7.66627 8.50377C7.41048 8.24798 6.99577 8.24798 6.73998 8.50377C6.48419 8.75956 6.48419 9.17427 6.73998 9.43006L7.66627 8.50377ZM9.33183 11.0956L8.86869 11.5588C9.12448 11.8146 9.53919 11.8146 9.79498 11.5588L9.33183 11.0956ZM13.6976 7.65614C13.9534 7.40035 13.9534 6.98564 13.6976 6.72985C13.4418 6.47406 13.0271 6.47406 12.7713 6.72985L13.6976 7.65614ZM6.73998 9.43006L8.86869 11.5588L9.79498 10.6325L7.66627 8.50377L6.73998 9.43006ZM9.79498 11.5588L13.6976 7.65614L12.7713 6.72985L8.86869 10.6325L9.79498 11.5588Z" fill="white"/>
</g>
<defs>
<filter id="filter0_d_220_335" x="5.23788" y="5.22799" width="9.96174" height="7.83259" filterUnits="userSpaceOnUse" color-interpolation-filters="sRGB">
<feFlood flood-opacity="0" result="BackgroundImageFix"/>
<feColorMatrix in="SourceAlpha" type="matrix" values="0 0 0 0 0 0 0 0 0 0 0 0 0 0 0 0 0 0 127 0" result="hardAlpha"/>
<feOffset/>
<feGaussianBlur stdDeviation="0.654987"/>
<feComposite in2="hardAlpha" operator="out"/>
<feColorMatrix type="matrix" values="0 0 0 0 0 0 0 0 0 0.338437 0 0 0 0 0.483482 0 0 0 0.4 0"/>
<feBlend mode="normal" in2="BackgroundImageFix" result="effect1_dropShadow_220_335"/>
<feBlend mode="normal" in="SourceGraphic" in2="effect1_dropShadow_220_335" result="shape"/>
</filter>
</defs>
</svg>
