<?xml version="1.0" standalone="no"?>
<!DOCTYPE svg PUBLIC "-//W3C//DTD SVG 20010904//EN"
 "http://www.w3.org/TR/2001/REC-SVG-20010904/DTD/svg10.dtd">
<svg version="1.0" xmlns="http://www.w3.org/2000/svg"
 width="140.000000pt" height="140.000000pt" viewBox="0 0 140.000000 140.000000"
 preserveAspectRatio="xMidYMid meet">
<metadata>
Created by potrace 1.14, written by Peter Selinger 2001-2017
</metadata>
<g transform="translate(0.000000,140.000000) scale(0.100000,-0.100000)"
fill="#000000" stroke="none">
<path d="M213 1386 c-78 -25 -142 -82 -184 -163 l-24 -48 0 -475 0 -475 23
-47 c31 -63 80 -113 144 -146 l53 -27 475 0 475 0 47 23 c62 31 119 87 149
148 l24 49 0 475 0 475 -23 48 c-31 61 -85 115 -148 147 l-49 25 -460 2 c-359
2 -469 -1 -502 -11z"/>
</g>
</svg>
