<?xml version="1.0" encoding="UTF-8"?><svg id="Camada_2" xmlns="http://www.w3.org/2000/svg" xmlns:xlink="http://www.w3.org/1999/xlink" viewBox="0 0 664.49 423.58"><defs><style>.cls-1{fill:#fff;}.cls-2{fill:url(#Gradiente_sem_nome_51-5);}.cls-2,.cls-3,.cls-4,.cls-5,.cls-6,.cls-7,.cls-8,.cls-9,.cls-10{stroke:#fff;stroke-miterlimit:10;stroke-width:2px;}.cls-3{fill:url(#Gradiente_sem_nome_51-8);}.cls-4{fill:url(#Gradiente_sem_nome_51-9);}.cls-5{fill:url(#Gradiente_sem_nome_51);}.cls-11{fill:#0f1923;}.cls-6{fill:url(#Gradiente_sem_nome_51-6);}.cls-7{fill:url(#Gradiente_sem_nome_51-3);}.cls-8{fill:url(#Gradiente_sem_nome_51-7);}.cls-12{fill:#f12c4c;}.cls-9{fill:url(#Gradiente_sem_nome_51-4);}.cls-10{fill:url(#Gradiente_sem_nome_51-2);}</style><linearGradient id="Gradiente_sem_nome_51" x1="205.56" y1="133.16" x2="224.01" y2="344.02" gradientUnits="userSpaceOnUse"><stop offset=".35" stop-color="#fff"/><stop offset=".4" stop-color="#fdfdfd"/><stop offset=".42" stop-color="#f6f6f6"/><stop offset=".43" stop-color="#eaeaea"/><stop offset=".44" stop-color="#d9d9d9"/><stop offset=".44" stop-color="#cecece"/></linearGradient><linearGradient id="Gradiente_sem_nome_51-2" x1="316.25" y1="126.84" x2="334.57" y2="336.21" xlink:href="#Gradiente_sem_nome_51"/><linearGradient id="Gradiente_sem_nome_51-3" x1="438.49" y1="118.11" x2="456.95" y2="329.1" xlink:href="#Gradiente_sem_nome_51"/><linearGradient id="Gradiente_sem_nome_51-4" x1="557.07" y1="111.06" x2="575.53" y2="322.08" xlink:href="#Gradiente_sem_nome_51"/><linearGradient id="Gradiente_sem_nome_51-5" x1="90.19" y1="139.88" x2="108.51" y2="349.29" xlink:href="#Gradiente_sem_nome_51"/><linearGradient id="Gradiente_sem_nome_51-6" x1="316.25" y1="126.84" x2="334.57" y2="336.21" xlink:href="#Gradiente_sem_nome_51"/><linearGradient id="Gradiente_sem_nome_51-7" x1="438.49" y1="118.11" x2="456.95" y2="329.1" xlink:href="#Gradiente_sem_nome_51"/><linearGradient id="Gradiente_sem_nome_51-8" x1="557.07" y1="111.06" x2="575.53" y2="322.08" xlink:href="#Gradiente_sem_nome_51"/><linearGradient id="Gradiente_sem_nome_51-9" x1="90.19" y1="139.88" x2="108.51" y2="349.29" xlink:href="#Gradiente_sem_nome_51"/></defs><g id="Camada_1-2"><g><g><g><path class="cls-11" d="M52.35,408.58c-5.63,0-10.8-2.83-13.85-7.56l-23.17-36.03,4.82-13.93L65,124.91l80.75-4.57,134.68-8.88,210.24-11.84,110.83-4.56,10.09,80.61-33.39,4.59,47.35,18.06,23.87,130.06-33.58,42.4c-3.14,3.96-7.83,6.4-12.87,6.68L53.28,408.55c-.31,.02-.62,.03-.93,.03Z"/><path class="cls-11" d="M18.61,364.59l22.39,34.83c2.63,4.09,7.26,6.45,12.12,6.18l549.7-31.1c4.2-.24,8.1-2.26,10.72-5.56l32.74-41.35-23.33-127.1-56.61-21.59,41.95-5.77-9.39-75-108.07,4.44-210.21,11.84-134.71,8.88-78.46,4.44L23.03,351.83l-4.42,12.77Z"/><g><path class="cls-11" d="M147.64,363.71c-2.09,0-4.09-.9-5.48-2.46-1.39-1.56-2.05-3.65-1.81-5.73l25.95-222c.08-.67,.25-1.31,.49-1.91l3.24-8.01c1.09-2.7,3.68-4.5,6.6-4.58q47.68-1.32,47.72-1.32c.33,0,.66,.02,.98,.06,.99-.64,2.14-1.03,3.34-1.13l51.94-4.55h.35c2.07,0,4.02,.83,5.4,2.29,1.38,1.46,2.11,3.44,2,5.45l-12.62,229.96c-.2,3.73-3.17,6.71-6.9,6.93l-120.85,7h-.32s-.03,0-.03,0Z"/><path class="cls-11" d="M147.64,360.75c-1.25,0-2.44-.53-3.27-1.47-.83-.93-1.22-2.18-1.08-3.42l25.95-221.99c.05-.4,.15-.78,.29-1.14l3.24-8.02c.65-1.61,2.2-2.69,3.94-2.74,0,0,47.64-1.32,47.64-1.32,.62,0,1.2,.11,1.72,.31,.72-.78,1.72-1.3,2.85-1.4l51.85-4.54h.25c1.2,0,2.35,.49,3.18,1.36,.82,.87,1.26,2.05,1.19,3.25l-12.62,229.97c-.12,2.22-1.89,4-4.12,4.13l-120.85,7h-.17Z"/><path class="cls-11" d="M172.27,133.85l3.24-8.02c.21-.52,.71-.87,1.27-.89l47.63-1.32c.85-.02,1.53,.7,1.45,1.54l-15.11,167.57c-.08,.86,.63,1.59,1.49,1.54l2.65-.15c.71-.04,1.29-.6,1.33-1.32l11.65-168.98c.05-.7,.6-1.25,1.29-1.31l51.72-4.53c.86-.08,1.59,.63,1.54,1.49l-12.62,229.97c-.04,.72-.61,1.3-1.33,1.34l-120.76,7c-.88,.05-1.59-.7-1.49-1.58l25.94-221.99c.01-.13,.05-.25,.09-.37Z"/><path class="cls-11" d="M271.32,354.79c-1.98,0-3.91-.82-5.29-2.25-1.38-1.43-2.12-3.39-2.05-5.37l8.59-226.79c.15-3.84,3.15-6.87,6.99-7.05l49.85-2.3h.19c2,0,3.85,.77,5.24,2.17s2.14,3.26,2.13,5.23l-.99,114.07c.28-.03,.56-.05,.85-.05,1.03,0,2.03,.21,2.98,.63l54.9,24.44c2.65,1.18,4.35,3.81,4.35,6.7v76.24c0,3.88-3.03,7.1-6.9,7.33l-120.5,6.99h-.32s-.02,0-.02,0Z"/><path class="cls-11" d="M271.32,351.83c-1.18,0-2.33-.49-3.15-1.34s-1.27-2.02-1.22-3.2l8.59-226.79c.09-2.29,1.88-4.1,4.17-4.21l49.79-2.3h.13c1.18,0,2.28,.46,3.11,1.29s1.28,1.94,1.27,3.12l-1.04,119.31c.74-1.37,2.19-2.3,3.85-2.3,.61,0,1.21,.13,1.78,.38l54.9,24.44c1.58,.71,2.6,2.27,2.6,4v76.24c0,2.31-1.81,4.23-4.12,4.37l-120.49,6.99h-.17Z"/><path class="cls-11" d="M279.85,119.25l49.72-2.3c.81-.04,1.49,.61,1.48,1.43l-1.45,167.13c0,.82,.68,1.47,1.5,1.43l2.98-.17c.75-.04,1.34-.66,1.34-1.41v-45.56c0-1.03,1.06-1.71,1.99-1.29l54.9,24.44c.51,.23,.84,.73,.84,1.29v76.24c0,.75-.59,1.37-1.33,1.41l-120.4,6.98c-.83,.05-1.53-.63-1.5-1.47l8.59-226.79c.03-.74,.61-1.33,1.35-1.36Z"/><path class="cls-11" d="M396.43,347.33c-3.94,0-7.16-3.08-7.33-7.02l-9.28-216.54v-10.5c0-3.93,3.07-7.15,7-7.33,0,0,50.04-2.27,50.04-2.27,3.97,0,7.18,3,7.45,6.82l8.04,115.56c1.17-.73,2.53-1.14,3.91-1.14,1.02,0,2.02,.21,2.95,.62l54.83,24.12c2.43,1.07,4.1,3.38,4.35,6.02l7.3,76.66c.19,1.97-.44,3.97-1.74,5.47-1.29,1.5-3.16,2.43-5.14,2.55l-122.05,6.97h-.31s-.03,0-.03,0Z"/><path class="cls-11" d="M396.43,344.37c-2.35,0-4.27-1.84-4.37-4.19l-9.28-216.54v-10.38c0-2.35,1.83-4.27,4.18-4.37l50.03-2.27c2.29,0,4.21,1.79,4.37,4.07l11.59,166.56h.44l-1.49-44.86c-.04-1.2,.4-2.33,1.23-3.19,.82-.85,1.97-1.34,3.15-1.34,.61,0,1.2,.12,1.76,.37l54.84,24.13c1.45,.64,2.44,2.01,2.59,3.59l7.3,76.65c.11,1.18-.26,2.37-1.04,3.26-.77,.9-1.89,1.45-3.07,1.52l-122.05,6.97h-.17Z"/><path class="cls-11" d="M385.74,123.52v-10.25c0-.76,.6-1.38,1.35-1.42l49.83-2.26c.77-.03,1.42,.55,1.48,1.32l11.69,167.99c.05,.74,.67,1.32,1.41,1.32h3.48c.8,0,1.44-.66,1.42-1.46l-1.55-46.45c-.03-1.04,1.03-1.76,1.99-1.34l54.83,24.12c.47,.21,.79,.65,.84,1.16l7.3,76.65c.08,.8-.53,1.5-1.33,1.55l-121.96,6.97c-.79,.05-1.46-.56-1.5-1.35l-9.28-216.54Z"/><path class="cls-11" d="M521.54,339.89c-3.67,0-6.79-2.74-7.27-6.38l-14.2-108.25c-.27-2.03,.34-4.1,1.66-5.68,1.33-1.58,3.26-2.53,5.31-2.61l5.56-.23-11.98-4.79c-2.47-1-4.22-3.25-4.56-5.89l-12.21-97.72c-.25-2.02,.35-4.07,1.66-5.63,1.3-1.55,3.22-2.51,5.25-2.61l107.96-5.31h.2c3.6,0,6.64,2.55,7.26,6.07l13.48,77.03c.37,2.08-.18,4.22-1.51,5.86-1.33,1.65-3.3,2.64-5.41,2.73l-9.34,.41,18.1,7.64c2.27,.96,3.9,2.97,4.35,5.4l23.51,124.26c.39,2.07-.13,4.21-1.42,5.88-1.3,1.66-3.25,2.69-5.36,2.81l-120.71,7h-.32s-.03,0-.03,0Z"/><path class="cls-11" d="M521.54,336.93c-2.19,0-4.05-1.64-4.34-3.81l-14.2-108.25c-.16-1.21,.2-2.45,.99-3.39,.79-.94,1.94-1.5,3.17-1.56l19.37-.81-24.81-9.92c-1.48-.59-2.52-1.94-2.72-3.52l-12.21-97.71c-.15-1.2,.21-2.43,.99-3.36,.78-.93,1.92-1.5,3.14-1.56l107.9-5.3h.14c2.13,0,3.94,1.52,4.31,3.62l13.48,77.03c.22,1.24-.11,2.52-.9,3.5-.79,.98-1.97,1.57-3.22,1.63l-22.48,.98,30.21,12.76c1.35,.57,2.32,1.77,2.6,3.22l23.51,124.26c.23,1.24-.08,2.51-.85,3.51-.77,.99-1.94,1.6-3.2,1.68l-120.7,7h-.17Z"/><path class="cls-11" d="M507.29,222.89l26.57-1.11c1.53-.06,1.89-2.16,.47-2.73l-31.51-12.6c-.48-.19-.82-.63-.88-1.14l-12.21-97.71c-.1-.82,.51-1.55,1.34-1.59l107.82-5.3c.71-.04,1.34,.47,1.47,1.17l13.48,77.03c.15,.84-.48,1.62-1.33,1.66l-29.33,1.27c-1.51,.07-1.88,2.13-.49,2.72l36.53,15.42c.44,.18,.75,.58,.84,1.04l23.51,124.26c.16,.84-.46,1.63-1.31,1.68l-120.61,6.99c-.74,.04-1.39-.49-1.49-1.23l-14.2-108.25c-.11-.83,.51-1.57,1.35-1.6Zm63.34,49.33l2.79-.15c.84-.05,1.45-.81,1.32-1.64l-5.97-36.85c-.08-.49-.41-.9-.87-1.09l-2.24-.9c-1.01-.41-2.08,.44-1.93,1.52l5.41,37.9c.1,.73,.75,1.25,1.48,1.21Zm-13.37-100.71l-2.7-18.87c-.1-.7-.7-1.22-1.4-1.22h-1.22c-.87,0-1.53,.77-1.4,1.63l2.83,18.42c.07,.49,.4,.9,.85,1.09l1.08,.46c1.02,.43,2.11-.41,1.95-1.51Z"/><path class="cls-11" d="M22.34,369.68c-2.21,0-4.28-.98-5.68-2.69-1.4-1.71-1.95-3.94-1.51-6.1L61.77,131.01c.67-3.29,3.47-5.7,6.83-5.87l106.33-5.32h.27c2.11,0,4.1,.88,5.49,2.43,1.39,1.55,2.06,3.63,1.83,5.7l-10.56,95.02c-.16,1.44-.75,2.79-1.66,3.88,.11,.72,.12,1.45,.02,2.18l-18.19,127.33c-.49,3.44-3.37,6.09-6.84,6.29l-122.61,7h-.31s-.03,0-.03,0Z"/><path class="cls-11" d="M22.34,366.72c-1.32,0-2.55-.59-3.39-1.61s-1.16-2.35-.9-3.64l46.62-229.87c.4-1.96,2.07-3.4,4.07-3.5l106.33-5.32h.15c1.24,0,2.43,.53,3.26,1.45,.83,.93,1.23,2.17,1.09,3.4l-10.56,95.02c-.15,1.36-.94,2.58-2.11,3.28,.43,.81,.62,1.75,.48,2.69l-18.19,127.33c-.29,2.05-2.01,3.63-4.08,3.75l-122.61,7h-.17Zm72.03-68.24l.36-2.57-.46,2.57h.09Z"/><path class="cls-11" d="M68.89,131.06l106.26-5.31c.87-.04,1.58,.7,1.48,1.57l-10.56,95.02c-.05,.46-.32,.87-.73,1.09l-1.59,.87c-.98,.53-.99,1.94,0,2.48h0c.51,.29,.8,.86,.71,1.44l-18.19,127.33c-.1,.67-.65,1.18-1.32,1.21l-122.52,7c-.93,.05-1.65-.79-1.47-1.7l46.62-229.87c.13-.63,.67-1.1,1.32-1.13Zm28.23,169.17l5.71-40.6c.08-.56-.18-1.11-.66-1.41l-1.63-1c-.85-.52-1.96-.02-2.13,.96l-7.36,41.6c-.15,.87,.51,1.66,1.4,1.66h3.28c.71,0,1.3-.52,1.4-1.22Zm15.75-99.79l2.93-19.91c.13-.89-.59-1.67-1.49-1.62l-1.27,.07c-.66,.04-1.21,.53-1.32,1.19l-3.06,19.13c-.1,.61,.21,1.21,.77,1.49l1.4,.7c.86,.43,1.89-.11,2.04-1.06Z"/><g><path class="cls-5" d="M182.31,136.79l-24.37,208.56c-.09,.77,.54,1.44,1.32,1.4l99.54-5.77c.64-.04,1.14-.54,1.18-1.18l11.7-207.71c.04-.74-.56-1.35-1.31-1.32l-31.55,1.37c-.64,.03-1.15,.53-1.2,1.17l-11.69,169.5c-.04,.63-.55,1.13-1.18,1.17l-24.09,1.34c-.76,.04-1.39-.6-1.32-1.36l15.18-168.27c.07-.75-.53-1.39-1.28-1.37l-30.31,.84-.54,1.32c-.04,.1-.07,.21-.08,.32Z"/><path class="cls-10" d="M288.49,130.37l-7.81,206.2c-.03,.74,.59,1.34,1.32,1.3l99.59-5.77c.66-.04,1.18-.59,1.18-1.25v-59.99c0-.5-.29-.94-.74-1.14l-34.5-15.36c-.83-.37-1.76,.24-1.76,1.14v39.82c0,.67-.52,1.21-1.18,1.25l-24.13,1.34c-.72,.04-1.33-.54-1.32-1.26l1.46-167.58c0-.72-.59-1.3-1.31-1.26l-29.59,1.37c-.65,.03-1.17,.55-1.19,1.2Z"/><path class="cls-7" d="M396.1,123.3l8.83,205.98c.03,.7,.63,1.24,1.32,1.2l101.06-5.77c.71-.04,1.24-.66,1.18-1.37l-5.73-60.15c-.04-.45-.33-.85-.74-1.03l-34.51-15.19c-.84-.37-1.79,.27-1.76,1.19l1.37,41.12c.02,.71-.54,1.3-1.25,1.3h-24.18c-.66,0-1.2-.51-1.25-1.17l-11.68-167.85c-.05-.68-.63-1.2-1.31-1.16l-31.35,1.42v1.48Z"/><path class="cls-9" d="M501.37,117.23l10.1,80.83c.06,.45,.35,.84,.78,1.01l77.77,26.37-10.12,2.96c-.77,0-1.36,.69-1.24,1.45l8.17,50.46c.12,.73-.42,1.41-1.17,1.45l-24.11,1.34c-.65,.04-1.22-.43-1.31-1.07l-7.08-49.55c-.09-.64-.65-1.1-1.29-1.07l-33.03,1.38c-.74,.03-1.29,.69-1.19,1.42l11.51,87.79c.09,.65,.66,1.13,1.32,1.09l99.56-5.77c.75-.04,1.3-.74,1.16-1.48l-20.33-107.48c-.08-.41-.36-.76-.74-.92l-65.35-27.59c-.4-.17-.69-.53-.75-.96l-5.59-36.35c-.12-.76,.47-1.44,1.24-1.44h22.62c.62,0,1.15,.46,1.24,1.08l4.13,28.89c.09,.64,.65,1.1,1.3,1.07l31.49-1.37c.76-.03,1.31-.72,1.18-1.47l-9.93-56.72c-.11-.62-.66-1.07-1.3-1.04l-87.85,4.32c-.73,.04-1.27,.68-1.18,1.41Z"/><path class="cls-2" d="M163.69,136.69l-86.38,4.32c-.57,.03-1.05,.44-1.17,1l-42.41,209.14c-.16,.81,.48,1.55,1.3,1.5l100.98-5.77c.6-.03,1.08-.48,1.17-1.07l16.02-112.12c.07-.51-.18-1.02-.63-1.27l-10.58-5.88c-.86-.48-.86-1.72,0-2.2l13.71-7.48c.36-.2,.6-.56,.65-.96l8.65-77.83c.09-.77-.54-1.43-1.31-1.39Zm-50.12,120.91l-7.48,53.12c-.09,.62-.62,1.08-1.24,1.08h-24.98c-.78,0-1.37-.7-1.23-1.47l12.4-70.09h1.22c.23,0,.46,.06,.65,.18l28.47,13.78c1.08,.66,.61,2.32-.65,2.32h-5.92c-.62,0-1.15,.46-1.24,1.08Zm5.63-40.34l-21.31-10.66c-.49-.24-.76-.78-.68-1.32l5.62-35.11c.09-.58,.58-1.02,1.16-1.05l22.62-1.33c.79-.05,1.43,.65,1.31,1.43l-6.93,47.1c-.12,.84-1.04,1.32-1.8,.94Z"/></g></g></g><g><path class="cls-11" d="M215.9,90.72l17.73,17.73c1.41,1.41,3.19,2.21,5.02,2.41,2.44,.27,4.98-.54,6.85-2.41l17.73-17.73c1.64-1.64,2.46-3.79,2.46-5.94,0-2.15-.82-4.29-2.46-5.93l-17.73-17.73c-1.46-1.46-3.32-2.27-5.22-2.43-2.38-.2-4.83,.61-6.65,2.43l-17.73,17.73c-1.64,1.64-2.46,3.79-2.46,5.94,0,2.15,.82,4.29,2.46,5.93Zm6.5-5.94c0-2.88,2.33-5.21,5.22-5.21s5.21,2.33,5.21,5.21-2.33,5.21-5.21,5.21-5.22-2.33-5.22-5.21Zm17.16-17.16c2.88,0,5.21,2.33,5.21,5.21s-2.33,5.21-5.21,5.21-5.21-2.33-5.21-5.21,2.33-5.21,5.21-5.21Zm17.16,17.16c0,2.88-2.33,5.21-5.21,5.21s-5.21-2.33-5.21-5.21,2.33-5.21,5.21-5.21,5.21,2.33,5.21,5.21Zm-22.38,11.95c0-2.88,2.33-5.21,5.21-5.21s5.21,2.33,5.21,5.21-2.33,5.21-5.21,5.21-5.21-2.33-5.21-5.21Z"/><path class="cls-11" d="M308.53,94.74c1.12,.39,2.26,.59,3.44,.59,1.28,0,2.49-.24,3.63-.7,1.12-.47,2.12-1.14,2.99-2.04,.84-.88,1.54-1.94,2.01-3.17,.5-1.23,.75-2.64,.75-4.2s-.25-2.92-.75-4.17c-.47-1.26-1.17-2.32-2.01-3.18-.86-.85-1.87-1.52-2.99-1.98-1.14-.47-2.35-.71-3.63-.71-1.17,0-2.32,.21-3.44,.6-1.12,.39-2.09,1.01-2.99,1.84-.89,.84-1.59,1.9-2.09,3.17-.53,1.28-.78,2.78-.78,4.51s.25,3.28,.81,4.54c.53,1.26,1.23,2.29,2.09,3.1,.87,.81,1.84,1.42,2.96,1.81Z"/><path class="cls-11" d="M374.5,95.1c1.51-1.33,2.26-3.07,2.26-5.24v-.45h-7.82c-3.41,0-5.11,1.23-5.11,3.69,0,1.28,.5,2.27,1.45,2.96,.95,.68,2.21,1.03,3.71,1.03,2.18,0,4.02-.67,5.5-2Z"/><path class="cls-11" d="M472.52,71.81c-1.47-3.76-3.62-7.07-6.37-9.85-2.69-2.74-5.95-4.94-9.66-6.5-3.79-1.57-7.85-2.36-12.12-2.36s-8.72,.84-12.67,2.51c-.86,.36-1.69,.77-2.51,1.2-2.27-1.79-5.13-2.88-8.24-2.88h-28.73c-2.79,0-5.39,.87-7.53,2.34-1.09-.55-2.22-1.05-3.4-1.46-3.26-1.14-6.83-1.72-10.63-1.72s-7.32,.56-10.66,1.65c-.93-6.44-6.47-11.42-13.17-11.42h-9.88c-6.67,0-12.2,4.94-13.16,11.35-2.51-.84-5.13-1.35-7.85-1.52-1.54-5.66-6.72-9.83-12.86-9.83h-9.88c-7.35,0-13.32,5.98-13.32,13.32v.67l-4.71-12.67c-1.73-4.66-5.87-7.95-10.8-8.58-.55-.07-1.12-.11-1.69-.11-1.02,0-2.03,.12-3,.34l-7.45-14.19c-2.17-4.13-6.41-6.86-11.07-7.11-.24-.01-.48-.02-.72-.02-4.44,0-8.58,2.2-11.06,5.89l-.1,.14c-4.2,6.25-25.45,37.86-31.23,46.51-.14,.21-.27,.42-.4,.63-7.77,12.24-5.99,28.52,4.28,38.79l16.42,16.42c3.35,3.35,7.33,5.8,11.67,7.34l1.63-2.63,29.8-3.75c.35-.32,.71-.62,1.05-.95l14.94-7.53c.41-.41,.79-.83,1.17-1.26,1.07,6.28,8.02,2.19,14.6,2.19h9.08c1,0,2-.11,2.97-.34,2.74,.81,5.63,1.21,8.65,1.21,4.38,0,8.56-.85,12.42-2.54,.83-.36,1.62-.77,2.4-1.2,2.27,1.79,5.12,2.86,8.23,2.86h9.88c2.48,0,4.8-.69,6.79-1.88,.84,.41,1.69,.79,2.59,1.11,3.07,1.1,6.35,1.64,9.83,1.64,2.98,0,5.83-.38,8.49-1.13,.86,.17,1.74,.26,2.63,.26h8.99c1,0,1.99-.13,2.96-.35,1.01,.24,2.05,.38,3.11,.38h28.7c3.16,0,6.07-1.11,8.36-2.96,.97,.5,1.97,.96,3,1.38,4.05,1.61,8.39,2.42,12.95,2.42s8.74-.8,12.69-2.36c3.68-1.46,7.15-3.53,10.28-6.15,4.21-3.52,5.75-9.1,4.19-14.13,.59-1.08,1.03-2.26,1.3-3.5,.2-.91,.42-2.02,.62-3.39,.24-1.65,.35-3.24,.35-4.86,0-3.97-.72-7.82-2.14-11.44Zm-151.65,31.15c-2.21,.96-4.58,1.44-7.15,1.44s-4.78-.45-6.79-1.35c-2.01-.92-3.66-2.24-4.94-3.95v4.43h-9.16V56.3h9.97v14.21c2.62-2.9,6.26-4.36,10.92-4.36,2.57,0,4.94,.49,7.09,1.44,2.18,.96,4.05,2.29,5.61,3.99,1.59,1.7,2.82,3.72,3.69,6.06,.89,2.33,1.34,4.87,1.34,7.64s-.45,5.31-1.34,7.64c-.87,2.35-2.1,4.36-3.63,6.06-1.56,1.69-3.44,3.03-5.61,3.98Zm16.11,.56V56.3h9.97v47.22h-9.97Zm117.13-.56c-2.43,.96-5.03,1.44-7.85,1.44s-5.58-.49-8.04-1.47c-2.46-.99-4.58-2.35-6.34-4.06-1.79-1.73-3.19-3.74-4.19-6.06-1.01-2.3-1.51-4.82-1.51-7.53s.5-5.22,1.48-7.54c.98-2.3,2.35-4.33,4.05-6.05,1.73-1.73,3.77-3.07,6.12-4.06,2.32-.98,4.86-1.48,7.57-1.48,2.54,0,4.89,.45,7.01,1.33,2.12,.89,3.91,2.09,5.42,3.63,1.51,1.52,2.65,3.32,3.46,5.39,.81,2.07,1.23,4.27,1.23,6.63,0,1.05-.08,2.05-.22,3.03-.14,.99-.31,1.8-.45,2.44h-25.69c.64,2.36,1.87,4.16,3.69,5.39,1.82,1.23,4.08,1.84,6.73,1.84,1.95,0,3.77-.34,5.42-.99,1.65-.67,3.24-1.56,4.77-2.69l4.05,6.79c-2.07,1.73-4.3,3.07-6.7,4.02Zm-76.54,.56v-3.55c-1.28,1.38-2.85,2.46-4.75,3.25-1.9,.78-4.05,1.17-6.48,1.17-1.95,0-3.74-.28-5.31-.84-1.56-.57-2.91-1.34-3.99-2.29-1.09-.96-1.9-2.11-2.46-3.44-.59-1.33-.87-2.78-.87-4.36,0-3.35,1.26-5.96,3.74-7.83,2.49-1.87,5.86-2.81,10.14-2.81h9.16v-1.62c0-2.02-.56-3.59-1.7-4.72-1.12-1.13-2.85-1.7-5.17-1.7-1.93,0-3.63,.45-5.14,1.33-1.48,.89-3.02,2.12-4.52,3.7l-5.11-6.13c4.13-5.03,9.44-7.54,15.89-7.54,2.32,0,4.44,.33,6.34,1,1.93,.66,3.57,1.65,4.94,2.95,1.4,1.31,2.46,2.93,3.21,4.87,.78,1.94,1.14,4.22,1.14,6.83v21.71h-9.08Zm44.16,.04h-28.97v-6.89l15.8-21.25h-15.8v-8.42h29v6.02l-16.91,22.12h16.88v8.42Zm-211.51-6c-6.2-6.2-6.94-15.78-2.24-22.8h-.01c6.39-9.56,31.6-47.06,31.6-47.06l15.99,30.44,6.47-9.27,10.75,28.95c.07,.17,.13,.34,.19,.51l.09,.24h-.02c2.34,6.41,.99,13.85-4.14,18.98l-16.57,16.57c-7.05,7.05-18.49,7.05-25.54,0l-16.57-16.57Z"/><path class="cls-11" d="M439.4,76.17c-1.56,1.3-2.65,3.11-3.24,5.42h16.76c-.08-2.36-.89-4.17-2.43-5.46-1.54-1.28-3.35-1.91-5.47-1.91s-4.02,.64-5.61,1.96Z"/><path class="cls-12" d="M252.33,114.13l16.57-16.57c5.13-5.14,6.48-12.58,4.14-18.98h.02s-.09-.24-.09-.24c-.07-.17-.12-.34-.19-.51l-10.75-28.95-6.47,9.27-15.99-30.44s-25.21,37.5-31.6,47.06h.01c-4.7,7.02-3.96,16.6,2.24,22.8l16.57,16.57c7.05,7.05,18.49,7.05,25.54,0Zm-18.71-53.01c1.82-1.82,4.27-2.63,6.65-2.43,1.91,.16,3.77,.97,5.22,2.43l17.73,17.73c1.64,1.64,2.46,3.78,2.46,5.93,0,2.15-.82,4.3-2.46,5.94l-17.73,17.73c-1.87,1.87-4.41,2.67-6.85,2.41-1.84-.2-3.62-1-5.02-2.41l-17.73-17.73c-1.64-1.64-2.46-3.79-2.46-5.93,0-2.15,.82-4.3,2.46-5.94l17.73-17.73Z"/><path class="cls-12" d="M234.35,72.84c0,2.88,2.33,5.21,5.21,5.21s5.21-2.33,5.21-5.21-2.33-5.21-5.21-5.21-5.21,2.33-5.21,5.21Z"/><circle class="cls-12" cx="239.56" cy="96.73" r="5.21"/><path class="cls-12" d="M251.51,79.57c-2.88,0-5.21,2.33-5.21,5.21s2.33,5.21,5.21,5.21,5.21-2.33,5.21-5.21-2.33-5.21-5.21-5.21Z"/><path class="cls-12" d="M227.62,90c2.88,0,5.21-2.33,5.21-5.21s-2.33-5.21-5.21-5.21-5.22,2.33-5.22,5.21,2.33,5.21,5.22,5.21Z"/><path class="cls-1" d="M326.48,98.99c1.53-1.7,2.76-3.71,3.63-6.06,.89-2.33,1.34-4.89,1.34-7.64s-.45-5.31-1.34-7.64c-.87-2.34-2.1-4.36-3.69-6.06-1.56-1.7-3.44-3.03-5.61-3.99-2.15-.95-4.52-1.44-7.09-1.44-4.66,0-8.29,1.45-10.92,4.36v-14.21h-9.97v47.22h9.16v-4.43c1.28,1.72,2.93,3.03,4.94,3.95,2.01,.91,4.3,1.35,6.79,1.35s4.94-.47,7.15-1.44c2.18-.95,4.05-2.29,5.61-3.98Zm-23.01-9.16c-.56-1.26-.81-2.76-.81-4.54s.25-3.23,.78-4.51c.5-1.27,1.2-2.33,2.09-3.17,.89-.84,1.87-1.45,2.99-1.84,1.12-.39,2.26-.6,3.44-.6,1.28,0,2.49,.24,3.63,.71,1.12,.46,2.12,1.13,2.99,1.98,.84,.87,1.54,1.93,2.01,3.18,.5,1.26,.75,2.64,.75,4.17s-.25,2.98-.75,4.2c-.47,1.23-1.17,2.29-2.01,3.17-.86,.89-1.87,1.56-2.99,2.04-1.14,.46-2.35,.7-3.63,.7-1.17,0-2.32-.2-3.44-.59-1.12-.39-2.09-1.01-2.96-1.81-.86-.81-1.56-1.84-2.09-3.1Z"/><rect class="cls-1" x="336.98" y="56.3" width="9.97" height="47.22"/><path class="cls-1" d="M386.65,103.52v-21.71c0-2.61-.36-4.89-1.14-6.83-.75-1.94-1.82-3.56-3.21-4.87-1.37-1.3-3.02-2.29-4.94-2.95-1.9-.67-4.02-1-6.34-1-6.45,0-11.76,2.51-15.89,7.54l5.11,6.13c1.51-1.58,3.04-2.81,4.52-3.7,1.51-.88,3.21-1.33,5.14-1.33,2.32,0,4.05,.57,5.17,1.7,1.14,1.13,1.7,2.69,1.7,4.72v1.62h-9.16c-4.27,0-7.65,.94-10.14,2.81-2.49,1.87-3.74,4.48-3.74,7.83,0,1.58,.28,3.03,.87,4.36,.56,1.33,1.37,2.47,2.46,3.44,1.09,.95,2.43,1.72,3.99,2.29,1.56,.56,3.35,.84,5.31,.84,2.43,0,4.58-.39,6.48-1.17,1.9-.8,3.46-1.87,4.75-3.25v3.55h9.08Zm-21.36-7.46c-.95-.68-1.45-1.68-1.45-2.96,0-2.46,1.7-3.69,5.11-3.69h7.82v.45c0,2.16-.75,3.91-2.26,5.24-1.48,1.33-3.32,2-5.5,2-1.51,0-2.76-.35-3.71-1.03Z"/><path class="cls-1" d="M456.77,92.16c-1.54,1.13-3.13,2.02-4.77,2.69-1.65,.66-3.46,.99-5.42,.99-2.65,0-4.91-.61-6.73-1.84-1.81-1.23-3.04-3.03-3.69-5.39h25.69c.14-.64,.31-1.45,.45-2.44,.14-.98,.22-1.98,.22-3.03,0-2.36-.42-4.57-1.23-6.63-.81-2.07-1.95-3.87-3.46-5.39-1.51-1.54-3.3-2.74-5.42-3.63-2.12-.88-4.47-1.33-7.01-1.33-2.71,0-5.25,.5-7.57,1.48-2.35,.99-4.38,2.33-6.12,4.06-1.7,1.72-3.07,3.74-4.05,6.05-.98,2.32-1.48,4.83-1.48,7.54s.5,5.22,1.51,7.53c1,2.32,2.4,4.33,4.19,6.06,1.76,1.72,3.88,3.07,6.34,4.06,2.46,.98,5.14,1.47,8.04,1.47s5.42-.47,7.85-1.44c2.4-.95,4.64-2.29,6.7-4.02l-4.05-6.79Zm-11.76-17.94c2.12,0,3.94,.63,5.47,1.91,1.54,1.29,2.34,3.1,2.43,5.46h-16.76c.59-2.3,1.68-4.12,3.24-5.42,1.59-1.31,3.46-1.96,5.61-1.96Z"/><g><path class="cls-1" d="M2.72,373.1l.33,.51c-1.22-2.08-2.08-4.33-2.57-6.67,.28,2.17,1.03,4.27,2.25,6.16Z"/><path class="cls-1" d="M490.02,85.12l61.09-3-61.04,2.51s-.15,0-.43,.02c0,.17,0,.33-.01,.5,.13,0,.27-.02,.4-.03Z"/><path class="cls-1" d="M640.62,197.24l-.3-1.63c-.46-2.51-1.55-4.82-3.11-6.74,1.65,2.47,2.82,5.27,3.39,8.29l.02,.08Z"/><path class="cls-1" d="M67.85,110.16l102.32-5.12c1.92-.6,3.95-.96,6.02-1.02,1.99-.06,3.9-.11,5.73-.16-.14-.31-.28-.61-.41-.92-20.83,1.37-36.69,2.42-36.69,2.42l-80.67,4.57c-5.68,.32-10.58,3.81-12.83,8.84,3.9-5.01,9.85-8.28,16.53-8.61Z"/><path class="cls-1" d="M659.77,339.3c-2.4,3.09-5.56,5.45-9.11,6.91l-25.36,32.03c-5.27,6.65-13.15,10.75-21.63,11.23L53.97,420.57c-.54,.03-1.07,.05-1.61,.05h0c-9.74,0-18.7-4.89-23.97-13.09l-16.29-25.34c-2.67-1.38-5.08-3.3-7.04-5.7-.36-.44-.7-.9-1.03-1.37l21.87,34.01c5.81,9.05,15.71,14.45,26.46,14.45,.59,0,1.18-.02,1.78-.05l549.71-31.1c9.32-.53,17.99-5.03,23.78-12.35l33.58-42.4c2.28-2.88,3.39-6.47,3.21-10.09-.39,4.22-1.97,8.3-4.63,11.71Z"/><path class="cls-1" d="M602.67,80.11c2.64,.44,5.12,1.34,7.37,2.62-2.14-1.48-4.66-2.42-7.37-2.62Z"/><path class="cls-1" d="M369.35,229.82l-4.17-97.2c-3.99-.07-7.86-.62-11.54-1.68-.59,.15-1.19,.27-1.79,.38l-.79,90.37,18.28,8.14Z"/><path class="cls-1" d="M485.33,220.63c.1-.61,.22-1.21,.37-1.81-2.41-3.1-4-6.84-4.51-10.86l-10.3-82.4c-2.39,1.42-4.88,2.65-7.45,3.67-.9,.36-1.81,.67-2.72,.97l5.71,82.11,18.9,8.32Z"/><path class="cls-1" d="M523.18,354.84c-1.15,.25-2.31,.42-3.49,.49l-122.07,6.98c-.17,0-.35,.02-.53,.02,0,0-.53,.01-.64,.01h-.03c-.07,0-.14,0-.21-.01-1.04,.21-2.09,.38-3.17,.44l-114.82,6.66c-2.6,1.27-5.47,2.07-8.52,2.25l-120.86,7c-.18,.01-.36,.02-.54,.02,0,0-.53,.01-.64,.01h-.03c-2.03,0-4.03-.28-5.96-.81l-118.15,6.75c-.17,0-.35,.02-.53,.02,0,0-.53,.01-.64,.01h-.03c-3.62,0-7.12-.87-10.24-2.49l16.29,25.34c5.27,8.2,14.23,13.09,23.97,13.09h0c.53,0,1.07-.01,1.61-.05l549.7-31.1c8.48-.48,16.36-4.57,21.63-11.23l25.36-32.03c-2.27,.93-4.7,1.5-7.2,1.65l-120.28,6.97Z"/><path class="cls-1" d="M181.93,103.87c-1.83,.05-3.74,.1-5.73,.16-2.08,.06-4.1,.42-6.02,1.02l4-.2c.14,0,.69-.02,.69-.02,.11,0,.22,0,.33,0,2.72,0,5.38,.5,7.87,1.43-.41-.78-.78-1.58-1.14-2.39Z"/><path class="cls-1" d="M147.66,378.71c.11,0,.64-.01,.64-.01,.18,0,.36-.01,.54-.02l120.86-7c3.05-.18,5.92-.98,8.52-2.25l-5.7,.33c-.18,.01-.36,.02-.54,.02,0,0-.53,.01-.64,.01h-.02c-2.03,0-4.03-.29-5.96-.82l-110.69,6.42c-2.61,1.28-5.48,2.09-8.51,2.27l-4.47,.26c1.92,.53,3.93,.81,5.96,.81h.03Z"/><path class="cls-1" d="M259.42,366.34l-99.88,5.79c-1.47,1.29-3.11,2.38-4.87,3.25l110.69-6.42c-2.09-.58-4.1-1.47-5.94-2.62Z"/><path class="cls-1" d="M255.22,362.93c-1.83-1.89-3.29-4.1-4.34-6.48l-84.54,4.9c-1.19,4.24-3.6,7.96-6.81,10.77l99.88-5.79c-1.52-.96-2.94-2.09-4.2-3.41Z"/><path class="cls-1" d="M369.49,233.13l-.14-3.3-18.28-8.14,.79-90.37c-.98,.18-1.97,.3-2.96,.37l-.8,91.91,21.4,9.53Z"/><path class="cls-1" d="M272.35,366.8c-.2,.01-.4,.02-.6,.02,0,0-.34,0-.43,0-5.24,0-10.33-2.17-13.96-5.94-1.32-1.37-2.42-2.94-3.28-4.62l-3.2,.19c1.05,2.38,2.51,4.59,4.34,6.48,1.26,1.31,2.67,2.45,4.2,3.41,1.84,1.16,3.85,2.04,5.94,2.62,1.93,.54,3.93,.82,5.96,.82h.02c.11,0,.64-.01,.64-.01,.18,0,.36-.01,.54-.02l5.7-.33,114.82-6.66c1.08-.06,2.14-.23,3.17-.44-3.36-.03-6.53-.81-9.38-2.16l-114.49,6.64Z"/><path class="cls-1" d="M369.64,236.43l-.14-3.3-21.4-9.53,.8-91.91c-.69,.05-1.38,.08-2.07,.08h-.9l-.82,93.74,24.52,10.92Z"/><path class="cls-1" d="M271.32,366.83c.09,0,.43,0,.43,0,.2,0,.4-.01,.6-.02l114.49-6.64c-1.56-.74-3.04-1.64-4.37-2.71l-110.2,6.39c-.29,.02-.66,.03-.95,.03-4.44,0-8.74-1.83-11.82-5.03-.81-.84-1.52-1.77-2.13-2.76l-3.29,.19c.86,1.68,1.95,3.24,3.28,4.62,3.63,3.78,8.72,5.94,13.96,5.94Z"/><path class="cls-1" d="M347.02,239.24c2.29,0,4.52,.47,6.61,1.41l16.5,7.34-.5-11.56-24.52-10.92,.82-93.74h-8.98c-.46,0-.92-.03-1.38-.05l-.99,113.33c2.98-3.55,7.45-5.8,12.44-5.8Z"/><path class="cls-1" d="M271.32,363.87c.29,0,.66-.01,.95-.03l110.2-6.39c-3.21-2.57-5.69-6-7.09-9.97l-92.5,5.36c-.29,.02-.65,.03-.94,.03-3.67,0-7.25-1.28-10.11-3.55-2.78,3.8-7.17,6.35-12.18,6.63l-2.27,.13c.61,.99,1.31,1.92,2.13,2.76,3.08,3.2,7.39,5.03,11.82,5.03Z"/><path class="cls-1" d="M464.06,214.51l20.98,9.23c.03-1.04,.12-2.08,.29-3.11l-18.9-8.32-5.71-82.11c-.96,.31-1.93,.6-2.91,.85l5.79,83.26c.16,.06,.31,.13,.47,.2Z"/><path class="cls-1" d="M369.49,233.13l.14,3.3,.5,11.56,3.02,1.34-5-116.74c-.7,.03-1.4,.05-2.11,.05-.29,0-.57-.02-.85-.03l4.17,97.2,.14,3.3Z"/><path class="cls-1" d="M397.45,359.34c-.2,.01-.39,.02-.59,.02,0,0-.34,0-.43,0-8.11,0-15.05-4.96-17.94-12.07l-3.12,.18c1.4,3.97,3.89,7.4,7.09,9.97,1.34,1.07,2.81,1.97,4.37,2.71,2.85,1.35,6.02,2.13,9.38,2.16,.07,0,.14,.01,.21,.01h.03c.11,0,.64-.01,.64-.01,.18,0,.35-.01,.53-.02l122.07-6.98c1.18-.07,2.35-.24,3.49-.49l-.43,.02c-.17,0-.33,.02-.5,.02,0,0-.56,.01-.69,.01h-.03c-3.34,0-6.52-.76-9.4-2.1l-114.69,6.55Z"/><path class="cls-1" d="M462.87,217.22l22.31,9.82c-.13-1.1-.17-2.2-.14-3.3l-20.98-9.23c-.15-.07-.31-.13-.47-.2l-5.79-83.26c-.97,.25-1.94,.48-2.92,.67l5.9,84.74c.71,.2,1.41,.46,2.09,.76Z"/><path class="cls-1" d="M373.15,249.34l3.02,1.35-5.07-118.31c-.98,.1-1.96,.18-2.95,.22l5,116.74Z"/><path class="cls-1" d="M397.37,356.38c-.29,.02-.65,.03-.94,.03-6.52,0-12.14-3.77-14.79-9.29l-3.14,.18c2.88,7.11,9.82,12.07,17.94,12.07,.09,0,.43,0,.43,0,.2,0,.39-.01,.59-.02l114.69-6.55c-1.57-.73-3.04-1.65-4.39-2.71l-110.38,6.31Z"/><path class="cls-1" d="M455.31,236.81c3.05-3.15,7.3-4.95,11.68-4.95,2.27,0,4.47,.46,6.55,1.38l13.21,5.81-1.55-11.83c0-.06,0-.12-.01-.18l-22.31-9.82c-.68-.3-1.38-.55-2.09-.76l-5.9-84.74c-3.14,.61-6.36,.92-9.65,.92-.22,0-.45,0-.67-.01l7.58,108.91c.77-1.74,1.84-3.35,3.18-4.73Z"/><path class="cls-1" d="M407.11,345.45c-.29,.02-.64,.03-.93,.03-4.57,0-8.69-1.88-11.64-4.92-2.78,3.72-7.11,6.23-12.08,6.51l-.81,.05c2.65,5.52,8.27,9.29,14.79,9.29,.29,0,.65,0,.94-.03l110.38-6.31c-3.24-2.56-5.77-5.99-7.21-9.97l-93.44,5.34Z"/><path class="cls-1" d="M376.17,250.68l10.57,4.71-5.3-123.61h-4.29c-.58,0-1.16-.02-1.74-.05-1.42,.29-2.86,.5-4.32,.66l5.07,118.31Z"/><path class="cls-1" d="M489.62,85.15c-.04,1-.11,2-.21,3,.25-.02,.5-.07,.76-.08l107.91-5.3c.21-.01,.42-.02,.63-.02,0,0,.21,0,.25,0,9.44,0,17.47,6.75,19.09,16.05l13.48,77.01c.61,3.45,.26,6.97-.96,10.19,3.68,2.86,6.24,6.99,7.13,11.69l23.51,124.26c1.03,5.48-.34,11.13-3.76,15.52-3.42,4.39-8.57,7.1-14.14,7.42l-120.72,7c-.2,.01-.41,.02-.61,.02,0,0-.34,0-.43,0-7.97,0-14.97-4.91-17.9-12l-3.09,.18c1.44,3.98,3.97,7.41,7.21,9.97,1.35,1.07,2.82,1.98,4.39,2.71,2.87,1.34,6.06,2.1,9.4,2.1h.03c.12,0,.69-.01,.69-.01,.17,0,.33-.01,.5-.02l.43-.02,120.28-6.97c2.5-.15,4.93-.71,7.2-1.65,3.55-1.46,6.71-3.82,9.11-6.91,2.66-3.41,4.24-7.49,4.63-11.71,.19-2.05,.1-4.13-.29-6.18l-23.49-124.17-.02-.08c-.57-3.01-1.74-5.82-3.39-8.29-.93-1.39-2.01-2.67-3.22-3.82,.86-3.14,1.03-6.47,.45-9.74l-13.48-77.02c-1.18-6.76-5.31-12.34-10.92-15.55-2.25-1.28-4.74-2.18-7.37-2.62-1.22-.2-2.46-.32-3.74-.32-.07,0-.42,0-.42,0-.17,0-.35,0-.52,.02l-46.89,2.3-61.09,3c-.13,0-.27,.02-.4,.03Z"/><path class="cls-1" d="M485.7,218.83c-.15,.6-.27,1.2-.37,1.81-.17,1.03-.26,2.06-.29,3.11-.03,1.1,0,2.2,.14,3.3,0,.06,0,.12,.01,.18l1.55,11.83,3.17,1.39-1.79-13.61c-.39-2.95-.08-5.92,.85-8.69-2.62-2.89-4.35-6.56-4.86-10.55l-10.47-83.8c-.91,.62-1.82,1.22-2.76,1.78l10.3,82.4c.51,4.03,2.1,7.76,4.51,10.86Z"/><path class="cls-1" d="M488.98,218.14c-.93,2.77-1.24,5.74-.85,8.69l1.79,13.61,3.17,1.39-2.02-15.39c-.41-3.1,.09-6.23,1.38-9.02-2.94-2.61-4.9-6.23-5.4-10.26l-10.67-85.37c-.89,.7-1.81,1.36-2.73,1.99l10.47,83.8c.51,4,2.24,7.66,4.86,10.55Z"/><path class="cls-1" d="M598.15,85.73c.25-.01,.56-.02,.81-.02,7.98,0,14.78,5.71,16.17,13.57l13.48,77.05c.65,3.7,0,7.49-1.78,10.73,4.14,2.37,7.06,6.43,7.95,11.19l23.51,124.26c.88,4.65-.29,9.45-3.2,13.17-2.91,3.72-7.28,6.01-11.99,6.28l-120.6,6.99c-.29,.02-.66,.03-.95,.03-6.39,0-12.04-3.73-14.73-9.22l-3.17,.18c2.94,7.09,9.93,12,17.9,12,.09,0,.43,0,.43,0,.2,0,.41-.01,.61-.02l120.72-7c5.57-.33,10.72-3.04,14.14-7.42,3.42-4.39,4.8-10.04,3.76-15.52l-23.51-124.26c-.89-4.7-3.45-8.83-7.13-11.69,1.22-3.22,1.57-6.74,.96-10.19l-13.48-77.01c-1.62-9.3-9.64-16.05-19.09-16.05-.03,0-.25,0-.25,0-.21,0-.42,0-.63,.02l-107.91,5.3c-.26,.01-.51,.06-.76,.08-.07,.69-.15,1.38-.25,2.07-.05,.33-.1,.63-.14,.94,.44-.06,.88-.11,1.32-.13l107.82-5.3Z"/><path class="cls-1" d="M492.45,217.42c-1.29,2.79-1.79,5.93-1.38,9.02l2.02,15.39,11.09,4.88-1.39-10.57c-.59-4.51,.75-9.1,3.68-12.58,2.93-3.48,7.22-5.58,11.76-5.77l2.26-.09-13.06-4.43c-.26-.09-.52-.18-.77-.29-5.49-2.21-9.35-7.23-10.07-13.1l-10.1-80.79c-.56-4.46,.78-9.01,3.68-12.46,2.9-3.45,7.14-5.56,11.65-5.79l87.85-4.32c.25-.01,.55-.02,.8-.02,7.92,0,14.66,5.66,16.01,13.47l9.92,56.7c.81,4.6-.41,9.34-3.34,12.99s-7.3,5.85-11.97,6.05l-3.43,.15,18.31,7.73c5.02,2.12,8.63,6.58,9.65,11.95l20.34,107.49c.87,4.59-.28,9.34-3.16,13.02-2.88,3.68-7.2,5.95-11.87,6.22l-99.56,5.77c-.29,.02-.65,.03-.94,.03-4.11,0-7.9-1.55-10.79-4.12-.02,.02-.04,.05-.06,.08-2.86,3.33-7.01,5.39-11.4,5.64l-1.36,.08c2.7,5.49,8.34,9.22,14.73,9.22,.29,0,.66-.01,.95-.03l120.6-6.99c4.71-.27,9.08-2.56,11.99-6.28,2.91-3.72,4.08-8.51,3.2-13.17l-23.51-124.26c-.9-4.76-3.82-8.82-7.95-11.19,1.78-3.25,2.43-7.03,1.78-10.73l-13.48-77.05c-1.39-7.86-8.19-13.57-16.17-13.57-.25,0-.56,0-.81,.02l-107.82,5.3c-.44,.02-.88,.08-1.32,.13-.22,1.41-.47,2.6-.66,3.51-.13,.62-.29,1.23-.46,1.83,.79,9.07-2.85,18.08-10.05,24.12-.48,.4-.96,.79-1.45,1.17l10.67,85.37c.5,4.03,2.46,7.65,5.4,10.26Z"/><path class="cls-1" d="M12.09,382.19c3.12,1.61,6.62,2.49,10.24,2.49h.03c.11,0,.64-.01,.64-.01,.18,0,.35-.01,.53-.02l118.15-6.75,4.47-.26c3.03-.18,5.91-.98,8.51-2.27,1.77-.87,3.4-1.96,4.87-3.25,3.21-2.81,5.62-6.53,6.81-10.77l-3.14,.18c-2.49,7.36-9.27,12.69-17.23,13.15l-122.62,7c-.2,.01-.4,.02-.59,.02,0,0-.34,0-.43,0-5.83,0-11.3-2.59-15-7.11-3.7-4.53-5.15-10.4-3.99-16.12L49.97,128.62c1.76-8.69,9.17-15.06,18.03-15.5l106.33-5.32c.18,0,.7-.02,.7-.02,.07,0,.13,0,.2,0,3.84,0,7.55,1.17,10.7,3.26-1.05-1.54-2.01-3.14-2.85-4.78-2.49-.94-5.16-1.43-7.87-1.43-.11,0-.22,0-.33,0,0,0-.55,.01-.69,.02l-4,.2-102.32,5.12c-6.68,.33-12.63,3.6-16.53,8.61-2.06,2.66-3.56,5.79-4.26,9.26L.44,357.91c-.61,3.03-.58,6.09,.03,9.03,.49,2.33,1.35,4.58,2.57,6.67,.3,.52,.63,1.02,.97,1.51,.33,.47,.66,.93,1.03,1.37,1.96,2.4,4.37,4.32,7.04,5.7Z"/><path class="cls-1" d="M193.59,119.84l-.8-.8c.12,.27,.24,.54,.35,.81h.45Z"/><path class="cls-1" d="M159.98,361.72c-2.4,5.65-7.85,9.65-14.19,10.01l-122.51,7c-.28,.02-.65,.03-.94,.03-4.94,0-9.58-2.2-12.71-6.03-3.13-3.83-4.36-8.8-3.38-13.65L52.87,129.21c1.5-7.36,7.78-12.76,15.27-13.13l106.26-5.31c.25-.01,.57-.02,.82-.02,4.66,0,9.12,1.99,12.23,5.46,1.01,1.13,1.83,2.39,2.49,3.73l3.2-.09c-.11-.27-.22-.54-.35-.81l-1.47-1.47c-2.03-2.03-3.82-4.22-5.4-6.53-3.15-2.09-6.86-3.26-10.7-3.26-.07,0-.13,0-.2,0,0,0-.52,.01-.7,.02l-106.33,5.32c-8.86,.44-16.27,6.82-18.03,15.5L3.35,358.5c-1.16,5.72,.3,11.59,3.99,16.12,3.7,4.52,9.16,7.11,15,7.11,.09,0,.43,0,.43,0,.2,0,.4-.01,.59-.02l122.62-7c7.96-.46,14.74-5.8,17.23-13.15l-3.09,.18s-.1,0-.14,0Z"/><path class="cls-1" d="M175.22,110.74c-.25,0-.57,0-.82,.02l-106.26,5.31c-7.49,.37-13.77,5.77-15.27,13.13L6.25,359.08c-.98,4.85,.25,9.82,3.38,13.65,3.13,3.83,7.76,6.03,12.71,6.03,.29,0,.66-.01,.94-.03l122.51-7c6.34-.36,11.79-4.36,14.19-10.01-.26,.01-.55,.02-.8,.02-4.35,0-8.5-1.77-11.55-4.85-2.77,2.87-6.56,4.73-10.76,4.97l-100.98,5.77c-.29,.02-.64,.03-.93,.03-4.89,0-9.48-2.17-12.58-5.96s-4.32-8.71-3.35-13.51L61.45,139.03c1.49-7.29,7.7-12.63,15.13-13l86.37-4.32c.25-.01,.56-.02,.81-.02,3.15,0,6.2,.94,8.8,2.62,2.64-2.52,6.16-4.06,9.95-4.16l7.42-.21c-.66-1.34-1.48-2.6-2.49-3.73-3.11-3.47-7.57-5.46-12.23-5.46Z"/><path class="cls-1" d="M254.08,356.27l3.29-.19,2.27-.13c5.01-.29,9.4-2.83,12.18-6.63-.56-.44-1.1-.91-1.59-1.42-3.05-3.16-4.7-7.49-4.54-11.88l7.62-201.3-2.3,1.16c-2.19,1.82-4.86,2.98-7.71,3.34l-23.64,2.97c-2.7,2.28-6.14,3.53-9.67,3.53-1.67,0-3.35-.28-4.99-.86-6.57-2.32-12.38-5.98-17.28-10.87l-14.15-14.15h-.45s-3.2,.1-3.2,.1l-7.42,.21c-3.79,.11-7.32,1.64-9.95,4.16,1.21,.78,2.33,1.7,3.31,2.79,3.08,3.44,4.55,8.04,4.05,12.63l-8.65,77.83c-.4,3.59-1.98,6.91-4.42,9.46,1.19,2.72,1.65,5.77,1.21,8.82l-16.01,112.09c-.49,3.47-2.09,6.56-4.4,8.96,3.04,3.08,7.2,4.85,11.55,4.85,.25,0,.54,0,.8-.02,.05,0,.1,0,.14,0l3.09-.18,3.14-.18,84.54-4.9,3.2-.19Z"/><path class="cls-1" d="M254.08,356.27l3.29-.19,2.27-.13c5.01-.29,9.4-2.83,12.18-6.63-.56-.44-1.1-.91-1.59-1.42-3.05-3.16-4.7-7.49-4.54-11.88l7.62-201.3-2.3,1.16c-2.19,1.82-4.86,2.98-7.71,3.34l-23.64,2.97c-2.7,2.28-6.14,3.53-9.67,3.53-1.67,0-3.35-.28-4.99-.86-6.57-2.32-12.38-5.98-17.28-10.87l-14.15-14.15h-.45s-3.2,.1-3.2,.1l-7.42,.21c-3.79,.11-7.32,1.64-9.95,4.16,1.21,.78,2.33,1.7,3.31,2.79,3.08,3.44,4.55,8.04,4.05,12.63l-8.65,77.83c-.4,3.59-1.98,6.91-4.42,9.46,1.19,2.72,1.65,5.77,1.21,8.82l-16.01,112.09c-.49,3.47-2.09,6.56-4.4,8.96,3.04,3.08,7.2,4.85,11.55,4.85,.25,0,.54,0,.8-.02,.05,0,.1,0,.14,0l3.09-.18,3.14-.18,84.54-4.9,3.2-.19Z"/><path class="cls-1" d="M274.95,340.63c-.18,3.25-1.32,6.22-3.12,8.68,2.86,2.27,6.43,3.55,10.11,3.55,.29,0,.65-.01,.94-.03l92.5-5.36,3.12-.18,3.14-.18,.81-.05c4.96-.28,9.3-2.79,12.08-6.51-2.69-2.76-4.41-6.48-4.59-10.63l-3.19-74.54-10.57-4.71-3.02-1.35-3.02-1.34-16.5-7.34c-2.1-.93-4.32-1.41-6.61-1.41-4.99,0-9.45,2.26-12.44,5.8l.99-113.33c-2.49-.12-4.94-.56-7.3-1.32-4.58,1.49-9.39,2.25-14.36,2.25-3.22,0-6.38-.32-9.44-.96-.73,.06-1.46,.08-2.18,.08h-9.08c-.62,0-2.09,.27-3.17,.47-1.06,.2-2.19,.4-3.38,.56,0,.04,0,.08,0,.12l-11.7,207.71Z"/><path class="cls-1" d="M274.95,340.63c-.18,3.25-1.32,6.22-3.12,8.68,2.86,2.27,6.43,3.55,10.11,3.55,.29,0,.65-.01,.94-.03l92.5-5.36,3.12-.18,3.14-.18,.81-.05c4.96-.28,9.3-2.79,12.08-6.51-2.69-2.76-4.41-6.48-4.59-10.63l-3.19-74.54-10.57-4.71-3.02-1.35-3.02-1.34-16.5-7.34c-2.1-.93-4.32-1.41-6.61-1.41-4.99,0-9.45,2.26-12.44,5.8l.99-113.33c-2.49-.12-4.94-.56-7.3-1.32-4.58,1.49-9.39,2.25-14.36,2.25-3.22,0-6.38-.32-9.44-.96-.73,.06-1.46,.08-2.18,.08h-9.08c-.62,0-2.09,.27-3.17,.47-1.06,.2-2.19,.4-3.38,.56,0,.04,0,.08,0,.12l-11.7,207.71Z"/><path class="cls-1" d="M270.23,347.89c.5,.52,1.04,.98,1.59,1.42,1.8-2.46,2.94-5.44,3.12-8.68l11.7-207.71s0-.08,0-.12c-1.21,.16-2.48,.27-3.83,.27-1.78,0-3.48-.2-5.08-.59l-4.42,2.23-7.62,201.3c-.16,4.39,1.49,8.72,4.54,11.88Z"/><path class="cls-1" d="M270.23,347.89c.5,.52,1.04,.98,1.59,1.42,1.8-2.46,2.94-5.44,3.12-8.68l11.7-207.71s0-.08,0-.12c-1.21,.16-2.48,.27-3.83,.27-1.78,0-3.48-.2-5.08-.59l-4.42,2.23-7.62,201.3c-.16,4.39,1.49,8.72,4.54,11.88Z"/><path class="cls-1" d="M270.23,347.89c.5,.52,1.04,.98,1.59,1.42,1.8-2.46,2.94-5.44,3.12-8.68l11.7-207.71s0-.08,0-.12c-1.21,.16-2.48,.27-3.83,.27-1.78,0-3.48-.2-5.08-.59l-4.42,2.23-7.62,201.3c-.16,4.39,1.49,8.72,4.54,11.88Z"/><path class="cls-1" d="M386.75,255.39l1.39,.62c5.86,2.61,9.64,8.44,9.64,14.85v59.99c0,3.63-1.21,6.99-3.24,9.71,2.95,3.04,7.07,4.92,11.64,4.92,.29,0,.64,0,.93-.03l93.44-5.34,3.09-.18,3.17-.18,1.36-.08c4.38-.25,8.54-2.31,11.4-5.64,.02-.02,.04-.05,.06-.08-2.84-2.52-4.8-6.03-5.32-10.03l-10.13-77.21-11.09-4.88-3.17-1.39-3.17-1.39-13.21-5.81c-2.08-.91-4.28-1.38-6.55-1.38-4.38,0-8.64,1.81-11.68,4.95-1.34,1.38-2.41,2.99-3.18,4.73l-7.58-108.91c-5.04-.06-9.94-.84-14.6-2.32-2.9,.98-5.96,1.49-9.04,1.49h-28.7c-1.06,0-2.12-.06-3.19-.19-.96,.1-1.92,.15-2.87,.15h-4.71l5.3,123.61Z"/><path class="cls-1" d="M386.75,255.39l1.39,.62c5.86,2.61,9.64,8.44,9.64,14.85v59.99c0,3.63-1.21,6.99-3.24,9.71,2.95,3.04,7.07,4.92,11.64,4.92,.29,0,.64,0,.93-.03l93.44-5.34,3.09-.18,3.17-.18,1.36-.08c4.38-.25,8.54-2.31,11.4-5.64,.02-.02,.04-.05,.06-.08-2.84-2.52-4.8-6.03-5.32-10.03l-10.13-77.21-11.09-4.88-3.17-1.39-3.17-1.39-13.21-5.81c-2.08-.91-4.28-1.38-6.55-1.38-4.38,0-8.64,1.81-11.68,4.95-1.34,1.38-2.41,2.99-3.18,4.73l-7.58-108.91c-5.04-.06-9.94-.84-14.6-2.32-2.9,.98-5.96,1.49-9.04,1.49h-28.7c-1.06,0-2.12-.06-3.19-.19-.96,.1-1.92,.15-2.87,.15h-4.71l5.3,123.61Z"/><path class="cls-1" d="M397.78,270.85c0-6.41-3.79-12.24-9.64-14.85l-1.39-.62,3.19,74.54c.18,4.15,1.91,7.87,4.59,10.63,2.03-2.72,3.24-6.08,3.24-9.71v-59.99Z"/><path class="cls-1" d="M397.78,270.85c0-6.41-3.79-12.24-9.64-14.85l-1.39-.62,3.19,74.54c.18,4.15,1.91,7.87,4.59,10.63,2.03-2.72,3.24-6.08,3.24-9.71v-59.99Z"/><path class="cls-1" d="M397.78,270.85c0-6.41-3.79-12.24-9.64-14.85l-1.39-.62,3.19,74.54c.18,4.15,1.91,7.87,4.59,10.63,2.03-2.72,3.24-6.08,3.24-9.71v-59.99Z"/><path class="cls-1" d="M531.36,338.05l99.56-5.77c4.67-.27,8.99-2.54,11.87-6.22,2.88-3.68,4.03-8.43,3.16-13.02l-20.34-107.49c-1.02-5.36-4.62-9.83-9.65-11.95l-18.31-7.73,3.43-.15c4.68-.2,9.04-2.41,11.97-6.05s4.15-8.38,3.34-12.99l-9.92-56.7c-1.36-7.8-8.09-13.47-16.01-13.47-.25,0-.55,0-.8,.02l-87.85,4.32c-4.5,.22-8.75,2.33-11.65,5.79-2.9,3.45-4.24,8-3.68,12.46l10.1,80.79c.72,5.87,4.58,10.89,10.07,13.1,.25,.1,.51,.2,.77,.29l13.06,4.43-2.26,.09c-4.55,.19-8.83,2.29-11.76,5.77-2.93,3.48-4.27,8.07-3.68,12.58l1.39,10.57,3.87,1.7c5.38,2.38,9.07,7.48,9.63,13.31l5.73,60.18c.41,4.34-.97,8.72-3.79,12.05,2.89,2.57,6.69,4.12,10.79,4.12,.29,0,.65-.01,.94-.03Z"/><path class="cls-1" d="M531.36,338.05l99.56-5.77c4.67-.27,8.99-2.54,11.87-6.22,2.88-3.68,4.03-8.43,3.16-13.02l-20.34-107.49c-1.02-5.36-4.62-9.83-9.65-11.95l-18.31-7.73,3.43-.15c4.68-.2,9.04-2.41,11.97-6.05s4.15-8.38,3.34-12.99l-9.92-56.7c-1.36-7.8-8.09-13.47-16.01-13.47-.25,0-.55,0-.8,.02l-87.85,4.32c-4.5,.22-8.75,2.33-11.65,5.79-2.9,3.45-4.24,8-3.68,12.46l10.1,80.79c.72,5.87,4.58,10.89,10.07,13.1,.25,.1,.51,.2,.77,.29l13.06,4.43-2.26,.09c-4.55,.19-8.83,2.29-11.76,5.77-2.93,3.48-4.27,8.07-3.68,12.58l1.39,10.57,3.87,1.7c5.38,2.38,9.07,7.48,9.63,13.31l5.73,60.18c.41,4.34-.97,8.72-3.79,12.05,2.89,2.57,6.69,4.12,10.79,4.12,.29,0,.65-.01,.94-.03Z"/><path class="cls-1" d="M523.42,321.91l-5.73-60.18c-.57-5.83-4.25-10.92-9.63-13.31l-3.87-1.7,10.13,77.21c.52,4,2.49,7.5,5.32,10.03,2.82-3.32,4.2-7.71,3.79-12.05Z"/><path class="cls-1" d="M523.42,321.91l-5.73-60.18c-.57-5.83-4.25-10.92-9.63-13.31l-3.87-1.7,10.13,77.21c.52,4,2.49,7.5,5.32,10.03,2.82-3.32,4.2-7.71,3.79-12.05Z"/><path class="cls-1" d="M523.42,321.91l-5.73-60.18c-.57-5.83-4.25-10.92-9.63-13.31l-3.87-1.7,10.13,77.21c.52,4,2.49,7.5,5.32,10.03,2.82-3.32,4.2-7.71,3.79-12.05Z"/><path class="cls-1" d="M162.94,121.71l-86.37,4.32c-7.42,.37-13.64,5.71-15.13,13L19.03,348.18c-.97,4.8,.25,9.72,3.35,13.51s7.68,5.96,12.58,5.96c.29,0,.65,0,.93-.03l100.98-5.77c4.2-.24,7.99-2.1,10.76-4.97-.2-.2-.4-.39-.59-.59-3.08-3.46-4.54-8.08-4.01-12.68l24.38-208.57c.16-1.4,.52-2.82,1.06-4.18l.55-1.35c.81-2.01,2.03-3.77,3.53-5.21-2.6-1.68-5.65-2.62-8.8-2.62-.25,0-.56,0-.81,.02Z"/><path class="cls-1" d="M162.94,121.71l-86.37,4.32c-7.42,.37-13.64,5.71-15.13,13L19.03,348.18c-.97,4.8,.25,9.72,3.35,13.51s7.68,5.96,12.58,5.96c.29,0,.65,0,.93-.03l100.98-5.77c4.2-.24,7.99-2.1,10.76-4.97-.2-.2-.4-.39-.59-.59-3.08-3.46-4.54-8.08-4.01-12.68l24.38-208.57c.16-1.4,.52-2.82,1.06-4.18l.55-1.35c.81-2.01,2.03-3.77,3.53-5.21-2.6-1.68-5.65-2.62-8.8-2.62-.25,0-.56,0-.81,.02Z"/><path class="cls-1" d="M168.48,130.87c-.54,1.35-.9,2.77-1.06,4.18l-24.38,208.57c-.54,4.6,.93,9.23,4.01,12.68,.19,.21,.39,.4,.59,.59,2.31-2.39,3.91-5.49,4.4-8.96l16.01-112.09c.44-3.05-.02-6.1-1.21-8.82,2.45-2.55,4.03-5.86,4.42-9.46l8.65-77.83c.51-4.59-.97-9.19-4.05-12.63-.98-1.09-2.1-2.02-3.31-2.79-1.5,1.44-2.72,3.2-3.53,5.21l-.55,1.35Z"/><path class="cls-1" d="M168.48,130.87c-.54,1.35-.9,2.77-1.06,4.18l-24.38,208.57c-.54,4.6,.93,9.23,4.01,12.68,.19,.21,.39,.4,.59,.59,2.31-2.39,3.91-5.49,4.4-8.96l16.01-112.09c.44-3.05-.02-6.1-1.21-8.82,2.45-2.55,4.03-5.86,4.42-9.46l8.65-77.83c.51-4.59-.97-9.19-4.05-12.63-.98-1.09-2.1-2.02-3.31-2.79-1.5,1.44-2.72,3.2-3.53,5.21l-.55,1.35Z"/><path class="cls-1" d="M168.48,130.87c-.54,1.35-.9,2.77-1.06,4.18l-24.38,208.57c-.54,4.6,.93,9.23,4.01,12.68,.19,.21,.39,.4,.59,.59,2.31-2.39,3.91-5.49,4.4-8.96l16.01-112.09c.44-3.05-.02-6.1-1.21-8.82,2.45-2.55,4.03-5.86,4.42-9.46l8.65-77.83c.51-4.59-.97-9.19-4.05-12.63-.98-1.09-2.1-2.02-3.31-2.79-1.5,1.44-2.72,3.2-3.53,5.21l-.55,1.35Z"/><path class="cls-1" d="M183.07,106.26c.85,1.64,1.8,3.24,2.85,4.78,1.58,2.31,3.37,4.5,5.4,6.53l1.47,1.47,.8,.8,14.15,14.15c4.89,4.89,10.71,8.55,17.28,10.87,1.64,.58,3.33,.86,4.99,.86,3.53,0,6.96-1.25,9.67-3.53l23.64-2.97c2.84-.36,5.51-1.51,7.71-3.34l2.3-1.16,4.42-2.23c1.6,.39,3.3,.59,5.08,.59,1.35,0,2.63-.11,3.83-.27,1.2-.16,2.33-.37,3.38-.56,1.08-.2,2.55-.47,3.17-.47h9.08c.73,0,1.46-.03,2.18-.08,3.06,.63,6.22,.96,9.44,.96,4.97,0,9.79-.75,14.36-2.25,2.36,.76,4.82,1.2,7.3,1.32,.46,.02,.92,.05,1.38,.05h9.88c.69,0,1.38-.03,2.07-.08,1-.07,1.98-.19,2.96-.37,.6-.11,1.2-.24,1.79-.38,3.68,1.06,7.55,1.61,11.54,1.68,.29,0,.57,.03,.85,.03,.71,0,1.41-.02,2.11-.05,.99-.04,1.98-.12,2.95-.22,1.46-.15,2.9-.37,4.32-.66,.58,.04,1.16,.05,1.74,.05h8.99c.95,0,1.91-.05,2.87-.15,1.07,.12,2.13,.19,3.19,.19h28.7c3.09,0,6.14-.51,9.04-1.49,4.66,1.48,9.55,2.25,14.6,2.32,.22,0,.45,.01,.67,.01,3.29,0,6.52-.31,9.65-.92,.98-.19,1.96-.42,2.92-.67,.98-.25,1.95-.54,2.91-.85,.92-.3,1.83-.62,2.72-.97,2.57-1.02,5.06-2.24,7.45-3.67,.94-.56,1.86-1.16,2.76-1.78,.93-.63,1.84-1.3,2.73-1.99,.49-.38,.97-.77,1.45-1.17,7.2-6.03,10.84-15.05,10.05-24.12,.17-.61,.33-1.22,.46-1.83,.2-.91,.44-2.1,.66-3.51,.05-.31,.1-.61,.14-.94,.1-.7,.18-1.39,.25-2.07,.1-1.01,.17-2,.21-3,0-.17,0-.33,.01-.5,.01-.47,.02-.93,.02-1.4,0-5.86-1.07-11.55-3.17-16.91-2.22-5.67-5.48-10.69-9.63-14.88-4.1-4.18-8.99-7.48-14.62-9.85-5.6-2.32-11.61-3.5-17.86-3.5-5.05,0-9.95,.76-14.62,2.25-2.83-.93-5.81-1.42-8.8-1.42h-28.73c-2.69,0-5.33,.38-7.87,1.11-4.31-1.29-8.91-1.95-13.69-1.95-.82,0-1.64,.02-2.46,.06-5.24-6.04-12.96-9.82-21.38-9.82h-9.88c-6.26,0-12.13,2.1-16.89,5.67-4.78-3.58-10.69-5.67-16.97-5.67h-9.88c-3.41,0-6.69,.61-9.72,1.72-3.84-4.16-8.89-7.11-14.55-8.39l-3.42-6.52C260.89,6.37,251.87,.58,241.98,.04c-.53-.03-1.04-.04-1.56-.04-9.45,0-18.23,4.68-23.53,12.55l-.61,.91c-5.22,7.77-25.15,37.41-30.71,45.73-.25,.37-.49,.75-.72,1.13-8.15,12.98-9.06,29.02-3.34,42.63,.13,.31,.27,.62,.41,.92,.36,.8,.74,1.6,1.14,2.39Zm12-39.15c.14-.23,.28-.46,.43-.69,6.33-9.46,31.37-46.71,31.62-47.08,2.8-4.16,7.47-6.63,12.45-6.63,.27,0,.54,0,.81,.02,5.28,.29,10.01,3.33,12.47,8l6.99,13.31c.72-.11,1.45-.16,2.19-.16,.63,0,1.26,.04,1.9,.12,5.54,.71,10.22,4.43,12.16,9.66l2.73,7.34c2.15-5.66,7.6-9.69,14.01-9.69h9.97c6.53,0,12.09,4.17,14.15,10,1.91,.18,3.77,.54,5.58,1.03,1.74-6.36,7.54-11.04,14.45-11.04h9.97c6.93,0,12.75,4.71,14.47,11.1,3.04-.82,6.24-1.24,9.58-1.24,3.99,0,7.78,.62,11.25,1.83,.97,.33,1.92,.72,2.84,1.14,2.25-1.34,4.86-2.13,7.67-2.13h29c3.14,0,6.06,.97,8.47,2.63,.58-.28,1.17-.55,1.77-.81,4.19-1.77,8.7-2.66,13.4-2.66s8.8,.83,12.76,2.47c4.01,1.69,7.48,4.03,10.37,6.97,2.88,2.91,5.16,6.43,6.73,10.43,1.5,3.83,2.26,7.9,2.26,12.11,0,1.7-.12,3.39-.37,5.15-.2,1.41-.44,2.57-.64,3.51-.26,1.19-.65,2.32-1.17,3.38,1.42,5.49-.36,11.47-4.89,15.27-3.29,2.76-6.94,4.94-10.82,6.47-4.15,1.65-8.65,2.49-13.36,2.49s-9.37-.85-13.59-2.53c-.8-.32-1.57-.68-2.33-1.05-2.44,1.71-5.4,2.73-8.61,2.73h-28.97c-1.08,0-2.12-.12-3.14-.33-.96,.19-1.96,.3-2.98,.3h-9.08c-.89,0-1.75-.08-2.6-.22-2.74,.74-5.62,1.1-8.63,1.1-3.69,0-7.17-.58-10.35-1.71l-.11-.04c-.69-.25-1.35-.54-2-.83-2.07,1.08-4.43,1.7-6.93,1.7h-9.97c-3.13,0-6.03-.96-8.44-2.6-.55,.28-1.1,.54-1.67,.79-4.09,1.78-8.51,2.69-13.15,2.69-3.07,0-6.01-.39-8.78-1.17-.95,.19-1.94,.29-2.95,.29h-9.16c-6.41,0-11.86-4.02-14.01-9.67l-15.88,15.88c-6.24,6.24-14.54,9.68-23.38,9.68s-17.13-3.44-23.38-9.68l-16.57-16.57c-10.93-10.93-12.78-28.07-4.55-41.06Z"/><path class="cls-1" d="M199.61,108.16l16.57,16.57c6.24,6.24,14.55,9.68,23.38,9.68s17.13-3.44,23.38-9.68l15.88-15.88c-.63-1.66-.99-3.45-.99-5.33V56.3c0-1.87,.36-3.66,.99-5.31l-2.73-7.34c-1.94-5.23-6.63-8.95-12.16-9.66-.64-.08-1.27-.12-1.9-.12-.74,0-1.47,.05-2.19,.16l-6.99-13.31c-2.46-4.68-7.19-7.72-12.47-8-.27-.02-.54-.02-.81-.02-4.98,0-9.65,2.47-12.45,6.63-.25,.38-25.29,37.62-31.62,47.08-.15,.23-.29,.45-.43,.69-8.24,12.99-6.38,30.13,4.55,41.06Zm7.79-23.38c0-8.69,5.52-16.09,13.22-18.94,2.86-7.7,10.26-13.22,18.94-13.22s16.09,5.52,18.94,13.22c7.7,2.86,13.22,10.26,13.22,18.94s-5.52,16.09-13.22,18.94c-2.86,7.7-10.26,13.22-18.94,13.22s-16.09-5.52-18.94-13.22c-7.7-2.86-13.22-10.26-13.22-18.94Z"/><path class="cls-1" d="M239.56,68.51c3.35-2.47,7.47-3.94,11.95-3.94,2.46,0,4.81,.46,7,1.27-2.86-7.7-10.26-13.22-18.94-13.22s-16.09,5.52-18.94,13.22c2.18-.81,4.53-1.27,6.99-1.27,4.47,0,8.6,1.48,11.95,3.94Z"/><path class="cls-1" d="M239.56,101.06c-3.35,2.47-7.47,3.94-11.95,3.94-2.46,0-4.81-.46-6.99-1.27,2.86,7.7,10.26,13.22,18.94,13.22s16.09-5.52,18.94-13.22c-2.18,.81-4.53,1.27-7,1.27-4.47,0-8.59-1.48-11.95-3.94Z"/><path class="cls-1" d="M239.56,68.51c5,3.68,8.27,9.6,8.27,16.27s-3.27,12.59-8.27,16.27c3.35,2.47,7.47,3.94,11.95,3.94,2.46,0,4.81-.46,7-1.27,7.7-2.86,13.22-10.26,13.22-18.94s-5.52-16.09-13.22-18.94c-2.18-.81-4.53-1.27-7-1.27-4.47,0-8.59,1.48-11.95,3.94Z"/><path class="cls-1" d="M220.62,103.73c2.18,.81,4.53,1.27,6.99,1.27,4.47,0,8.6-1.48,11.95-3.94,5-3.68,8.27-9.6,8.27-16.27s-3.27-12.59-8.27-16.27c-3.35-2.47-7.47-3.94-11.95-3.94-2.46,0-4.81,.46-6.99,1.27-7.7,2.86-13.22,10.26-13.22,18.94s5.52,16.09,13.22,18.94Z"/><path class="cls-1" d="M277.83,103.52c0,1.88,.36,3.67,.99,5.33,2.15,5.65,7.6,9.67,14.01,9.67h9.16c1.01,0,1.99-.1,2.95-.29,2.78,.78,5.71,1.17,8.78,1.17,4.64,0,9.06-.9,13.15-2.69,.57-.25,1.12-.51,1.67-.79-3.96-2.7-6.56-7.24-6.56-12.4V56.3c0-1.37,.2-2.7,.55-3.96-1.81-.5-3.67-.85-5.58-1.03-2.06-5.83-7.62-10-14.15-10h-9.97c-6.41,0-11.87,4.03-14.01,9.69-.63,1.65-.99,3.44-.99,5.31v47.22Z"/><path class="cls-1" d="M321.98,103.52c0,5.15,2.6,9.7,6.56,12.4,2.4,1.64,5.31,2.6,8.44,2.6h9.97c2.5,0,4.85-.62,6.93-1.7-2.48-1.12-4.73-2.53-6.69-4.23-.03-.03-.07-.06-.1-.08-2.73-2.42-4.85-5.36-6.29-8.73-1.39-3.19-2.09-6.65-2.09-10.29,0-4.6,1.12-8.86,3.25-12.56-2.91-5.29-2.4-11.95,1.56-16.76,4.87-5.92,10.95-9.89,17.89-11.77-1.72-6.39-7.54-11.1-14.47-11.1h-9.97c-6.91,0-12.71,4.68-14.45,11.04-.35,1.26-.55,2.59-.55,3.96v47.22Z"/><path class="cls-1" d="M343.53,64.17c-3.96,4.81-4.47,11.47-1.56,16.76-2.13,3.69-3.25,7.96-3.25,12.56,0,3.64,.7,7.1,2.09,10.29,1.44,3.37,3.55,6.3,6.29,8.73,.03,.03,.06,.06,.1,.08,1.96,1.71,4.21,3.12,6.69,4.23,.66,.29,1.32,.58,2,.83l.11,.04c3.18,1.14,6.66,1.71,10.35,1.71,3.01,0,5.89-.37,8.63-1.1,.84,.15,1.71,.22,2.6,.22h9.08c1.02,0,2.02-.1,2.98-.3-6.78-1.44-11.86-7.46-11.86-14.67v-6.89c0-3.22,1.04-6.36,2.96-8.95l1.33-1.79c-2.66-2.71-4.29-6.42-4.29-10.51v-8.42c0-5.48,2.95-10.25,7.33-12.87-.92-.43-1.86-.81-2.84-1.14-3.47-1.21-7.26-1.83-11.25-1.83-3.34,0-6.55,.42-9.58,1.24-6.94,1.87-13.02,5.85-17.89,11.77Z"/><path class="cls-1" d="M436.76,67v6.02c0,3.29-1.08,6.49-3.08,9.11l-1.62,2.13c2.88,2.73,4.68,6.6,4.68,10.88v8.42c0,5.08-2.53,9.56-6.39,12.27,.76,.37,1.53,.72,2.33,1.05,4.22,1.68,8.79,2.53,13.59,2.53s9.21-.84,13.36-2.49c3.89-1.54,7.53-3.71,10.82-6.47,4.53-3.8,6.31-9.78,4.89-15.27,.51-1.06,.91-2.19,1.17-3.38,.2-.94,.44-2.1,.64-3.51,.25-1.76,.37-3.45,.37-5.15,0-4.2-.76-8.28-2.26-12.11-1.57-3.99-3.84-7.52-6.73-10.43-2.9-2.95-6.36-5.29-10.37-6.97-3.95-1.64-8.24-2.47-12.76-2.47s-9.21,.89-13.4,2.66c-.6,.25-1.19,.53-1.77,.81,3.94,2.7,6.53,7.24,6.53,12.37Z"/><path class="cls-1" d="M377.76,67v8.42c0,4.09,1.64,7.8,4.29,10.51l-1.33,1.79c-1.92,2.59-2.96,5.73-2.96,8.95v6.89c0,7.21,5.09,13.22,11.86,14.67,1.01,.22,2.06,.33,3.14,.33h28.97c3.21,0,6.17-1.02,8.61-2.73,3.86-2.71,6.39-7.19,6.39-12.27v-8.42c0-4.29-1.8-8.15-4.68-10.88l1.62-2.13c2-2.62,3.08-5.82,3.08-9.11v-6.02c0-5.14-2.59-9.67-6.53-12.37-2.41-1.65-5.33-2.63-8.47-2.63h-29c-2.81,0-5.42,.79-7.67,2.13-4.38,2.62-7.33,7.4-7.33,12.87Z"/></g><polygon class="cls-1" points="421.73 95.14 404.85 95.14 421.76 73.02 421.76 67 392.76 67 392.76 75.42 408.57 75.42 392.76 96.67 392.76 103.56 421.73 103.56 421.73 95.14"/></g></g><g><g><path class="cls-11" d="M52.35,408.58c-5.63,0-10.8-2.83-13.85-7.56l-23.17-36.03,4.82-13.93L65,124.91l80.75-4.57,134.68-8.88,210.24-11.84,110.83-4.56,10.09,80.61-33.39,4.59,47.35,18.06,23.87,130.06-33.58,42.4c-3.14,3.96-7.83,6.4-12.87,6.68L53.28,408.55c-.31,.02-.62,.03-.93,.03Z"/><path class="cls-11" d="M18.61,364.59l22.39,34.83c2.63,4.09,7.26,6.45,12.12,6.18l549.7-31.1c4.2-.24,8.1-2.26,10.72-5.56l32.74-41.35-23.33-127.1-56.61-21.59,41.95-5.77-9.39-75-108.07,4.44-210.21,11.84-134.71,8.88-78.46,4.44L23.03,351.83l-4.42,12.77Z"/><g><path class="cls-11" d="M147.64,363.71c-2.09,0-4.09-.9-5.48-2.46-1.39-1.56-2.05-3.65-1.81-5.73l25.95-222c.08-.67,.25-1.31,.49-1.91l3.24-8.01c1.09-2.7,3.68-4.5,6.6-4.58q47.68-1.32,47.72-1.32c.33,0,.66,.02,.98,.06,.99-.64,2.14-1.03,3.34-1.13l51.94-4.55h.35c2.07,0,4.02,.83,5.4,2.29,1.38,1.46,2.11,3.44,2,5.45l-12.62,229.96c-.2,3.73-3.17,6.71-6.9,6.93l-120.85,7h-.32s-.03,0-.03,0Z"/><path class="cls-11" d="M147.64,360.75c-1.25,0-2.44-.53-3.27-1.47-.83-.93-1.22-2.18-1.08-3.42l25.95-221.99c.05-.4,.15-.78,.29-1.14l3.24-8.02c.65-1.61,2.2-2.69,3.94-2.74,0,0,47.64-1.32,47.64-1.32,.62,0,1.2,.11,1.72,.31,.72-.78,1.72-1.3,2.85-1.4l51.85-4.54h.25c1.2,0,2.35,.49,3.18,1.36,.82,.87,1.26,2.05,1.19,3.25l-12.62,229.97c-.12,2.22-1.89,4-4.12,4.13l-120.85,7h-.17Z"/><path class="cls-11" d="M172.27,133.85l3.24-8.02c.21-.52,.71-.87,1.27-.89l47.63-1.32c.85-.02,1.53,.7,1.45,1.54l-15.11,167.57c-.08,.86,.63,1.59,1.49,1.54l2.65-.15c.71-.04,1.29-.6,1.33-1.32l11.65-168.98c.05-.7,.6-1.25,1.29-1.31l51.72-4.53c.86-.08,1.59,.63,1.54,1.49l-12.62,229.97c-.04,.72-.61,1.3-1.33,1.34l-120.76,7c-.88,.05-1.59-.7-1.49-1.58l25.94-221.99c.01-.13,.05-.25,.09-.37Z"/><path class="cls-11" d="M271.32,354.79c-1.98,0-3.91-.82-5.29-2.25-1.38-1.43-2.12-3.39-2.05-5.37l8.59-226.79c.15-3.84,3.15-6.87,6.99-7.05l49.85-2.3h.19c2,0,3.85,.77,5.24,2.17s2.14,3.26,2.13,5.23l-.99,114.07c.28-.03,.56-.05,.85-.05,1.03,0,2.03,.21,2.98,.63l54.9,24.44c2.65,1.18,4.35,3.81,4.35,6.7v76.24c0,3.88-3.03,7.1-6.9,7.33l-120.5,6.99h-.32s-.02,0-.02,0Z"/><path class="cls-11" d="M271.32,351.83c-1.18,0-2.33-.49-3.15-1.34s-1.27-2.02-1.22-3.2l8.59-226.79c.09-2.29,1.88-4.1,4.17-4.21l49.79-2.3h.13c1.18,0,2.28,.46,3.11,1.29s1.28,1.94,1.27,3.12l-1.04,119.31c.74-1.37,2.19-2.3,3.85-2.3,.61,0,1.21,.13,1.78,.38l54.9,24.44c1.58,.71,2.6,2.27,2.6,4v76.24c0,2.31-1.81,4.23-4.12,4.37l-120.49,6.99h-.17Z"/><path class="cls-11" d="M279.85,119.25l49.72-2.3c.81-.04,1.49,.61,1.48,1.43l-1.45,167.13c0,.82,.68,1.47,1.5,1.43l2.98-.17c.75-.04,1.34-.66,1.34-1.41v-45.56c0-1.03,1.06-1.71,1.99-1.29l54.9,24.44c.51,.23,.84,.73,.84,1.29v76.24c0,.75-.59,1.37-1.33,1.41l-120.4,6.98c-.83,.05-1.53-.63-1.5-1.47l8.59-226.79c.03-.74,.61-1.33,1.35-1.36Z"/><path class="cls-11" d="M396.43,347.33c-3.94,0-7.16-3.08-7.33-7.02l-9.28-216.54v-10.5c0-3.93,3.07-7.15,7-7.33,0,0,50.04-2.27,50.04-2.27,3.97,0,7.18,3,7.45,6.82l8.04,115.56c1.17-.73,2.53-1.14,3.91-1.14,1.02,0,2.02,.21,2.95,.62l54.83,24.12c2.43,1.07,4.1,3.38,4.35,6.02l7.3,76.66c.19,1.97-.44,3.97-1.74,5.47-1.29,1.5-3.16,2.43-5.14,2.55l-122.05,6.97h-.31s-.03,0-.03,0Z"/><path class="cls-11" d="M396.43,344.37c-2.35,0-4.27-1.84-4.37-4.19l-9.28-216.54v-10.38c0-2.35,1.83-4.27,4.18-4.37l50.03-2.27c2.29,0,4.21,1.79,4.37,4.07l11.59,166.56h.44l-1.49-44.86c-.04-1.2,.4-2.33,1.23-3.19,.82-.85,1.97-1.34,3.15-1.34,.61,0,1.2,.12,1.76,.37l54.84,24.13c1.45,.64,2.44,2.01,2.59,3.59l7.3,76.65c.11,1.18-.26,2.37-1.04,3.26-.77,.9-1.89,1.45-3.07,1.52l-122.05,6.97h-.17Z"/><path class="cls-11" d="M385.74,123.52v-10.25c0-.76,.6-1.38,1.35-1.42l49.83-2.26c.77-.03,1.42,.55,1.48,1.32l11.69,167.99c.05,.74,.67,1.32,1.41,1.32h3.48c.8,0,1.44-.66,1.42-1.46l-1.55-46.45c-.03-1.04,1.03-1.76,1.99-1.34l54.83,24.12c.47,.21,.79,.65,.84,1.16l7.3,76.65c.08,.8-.53,1.5-1.33,1.55l-121.96,6.97c-.79,.05-1.46-.56-1.5-1.35l-9.28-216.54Z"/><path class="cls-11" d="M521.54,339.89c-3.67,0-6.79-2.74-7.27-6.38l-14.2-108.25c-.27-2.03,.34-4.1,1.66-5.68,1.33-1.58,3.26-2.53,5.31-2.61l5.56-.23-11.98-4.79c-2.47-1-4.22-3.25-4.56-5.89l-12.21-97.72c-.25-2.02,.35-4.07,1.66-5.63,1.3-1.55,3.22-2.51,5.25-2.61l107.96-5.31h.2c3.6,0,6.64,2.55,7.26,6.07l13.48,77.03c.37,2.08-.18,4.22-1.51,5.86-1.33,1.65-3.3,2.64-5.41,2.73l-9.34,.41,18.1,7.64c2.27,.96,3.9,2.97,4.35,5.4l23.51,124.26c.39,2.07-.13,4.21-1.42,5.88-1.3,1.66-3.25,2.69-5.36,2.81l-120.71,7h-.32s-.03,0-.03,0Z"/><path class="cls-11" d="M521.54,336.93c-2.19,0-4.05-1.64-4.34-3.81l-14.2-108.25c-.16-1.21,.2-2.45,.99-3.39,.79-.94,1.94-1.5,3.17-1.56l19.37-.81-24.81-9.92c-1.48-.59-2.52-1.94-2.72-3.52l-12.21-97.71c-.15-1.2,.21-2.43,.99-3.36,.78-.93,1.92-1.5,3.14-1.56l107.9-5.3h.14c2.13,0,3.94,1.52,4.31,3.62l13.48,77.03c.22,1.24-.11,2.52-.9,3.5-.79,.98-1.97,1.57-3.22,1.63l-22.48,.98,30.21,12.76c1.35,.57,2.32,1.77,2.6,3.22l23.51,124.26c.23,1.24-.08,2.51-.85,3.51-.77,.99-1.94,1.6-3.2,1.68l-120.7,7h-.17Z"/><path class="cls-11" d="M507.29,222.89l26.57-1.11c1.53-.06,1.89-2.16,.47-2.73l-31.51-12.6c-.48-.19-.82-.63-.88-1.14l-12.21-97.71c-.1-.82,.51-1.55,1.34-1.59l107.82-5.3c.71-.04,1.34,.47,1.47,1.17l13.48,77.03c.15,.84-.48,1.62-1.33,1.66l-29.33,1.27c-1.51,.07-1.88,2.13-.49,2.72l36.53,15.42c.44,.18,.75,.58,.84,1.04l23.51,124.26c.16,.84-.46,1.63-1.31,1.68l-120.61,6.99c-.74,.04-1.39-.49-1.49-1.23l-14.2-108.25c-.11-.83,.51-1.57,1.35-1.6Zm63.34,49.33l2.79-.15c.84-.05,1.45-.81,1.32-1.64l-5.97-36.85c-.08-.49-.41-.9-.87-1.09l-2.24-.9c-1.01-.41-2.08,.44-1.93,1.52l5.41,37.9c.1,.73,.75,1.25,1.48,1.21Zm-13.37-100.71l-2.7-18.87c-.1-.7-.7-1.22-1.4-1.22h-1.22c-.87,0-1.53,.77-1.4,1.63l2.83,18.42c.07,.49,.4,.9,.85,1.09l1.08,.46c1.02,.43,2.11-.41,1.95-1.51Z"/><path class="cls-11" d="M22.34,369.68c-2.21,0-4.28-.98-5.68-2.69-1.4-1.71-1.95-3.94-1.51-6.1L61.77,131.01c.67-3.29,3.47-5.7,6.83-5.87l106.33-5.32h.27c2.11,0,4.1,.88,5.49,2.43,1.39,1.55,2.06,3.63,1.83,5.7l-10.56,95.02c-.16,1.44-.75,2.79-1.66,3.88,.11,.72,.12,1.45,.02,2.18l-18.19,127.33c-.49,3.44-3.37,6.09-6.84,6.29l-122.61,7h-.31s-.03,0-.03,0Z"/><path class="cls-11" d="M22.34,366.72c-1.32,0-2.55-.59-3.39-1.61s-1.16-2.35-.9-3.64l46.62-229.87c.4-1.96,2.07-3.4,4.07-3.5l106.33-5.32h.15c1.24,0,2.43,.53,3.26,1.45,.83,.93,1.23,2.17,1.09,3.4l-10.56,95.02c-.15,1.36-.94,2.58-2.11,3.28,.43,.81,.62,1.75,.48,2.69l-18.19,127.33c-.29,2.05-2.01,3.63-4.08,3.75l-122.61,7h-.17Zm72.03-68.24l.36-2.57-.46,2.57h.09Z"/><path class="cls-11" d="M68.89,131.06l106.26-5.31c.87-.04,1.58,.7,1.48,1.57l-10.56,95.02c-.05,.46-.32,.87-.73,1.09l-1.59,.87c-.98,.53-.99,1.94,0,2.48h0c.51,.29,.8,.86,.71,1.44l-18.19,127.33c-.1,.67-.65,1.18-1.32,1.21l-122.52,7c-.93,.05-1.65-.79-1.47-1.7l46.62-229.87c.13-.63,.67-1.1,1.32-1.13Zm28.23,169.17l5.71-40.6c.08-.56-.18-1.11-.66-1.41l-1.63-1c-.85-.52-1.96-.02-2.13,.96l-7.36,41.6c-.15,.87,.51,1.66,1.4,1.66h3.28c.71,0,1.3-.52,1.4-1.22Zm15.75-99.79l2.93-19.91c.13-.89-.59-1.67-1.49-1.62l-1.27,.07c-.66,.04-1.21,.53-1.32,1.19l-3.06,19.13c-.1,.61,.21,1.21,.77,1.49l1.4,.7c.86,.43,1.89-.11,2.04-1.06Z"/><g><path class="cls-5" d="M182.31,136.79l-24.37,208.56c-.09,.77,.54,1.44,1.32,1.4l99.54-5.77c.64-.04,1.14-.54,1.18-1.18l11.7-207.71c.04-.74-.56-1.35-1.31-1.32l-31.55,1.37c-.64,.03-1.15,.53-1.2,1.17l-11.69,169.5c-.04,.63-.55,1.13-1.18,1.17l-24.09,1.34c-.76,.04-1.39-.6-1.32-1.36l15.18-168.27c.07-.75-.53-1.39-1.28-1.37l-30.31,.84-.54,1.32c-.04,.1-.07,.21-.08,.32Z"/><path class="cls-6" d="M288.49,130.37l-7.81,206.2c-.03,.74,.59,1.34,1.32,1.3l99.59-5.77c.66-.04,1.18-.59,1.18-1.25v-59.99c0-.5-.29-.94-.74-1.14l-34.5-15.36c-.83-.37-1.76,.24-1.76,1.14v39.82c0,.67-.52,1.21-1.18,1.25l-24.13,1.34c-.72,.04-1.33-.54-1.32-1.26l1.46-167.58c0-.72-.59-1.3-1.31-1.26l-29.59,1.37c-.65,.03-1.17,.55-1.19,1.2Z"/><path class="cls-8" d="M396.1,123.3l8.83,205.98c.03,.7,.63,1.24,1.32,1.2l101.06-5.77c.71-.04,1.24-.66,1.18-1.37l-5.73-60.15c-.04-.45-.33-.85-.74-1.03l-34.51-15.19c-.84-.37-1.79,.27-1.76,1.19l1.37,41.12c.02,.71-.54,1.3-1.25,1.3h-24.18c-.66,0-1.2-.51-1.25-1.17l-11.68-167.85c-.05-.68-.63-1.2-1.31-1.16l-31.35,1.42v1.48Z"/><path class="cls-3" d="M501.37,117.23l10.1,80.83c.06,.45,.35,.84,.78,1.01l77.77,26.37-10.12,2.96c-.77,0-1.36,.69-1.24,1.45l8.17,50.46c.12,.73-.42,1.41-1.17,1.45l-24.11,1.34c-.65,.04-1.22-.43-1.31-1.07l-7.08-49.55c-.09-.64-.65-1.1-1.29-1.07l-33.03,1.38c-.74,.03-1.29,.69-1.19,1.42l11.51,87.79c.09,.65,.66,1.13,1.32,1.09l99.56-5.77c.75-.04,1.3-.74,1.16-1.48l-20.33-107.48c-.08-.41-.36-.76-.74-.92l-65.35-27.59c-.4-.17-.69-.53-.75-.96l-5.59-36.35c-.12-.76,.47-1.44,1.24-1.44h22.62c.62,0,1.15,.46,1.24,1.08l4.13,28.89c.09,.64,.65,1.1,1.3,1.07l31.49-1.37c.76-.03,1.31-.72,1.18-1.47l-9.93-56.72c-.11-.62-.66-1.07-1.3-1.04l-87.85,4.32c-.73,.04-1.27,.68-1.18,1.41Z"/><path class="cls-4" d="M163.69,136.69l-86.38,4.32c-.57,.03-1.05,.44-1.17,1l-42.41,209.14c-.16,.81,.48,1.55,1.3,1.5l100.98-5.77c.6-.03,1.08-.48,1.17-1.07l16.02-112.12c.07-.51-.18-1.02-.63-1.27l-10.58-5.88c-.86-.48-.86-1.72,0-2.2l13.71-7.48c.36-.2,.6-.56,.65-.96l8.65-77.83c.09-.77-.54-1.43-1.31-1.39Zm-50.12,120.91l-7.48,53.12c-.09,.62-.62,1.08-1.24,1.08h-24.98c-.78,0-1.37-.7-1.23-1.47l12.4-70.09h1.22c.23,0,.46,.06,.65,.18l28.47,13.78c1.08,.66,.61,2.32-.65,2.32h-5.92c-.62,0-1.15,.46-1.24,1.08Zm5.63-40.34l-21.31-10.66c-.49-.24-.76-.78-.68-1.32l5.62-35.11c.09-.58,.58-1.02,1.16-1.05l22.62-1.33c.79-.05,1.43,.65,1.31,1.43l-6.93,47.1c-.12,.84-1.04,1.32-1.8,.94Z"/></g></g></g><g><path class="cls-11" d="M215.9,90.72l17.73,17.73c1.41,1.41,3.19,2.21,5.02,2.41,2.44,.27,4.98-.54,6.85-2.41l17.73-17.73c1.64-1.64,2.46-3.79,2.46-5.94,0-2.15-.82-4.29-2.46-5.93l-17.73-17.73c-1.46-1.46-3.32-2.27-5.22-2.43-2.38-.2-4.83,.61-6.65,2.43l-17.73,17.73c-1.64,1.64-2.46,3.79-2.46,5.94,0,2.15,.82,4.29,2.46,5.93Zm6.5-5.94c0-2.88,2.33-5.21,5.22-5.21s5.21,2.33,5.21,5.21-2.33,5.21-5.21,5.21-5.22-2.33-5.22-5.21Zm17.16-17.16c2.88,0,5.21,2.33,5.21,5.21s-2.33,5.21-5.21,5.21-5.21-2.33-5.21-5.21,2.33-5.21,5.21-5.21Zm17.16,17.16c0,2.88-2.33,5.21-5.21,5.21s-5.21-2.33-5.21-5.21,2.33-5.21,5.21-5.21,5.21,2.33,5.21,5.21Zm-22.38,11.95c0-2.88,2.33-5.21,5.21-5.21s5.21,2.33,5.21,5.21-2.33,5.21-5.21,5.21-5.21-2.33-5.21-5.21Z"/><path class="cls-11" d="M308.53,94.74c1.12,.39,2.26,.59,3.44,.59,1.28,0,2.49-.24,3.63-.7,1.12-.47,2.12-1.14,2.99-2.04,.84-.88,1.54-1.94,2.01-3.17,.5-1.23,.75-2.64,.75-4.2s-.25-2.92-.75-4.17c-.47-1.26-1.17-2.32-2.01-3.18-.86-.85-1.87-1.52-2.99-1.98-1.14-.47-2.35-.71-3.63-.71-1.17,0-2.32,.21-3.44,.6-1.12,.39-2.09,1.01-2.99,1.84-.89,.84-1.59,1.9-2.09,3.17-.53,1.28-.78,2.78-.78,4.51s.25,3.28,.81,4.54c.53,1.26,1.23,2.29,2.09,3.1,.87,.81,1.84,1.42,2.96,1.81Z"/><path class="cls-11" d="M374.5,95.1c1.51-1.33,2.26-3.07,2.26-5.24v-.45h-7.82c-3.41,0-5.11,1.23-5.11,3.69,0,1.28,.5,2.27,1.45,2.96,.95,.68,2.21,1.03,3.71,1.03,2.18,0,4.02-.67,5.5-2Z"/><path class="cls-11" d="M472.52,71.81c-1.47-3.76-3.62-7.07-6.37-9.85-2.69-2.74-5.95-4.94-9.66-6.5-3.79-1.57-7.85-2.36-12.12-2.36s-8.72,.84-12.67,2.51c-.86,.36-1.69,.77-2.51,1.2-2.27-1.79-5.13-2.88-8.24-2.88h-28.73c-2.79,0-5.39,.87-7.53,2.34-1.09-.55-2.22-1.05-3.4-1.46-3.26-1.14-6.83-1.72-10.63-1.72s-7.32,.56-10.66,1.65c-.93-6.44-6.47-11.42-13.17-11.42h-9.88c-6.67,0-12.2,4.94-13.16,11.35-2.51-.84-5.13-1.35-7.85-1.52-1.54-5.66-6.72-9.83-12.86-9.83h-9.88c-7.35,0-13.32,5.98-13.32,13.32v.67l-4.71-12.67c-1.73-4.66-5.87-7.95-10.8-8.58-.55-.07-1.12-.11-1.69-.11-1.02,0-2.03,.12-3,.34l-7.45-14.19c-2.17-4.13-6.41-6.86-11.07-7.11-.24-.01-.48-.02-.72-.02-4.44,0-8.58,2.2-11.06,5.89l-.1,.14c-4.2,6.25-25.45,37.86-31.23,46.51-.14,.21-.27,.42-.4,.63-7.77,12.24-5.99,28.52,4.28,38.79l16.42,16.42c3.35,3.35,7.33,5.8,11.67,7.34l1.63-2.63,29.8-3.75c.35-.32,.71-.62,1.05-.95l14.94-7.53c.41-.41,.79-.83,1.17-1.26,1.07,6.28,8.02,2.19,14.6,2.19h9.08c1,0,2-.11,2.97-.34,2.74,.81,5.63,1.21,8.65,1.21,4.38,0,8.56-.85,12.42-2.54,.83-.36,1.62-.77,2.4-1.2,2.27,1.79,5.12,2.86,8.23,2.86h9.88c2.48,0,4.8-.69,6.79-1.88,.84,.41,1.69,.79,2.59,1.11,3.07,1.1,6.35,1.64,9.83,1.64,2.98,0,5.83-.38,8.49-1.13,.86,.17,1.74,.26,2.63,.26h8.99c1,0,1.99-.13,2.96-.35,1.01,.24,2.05,.38,3.11,.38h28.7c3.16,0,6.07-1.11,8.36-2.96,.97,.5,1.97,.96,3,1.38,4.05,1.61,8.39,2.42,12.95,2.42s8.74-.8,12.69-2.36c3.68-1.46,7.15-3.53,10.28-6.15,4.21-3.52,5.75-9.1,4.19-14.13,.59-1.08,1.03-2.26,1.3-3.5,.2-.91,.42-2.02,.62-3.39,.24-1.65,.35-3.24,.35-4.86,0-3.97-.72-7.82-2.14-11.44Zm-151.65,31.15c-2.21,.96-4.58,1.44-7.15,1.44s-4.78-.45-6.79-1.35c-2.01-.92-3.66-2.24-4.94-3.95v4.43h-9.16V56.3h9.97v14.21c2.62-2.9,6.26-4.36,10.92-4.36,2.57,0,4.94,.49,7.09,1.44,2.18,.96,4.05,2.29,5.61,3.99,1.59,1.7,2.82,3.72,3.69,6.06,.89,2.33,1.34,4.87,1.34,7.64s-.45,5.31-1.34,7.64c-.87,2.35-2.1,4.36-3.63,6.06-1.56,1.69-3.44,3.03-5.61,3.98Zm16.11,.56V56.3h9.97v47.22h-9.97Zm117.13-.56c-2.43,.96-5.03,1.44-7.85,1.44s-5.58-.49-8.04-1.47c-2.46-.99-4.58-2.35-6.34-4.06-1.79-1.73-3.19-3.74-4.19-6.06-1.01-2.3-1.51-4.82-1.51-7.53s.5-5.22,1.48-7.54c.98-2.3,2.35-4.33,4.05-6.05,1.73-1.73,3.77-3.07,6.12-4.06,2.32-.98,4.86-1.48,7.57-1.48,2.54,0,4.89,.45,7.01,1.33,2.12,.89,3.91,2.09,5.42,3.63,1.51,1.52,2.65,3.32,3.46,5.39,.81,2.07,1.23,4.27,1.23,6.63,0,1.05-.08,2.05-.22,3.03-.14,.99-.31,1.8-.45,2.44h-25.69c.64,2.36,1.87,4.16,3.69,5.39,1.82,1.23,4.08,1.84,6.73,1.84,1.95,0,3.77-.34,5.42-.99,1.65-.67,3.24-1.56,4.77-2.69l4.05,6.79c-2.07,1.73-4.3,3.07-6.7,4.02Zm-76.54,.56v-3.55c-1.28,1.38-2.85,2.46-4.75,3.25-1.9,.78-4.05,1.17-6.48,1.17-1.95,0-3.74-.28-5.31-.84-1.56-.57-2.91-1.34-3.99-2.29-1.09-.96-1.9-2.11-2.46-3.44-.59-1.33-.87-2.78-.87-4.36,0-3.35,1.26-5.96,3.74-7.83,2.49-1.87,5.86-2.81,10.14-2.81h9.16v-1.62c0-2.02-.56-3.59-1.7-4.72-1.12-1.13-2.85-1.7-5.17-1.7-1.93,0-3.63,.45-5.14,1.33-1.48,.89-3.02,2.12-4.52,3.7l-5.11-6.13c4.13-5.03,9.44-7.54,15.89-7.54,2.32,0,4.44,.33,6.34,1,1.93,.66,3.57,1.65,4.94,2.95,1.4,1.31,2.46,2.93,3.21,4.87,.78,1.94,1.14,4.22,1.14,6.83v21.71h-9.08Zm44.16,.04h-28.97v-6.89l15.8-21.25h-15.8v-8.42h29v6.02l-16.91,22.12h16.88v8.42Zm-211.51-6c-6.2-6.2-6.94-15.78-2.24-22.8h-.01c6.39-9.56,31.6-47.06,31.6-47.06l15.99,30.44,6.47-9.27,10.75,28.95c.07,.17,.13,.34,.19,.51l.09,.24h-.02c2.34,6.41,.99,13.85-4.14,18.98l-16.57,16.57c-7.05,7.05-18.49,7.05-25.54,0l-16.57-16.57Z"/><path class="cls-11" d="M439.4,76.17c-1.56,1.3-2.65,3.11-3.24,5.42h16.76c-.08-2.36-.89-4.17-2.43-5.46-1.54-1.28-3.35-1.91-5.47-1.91s-4.02,.64-5.61,1.96Z"/><path class="cls-12" d="M252.33,114.13l16.57-16.57c5.13-5.14,6.48-12.58,4.14-18.98h.02s-.09-.24-.09-.24c-.07-.17-.12-.34-.19-.51l-10.75-28.95-6.47,9.27-15.99-30.44s-25.21,37.5-31.6,47.06h.01c-4.7,7.02-3.96,16.6,2.24,22.8l16.57,16.57c7.05,7.05,18.49,7.05,25.54,0Zm-18.71-53.01c1.82-1.82,4.27-2.63,6.65-2.43,1.91,.16,3.77,.97,5.22,2.43l17.73,17.73c1.64,1.64,2.46,3.78,2.46,5.93,0,2.15-.82,4.3-2.46,5.94l-17.73,17.73c-1.87,1.87-4.41,2.67-6.85,2.41-1.84-.2-3.62-1-5.02-2.41l-17.73-17.73c-1.64-1.64-2.46-3.79-2.46-5.93,0-2.15,.82-4.3,2.46-5.94l17.73-17.73Z"/><path class="cls-12" d="M234.35,72.84c0,2.88,2.33,5.21,5.21,5.21s5.21-2.33,5.21-5.21-2.33-5.21-5.21-5.21-5.21,2.33-5.21,5.21Z"/><circle class="cls-12" cx="239.56" cy="96.73" r="5.21"/><path class="cls-12" d="M251.51,79.57c-2.88,0-5.21,2.33-5.21,5.21s2.33,5.21,5.21,5.21,5.21-2.33,5.21-5.21-2.33-5.21-5.21-5.21Z"/><path class="cls-12" d="M227.62,90c2.88,0,5.21-2.33,5.21-5.21s-2.33-5.21-5.21-5.21-5.22,2.33-5.22,5.21,2.33,5.21,5.22,5.21Z"/><path class="cls-1" d="M326.48,98.99c1.53-1.7,2.76-3.71,3.63-6.06,.89-2.33,1.34-4.89,1.34-7.64s-.45-5.31-1.34-7.64c-.87-2.34-2.1-4.36-3.69-6.06-1.56-1.7-3.44-3.03-5.61-3.99-2.15-.95-4.52-1.44-7.09-1.44-4.66,0-8.29,1.45-10.92,4.36v-14.21h-9.97v47.22h9.16v-4.43c1.28,1.72,2.93,3.03,4.94,3.95,2.01,.91,4.3,1.35,6.79,1.35s4.94-.47,7.15-1.44c2.18-.95,4.05-2.29,5.61-3.98Zm-23.01-9.16c-.56-1.26-.81-2.76-.81-4.54s.25-3.23,.78-4.51c.5-1.27,1.2-2.33,2.09-3.17,.89-.84,1.87-1.45,2.99-1.84,1.12-.39,2.26-.6,3.44-.6,1.28,0,2.49,.24,3.63,.71,1.12,.46,2.12,1.13,2.99,1.98,.84,.87,1.54,1.93,2.01,3.18,.5,1.26,.75,2.64,.75,4.17s-.25,2.98-.75,4.2c-.47,1.23-1.17,2.29-2.01,3.17-.86,.89-1.87,1.56-2.99,2.04-1.14,.46-2.35,.7-3.63,.7-1.17,0-2.32-.2-3.44-.59-1.12-.39-2.09-1.01-2.96-1.81-.86-.81-1.56-1.84-2.09-3.1Z"/><rect class="cls-1" x="336.98" y="56.3" width="9.97" height="47.22"/><path class="cls-1" d="M386.65,103.52v-21.71c0-2.61-.36-4.89-1.14-6.83-.75-1.94-1.82-3.56-3.21-4.87-1.37-1.3-3.02-2.29-4.94-2.95-1.9-.67-4.02-1-6.34-1-6.45,0-11.76,2.51-15.89,7.54l5.11,6.13c1.51-1.58,3.04-2.81,4.52-3.7,1.51-.88,3.21-1.33,5.14-1.33,2.32,0,4.05,.57,5.17,1.7,1.14,1.13,1.7,2.69,1.7,4.72v1.62h-9.16c-4.27,0-7.65,.94-10.14,2.81-2.49,1.87-3.74,4.48-3.74,7.83,0,1.58,.28,3.03,.87,4.36,.56,1.33,1.37,2.47,2.46,3.44,1.09,.95,2.43,1.72,3.99,2.29,1.56,.56,3.35,.84,5.31,.84,2.43,0,4.58-.39,6.48-1.17,1.9-.8,3.46-1.87,4.75-3.25v3.55h9.08Zm-21.36-7.46c-.95-.68-1.45-1.68-1.45-2.96,0-2.46,1.7-3.69,5.11-3.69h7.82v.45c0,2.16-.75,3.91-2.26,5.24-1.48,1.33-3.32,2-5.5,2-1.51,0-2.76-.35-3.71-1.03Z"/><path class="cls-1" d="M456.77,92.16c-1.54,1.13-3.13,2.02-4.77,2.69-1.65,.66-3.46,.99-5.42,.99-2.65,0-4.91-.61-6.73-1.84-1.81-1.23-3.04-3.03-3.69-5.39h25.69c.14-.64,.31-1.45,.45-2.44,.14-.98,.22-1.98,.22-3.03,0-2.36-.42-4.57-1.23-6.63-.81-2.07-1.95-3.87-3.46-5.39-1.51-1.54-3.3-2.74-5.42-3.63-2.12-.88-4.47-1.33-7.01-1.33-2.71,0-5.25,.5-7.57,1.48-2.35,.99-4.38,2.33-6.12,4.06-1.7,1.72-3.07,3.74-4.05,6.05-.98,2.32-1.48,4.83-1.48,7.54s.5,5.22,1.51,7.53c1,2.32,2.4,4.33,4.19,6.06,1.76,1.72,3.88,3.07,6.34,4.06,2.46,.98,5.14,1.47,8.04,1.47s5.42-.47,7.85-1.44c2.4-.95,4.64-2.29,6.7-4.02l-4.05-6.79Zm-11.76-17.94c2.12,0,3.94,.63,5.47,1.91,1.54,1.29,2.34,3.1,2.43,5.46h-16.76c.59-2.3,1.68-4.12,3.24-5.42,1.59-1.31,3.46-1.96,5.61-1.96Z"/><polygon class="cls-1" points="421.73 95.14 404.85 95.14 421.76 73.02 421.76 67 392.76 67 392.76 75.42 408.57 75.42 392.76 96.67 392.76 103.56 421.73 103.56 421.73 95.14"/></g></g></g></g></svg>