<svg width="384" height="438" viewBox="0 0 384 438" fill="none" xmlns="http://www.w3.org/2000/svg">
<g opacity="0.3">
<path d="M34.3778 414.567C42.5488 412.748 52.1522 410.113 61.2341 406.229C70.29 402.357 78.8372 397.239 84.9272 390.441C83.5859 393.42 83.2321 395.716 83.7132 397.369C84.2509 399.218 85.815 400.219 88.0695 400.485C90.3193 400.75 93.2842 400.289 96.6967 399.195C100.112 398.101 103.987 396.37 108.062 394.083C124.276 384.983 143.714 367.046 149.951 345.275C155.353 354.788 157.731 361.98 159.322 368.57C159.881 370.884 160.344 373.129 160.807 375.377C161.674 379.585 162.543 383.801 164.049 388.499L164.203 388.981L164.331 388.491C166.835 378.892 167.811 370.667 168.228 363.326C169.136 354.843 169.285 346.199 169.432 337.612C169.444 336.922 169.456 336.232 169.468 335.542C170.236 330.228 171.732 325.084 174.723 319.736C176.778 330.739 182.758 338.686 189.539 346.535C190.597 347.76 191.675 348.982 192.76 350.213C198.718 356.971 204.91 363.995 209.417 373.156L209.693 373.067C208.511 366.258 206.603 359.157 204.924 352.906C204.32 350.658 203.746 348.52 203.246 346.545C202.298 342.807 201.618 339.661 201.496 337.452C201.435 336.345 201.516 335.495 201.759 334.926C201.88 334.644 202.037 334.438 202.232 334.301C202.403 334.181 202.61 334.11 202.863 334.095C204.007 337.299 205.39 338.692 206.87 339.453C207.612 339.833 208.372 340.052 209.118 340.263L209.167 340.276C209.9 340.483 210.617 340.686 211.316 341.03L211.638 341.188L211.519 340.849C208.817 333.158 209.426 324.349 210.743 315.277C219.718 326.341 229.359 332.52 239.733 333.381L240.072 333.409L239.86 333.143C235.017 327.068 227.515 313.462 223.602 302.953C225.419 306.682 227.544 310.078 229.771 313.212C231.679 315.897 233.609 318.419 235.471 320.852L235.576 320.988L244.269 336.968C238.18 338.752 232.587 337.757 227.057 335.608C222.289 333.094 217.102 329.501 213.439 324.898L213.18 325.018C213.813 328.217 214.615 331.583 215.447 335.076C215.735 336.283 216.026 337.506 216.315 338.742C216.461 340.728 216.69 342.654 216.919 344.578C217.786 351.867 218.65 359.125 214.986 369.526C214.898 362.249 213.945 356.973 212.399 352.722C210.795 348.31 208.556 345.009 206 341.724L205.749 341.873C211.67 355.457 214.13 369.032 211.301 387.393C206.748 377.172 199.102 361.817 187.153 352.02C187.095 351.955 187.037 351.889 186.979 351.823C186.571 351.358 186.162 350.891 185.73 350.434L185.73 350.434L174.067 338.102L173.723 337.737L173.816 338.23L176.987 354.902L177.122 354.877L176.987 354.902C178.242 361.491 178.963 367.286 179.233 372.407C178.509 376.452 177.542 380.47 176.393 383.76C175.817 385.407 175.198 386.869 174.542 388.059C173.989 389.062 173.414 389.865 172.823 390.423C176.224 375.409 174.378 366.076 172.177 357.136L171.888 357.185C173.015 369.275 172.616 378.474 169.975 386.046C167.356 393.551 162.528 399.471 154.762 405.024C153.679 398.749 152.869 393.987 152.208 390.004C152.193 387.482 152.123 385.361 152.056 383.87C152.023 383.123 151.99 382.535 151.966 382.133C151.954 381.931 151.944 381.777 151.937 381.673L151.929 381.554L151.927 381.524L151.926 381.517L151.926 381.515L151.926 381.514L151.926 381.514L151.78 381.525L151.926 381.514L150.646 364.084L150.608 363.569L150.369 364.027L143.395 377.407C120.44 404.019 90.5342 409.388 59.8613 414.894C58.9058 415.066 57.9496 415.237 56.9927 415.41C48.8593 415.606 41.1407 415.275 34.3778 414.567Z" stroke="#F12C4C" stroke-width="0.29363"/>
<path d="M277.728 358.272C273.581 328.766 259.587 298.812 241.334 268.46C241.346 268.311 241.355 268.161 241.362 268.011C243.432 270.24 245.415 272.54 247.306 274.909C258.655 293.735 267.528 313.801 275.054 334.545C276.78 342.802 277.663 350.82 277.728 358.272Z" stroke="#F12C4C" stroke-width="0.29363"/>
<path d="M267.772 269.001C277.748 283.555 292.823 309.553 302.206 340.735C297.879 328.834 292.357 316.262 285.761 304.966L285.492 305.076C289.269 319.973 292.435 335.928 291.998 351.181C288.48 319.467 275.992 283.741 260.99 262.243C261.223 262.473 261.456 262.703 261.689 262.932C263.739 264.954 265.764 266.95 267.766 268.992L267.772 269.001Z" stroke="#F12C4C" stroke-width="0.29363"/>
<path d="M179.169 125.409L179.166 125.262L179.095 125.263L179.052 125.32C177.842 126.911 176.525 128.502 175.178 130.12C175.766 128.377 176.2 126.832 176.382 125.986C176.616 124.907 176.778 123.416 176.79 121.843C180.417 122.743 184.075 123.924 187.739 125.112C186.189 125.138 184.276 125.171 182.652 125.2C181.677 125.217 180.806 125.232 180.178 125.244L179.437 125.257L179.236 125.261L179.184 125.262L179.171 125.262L179.168 125.262L179.167 125.262L179.166 125.262L179.169 125.409Z" stroke="#F12C4C" stroke-width="0.29363"/>
<path d="M278.388 208.613C277.381 208.425 276.4 208.266 275.425 208.122L275.789 202.933C276.342 204.8 277.22 206.635 278.388 208.613Z" stroke="#F12C4C" stroke-width="0.29363"/>
<path d="M166.703 141.067C166.481 140.982 166.259 140.902 166.037 140.828C166.379 140.719 166.732 140.599 167.093 140.468C167.005 140.602 166.917 140.737 166.831 140.87C166.788 140.936 166.745 141.002 166.703 141.067Z" stroke="#F12C4C" stroke-width="0.29363"/>
<path d="M355.208 147.478L350.451 140.113C354.342 138.001 358.103 135.709 361.729 133.386C360.209 137.448 357.888 142.529 355.208 147.478Z" stroke="#F12C4C" stroke-width="0.29363"/>
<path d="M147.591 110.892C135.097 113.669 124.643 110.037 117.356 102.723C110.023 95.3612 105.891 84.2604 106.135 72.184C106.624 48.0455 124.607 20.0037 169.486 10.2761C173.702 10.1823 178.037 10.1296 182.494 10.1179H182.499H182.504H182.51H182.515H182.521H182.526H182.531H182.537H182.542H182.548H182.553H182.558H182.564H182.569H182.575H182.58H182.586H182.591H182.596H182.602H182.607H182.613H182.618H182.623H182.629H182.634H182.64H182.645H182.65H182.656H182.661H182.667H182.672H182.677H182.683H182.688H182.694H182.699H182.705H182.71H182.715H182.721H182.726H182.732H182.737H182.742H182.748H182.753H182.759H182.764H182.77H182.775H182.78H182.786H182.791H182.797H182.802H182.807H182.813H182.818H182.824H182.829H182.834H182.84H182.845H182.851H182.856H182.862H182.867H182.872H182.878H182.883H182.889H182.894H182.9H182.905H182.91H182.916H182.921H182.927H182.932H182.937H182.943H182.948H182.954H182.959H182.965H182.97H182.975H182.981H182.986H182.992H182.997H183.003H183.008H183.013H183.019H183.024H183.03H183.035H183.041H183.046H183.051H183.057H183.062H183.068H183.073H183.079H183.084H183.089H183.095H183.1H183.106H183.111H183.116H183.122H183.127H183.133H183.138H183.144H183.149H183.154H183.16H183.165H183.171H183.176H183.182H183.187H183.193H183.198H183.203H183.209H183.214H183.22H183.225H183.231H183.236H183.241H183.247H183.252H183.258H183.263H183.269H183.274H183.279H183.285H183.29H183.296H183.301H183.307H183.312H183.317H183.323H183.328H183.334H183.339H183.345H183.35H183.355H183.361H183.366H183.372H183.377H183.383H183.388H183.394H183.399H183.404H183.41H183.415H183.421H183.426H183.432H183.437H183.442H183.448H183.453H183.459H183.464H183.47H183.475H183.481H183.486H183.491H183.497H183.502H183.508H183.513H183.519H183.524H183.529H183.535H183.54H183.546H183.551H183.557H183.562H183.568H183.573H183.578H183.584H183.589H183.595H183.6H183.606H183.611H183.617H183.622H183.627H183.633H183.638H183.644H183.649H183.655H183.66H183.666H183.671H183.676H183.682H183.687H183.693H183.698H183.704H183.709H183.714H183.72H183.725H183.731H183.736H183.742H183.747H183.753H183.758H183.763H183.769H183.774H183.78H183.785H183.791H183.796H183.802H183.807H183.812H183.818H183.823H183.829H183.834H183.84H183.845H183.851H183.856H183.861H183.867H183.872H183.878H183.883H183.889H183.894H183.9H183.905H183.91H183.916H183.921H183.927H183.932H183.938H183.943H183.949H183.954H183.96H183.965H183.97H183.976H183.981H183.987H183.992H183.998H184.003H184.009H184.014H184.019H184.025H184.03H184.036H184.041H184.047H184.052H184.058H184.063H184.068H184.074H184.079H184.085H184.09H184.096H184.101H184.107H184.112H184.117H184.123H184.128H184.134H184.139H184.145H184.15H184.156H184.161H184.166H184.172H184.177H184.183H184.188H184.194H184.199H184.205H184.21H184.216H184.221H184.226H184.232H184.237H184.243H184.248H184.254H184.259H184.265H184.27H184.275H184.281H184.286H184.292H184.297H184.303H184.308H184.314H184.319H184.324H184.33H184.335H184.341H184.346H184.348C165.455 16.3042 150.984 25.0566 141.059 34.8309L140.997 34.8921L141.021 34.976C141.333 36.0617 141.626 37.08 141.911 38.0729C142.936 41.6396 143.866 44.8783 145.267 49.734L145.335 49.9688L145.51 49.7988C173.183 22.9858 216.389 13.3971 260.329 15.7737L235.923 33.3702C222.997 39.6657 208.725 45.757 194.42 50.3215C198.902 47.908 203.284 45.4637 207.713 42.9935C211.377 40.9505 215.071 38.8899 218.88 36.8144L218.934 36.785L218.951 36.7258L222.845 23.0896L222.911 22.8583L222.675 22.9053C204.287 26.5689 187.12 32.2546 172.941 42.3843C158.758 52.5164 147.573 67.089 141.139 88.5101L141.135 88.5243L141.134 88.5391C140.568 94.8007 141.187 99.0171 142.467 102.382C143.627 105.434 145.33 107.778 147.16 110.298C147.303 110.495 147.447 110.693 147.591 110.892ZM252.214 18.7614L252.126 18.4873C244.825 19.3272 237.575 20.2848 230.466 21.4775L230.49 21.6223L230.364 21.5484L222.735 34.6384L222.47 35.0931L222.932 34.8412C223.676 34.4357 224.408 34.0368 225.129 33.6437C234.57 28.498 242.224 24.3266 252.214 18.7614ZM135.38 41.4398L135.336 41.3777H135.26H135.254H135.183L135.139 41.4342C126.121 52.9946 123.006 65.4266 125.975 76.4226L126.077 76.8022L126.249 76.4483C130.676 67.307 136.316 59.3211 142.93 52.4022L143.013 52.3157L142.945 52.2173C140.431 48.5814 137.764 44.8105 135.38 41.4398Z" stroke="#F12C4C" stroke-width="0.29363"/>
<path d="M204.97 151L204.97 151C206.813 150.752 208.808 150.86 211.039 151.481C206.297 152.702 202.795 152.893 200.162 152.462C201.828 151.727 203.436 151.203 204.97 151Z" stroke="#F12C4C" stroke-width="0.29363"/>
<path d="M223.499 158.853C215.419 160.313 207.261 159.576 200.405 158.134L200.375 158.278L200.405 158.134C198.117 157.653 196.36 157.089 194.586 156.52C194.41 156.463 194.234 156.406 194.057 156.35L211.583 151.642C214.922 152.685 218.795 154.887 223.499 158.853Z" stroke="#F12C4C" stroke-width="0.29363"/>
<path d="M251.467 299.224L251.608 299.185C251.467 299.224 251.467 299.224 251.467 299.224L251.467 299.225L251.467 299.227L251.47 299.236L251.48 299.273C251.489 299.306 251.502 299.355 251.52 299.42C251.554 299.549 251.605 299.74 251.67 299.989C251.8 300.486 251.986 301.213 252.209 302.129C252.654 303.963 253.248 306.556 253.842 309.594C254.974 315.384 256.105 322.785 256.21 329.628C251.47 314.166 242.959 298.698 236.023 287.634C238.291 288.077 240.967 288.283 244.288 288.356L244.582 288.362L244.41 288.123C241.305 283.82 240.43 280.416 240.381 277.35C240.356 275.813 240.539 274.356 240.756 272.905C240.798 272.626 240.841 272.348 240.884 272.069C241.042 271.044 241.201 270.015 241.299 268.961C259.888 299.925 273.994 330.437 277.729 360.474C277.685 363.63 277.495 366.685 277.149 369.592C276.675 345.277 266.659 318.407 251.724 299.095L251.467 299.224Z" stroke="#F12C4C" stroke-width="0.29363"/>
<path d="M287.207 371.56L287.207 371.56C290.141 348.814 285.043 320.047 271.657 293.794C270.08 289.445 268.094 284.439 266.12 279.466C265.628 278.226 265.137 276.988 264.654 275.762C262.331 269.879 260.178 264.292 258.913 260.174C259.203 260.464 259.493 260.752 259.783 261.039C275.498 282.759 288.653 320.369 291.917 353.211C291.472 361.955 289.782 370.44 286.285 378.332C286.591 376.273 286.886 374.029 287.207 371.56Z" stroke="#F12C4C" stroke-width="0.29363"/>
<path d="M174.661 319.249C171.905 324.076 170.369 328.736 169.5 333.495C169.947 310.708 171.27 288.552 187.759 270.854C181.497 287.814 178.963 301.611 180.647 314.652C182.353 327.865 188.386 340.283 199.221 354.416C199.773 355.662 200.338 356.687 200.91 357.429C201.48 358.169 202.074 358.651 202.687 358.76L203.076 358.83L202.827 358.523C201.657 357.085 200.552 355.669 199.475 354.265C196.537 347.628 193.867 334.473 192.784 323.43C192.242 317.905 192.099 312.922 192.515 309.557C192.723 307.869 193.069 306.613 193.559 305.896C193.801 305.541 194.07 305.331 194.363 305.255C194.638 305.183 194.958 305.225 195.333 305.415C196.042 313.061 197.171 317.373 198.469 320.398C199.119 321.916 199.811 323.106 200.509 324.228C200.686 324.512 200.863 324.792 201.04 325.071C201.561 325.893 202.079 326.711 202.584 327.638L202.859 327.554C201.839 316.317 202.395 303.464 205.329 294.825C208.803 301.587 213.04 308.589 217.612 314.43C222.25 320.356 227.244 325.104 232.148 327.18L232.542 327.347L232.333 326.973C226.01 315.66 223.222 307.1 222.227 299.942C222.24 299.973 222.253 300.004 222.266 300.035C225.68 310.685 234.053 326.205 239.408 333.052C229.19 332.087 219.657 325.897 210.749 314.826L210.539 314.563L210.49 314.896C209.163 323.961 208.488 332.833 211.118 340.614C210.494 340.342 209.861 340.163 209.239 339.986L209.184 339.971C208.436 339.759 207.703 339.547 206.991 339.181C205.579 338.456 204.226 337.113 203.092 333.89L203.058 333.792H202.954C202.603 333.792 202.301 333.88 202.051 334.055C201.801 334.23 201.613 334.486 201.476 334.805C201.205 335.437 201.127 336.344 201.189 337.462C201.312 339.703 202 342.876 202.947 346.611C203.45 348.594 204.026 350.737 204.631 352.988C206.229 358.934 208.029 365.636 209.217 372.126C204.735 363.369 198.729 356.558 192.97 350.025C191.886 348.795 190.81 347.576 189.755 346.355C182.898 338.418 176.902 330.425 174.933 319.297L174.863 318.897L174.661 319.249Z" stroke="#F12C4C" stroke-width="0.29363"/>
<path d="M14.4155 407.253C14.0811 408.149 13.739 409.047 13.3832 409.948C13.2194 409.868 13.1085 409.8 13.0077 409.734C12.9754 409.712 12.9433 409.691 12.9102 409.668C12.8511 409.629 12.7889 409.587 12.7172 409.541C13.304 408.779 13.8688 408.016 14.4155 407.253Z" stroke="#F12C4C" stroke-width="0.29363"/>
<mask id="path-15-inside-1_376_508" fill="white">
<path d="M20.8736 412.509L13.4624 410.148C15.2418 410.947 17.7905 411.769 20.8736 412.509Z"/>
</mask>
<path d="M20.8736 412.509L20.8051 412.794L20.9627 412.229L20.8736 412.509ZM13.4624 410.148L13.5515 409.868L13.3422 410.416L13.4624 410.148ZM20.9627 412.229L13.5515 409.868L13.3733 410.428L20.7845 412.788L20.9627 412.229ZM13.3422 410.416C15.1445 411.225 17.7124 412.052 20.8051 412.794L20.9421 412.223C17.8686 411.485 15.3392 410.668 13.5826 409.88L13.3422 410.416Z" fill="#F12C4C" mask="url(#path-15-inside-1_376_508)"/>
<path d="M35.9106 265.738L35.9169 265.703C37.3733 262.083 40.2893 258.121 43.8285 254.228C47.3806 250.322 51.5515 246.495 55.4818 243.165C57.6048 241.701 59.6727 240.049 61.9003 238.254C62.039 238.143 62.1784 238.03 62.3184 237.917C64.3005 236.32 66.4182 234.614 68.8227 232.825C67.2224 236.119 65.3759 239.088 63.5017 242.031C63.299 242.349 63.096 242.667 62.8929 242.985C61.1186 245.764 59.3405 248.549 57.7501 251.584C54.2019 258.356 51.5891 266.376 51.9923 278.407L52.0046 278.775L52.2489 278.499C61.1221 268.487 73.5096 254.723 86.7305 242.197C99.814 229.802 113.7 218.634 125.794 213.509C125.701 213.633 125.576 213.781 125.419 213.953C125.061 214.345 124.546 214.852 123.891 215.467C122.582 216.698 120.72 218.351 118.448 220.369L118.365 220.443C113.83 224.47 107.686 229.925 101.062 236.323C87.7378 249.195 72.4585 265.895 64.4274 282.478C56.3879 299.072 55.7432 320.318 57.1018 337.399C57.7813 345.942 58.9626 353.449 59.9739 358.821C60.4796 361.507 60.9429 363.659 61.2798 365.14C61.4483 365.881 61.5851 366.453 61.6799 366.841C61.7273 367.035 61.7642 367.183 61.7893 367.282L61.8178 367.394L61.8251 367.423L61.827 367.43L61.8275 367.432C61.8276 367.432 61.8276 367.432 61.9697 367.395L61.8276 367.432L61.8659 367.579L62.0117 367.536C66.3201 366.251 70.3188 364.474 74.2529 362.608C75.1694 362.173 76.0821 361.734 76.9945 361.294C80.0011 359.847 83.0028 358.401 86.1181 357.135C94.1775 353.86 102.979 351.791 114.482 354.04C111.555 357.839 106.915 360.765 101.374 363.242C95.744 365.759 89.2033 367.807 82.6215 369.839L82.65 370.125C104.607 372.34 118.836 370.114 129.153 362.917C139.378 355.785 145.729 343.789 151.973 326.498L151.989 326.56C152.076 326.902 152.205 327.404 152.37 328.044C152.7 329.324 153.173 331.157 153.747 333.368C154.895 337.791 156.448 343.725 158.065 349.772C159.682 355.819 161.364 361.981 162.772 366.857C163.475 369.295 164.11 371.413 164.634 373.035C165.156 374.65 165.573 375.79 165.84 376.259L166.027 376.586L166.111 376.219C166.665 373.798 167.119 371.355 167.494 368.895C166.943 374.632 165.961 380.907 164.156 387.919C162.746 383.423 161.911 379.376 161.075 375.321C160.611 373.075 160.148 370.826 159.585 368.497C157.972 361.82 155.556 354.525 150.028 344.842L149.854 344.537L149.759 344.875C143.651 366.688 124.176 384.702 107.921 393.825C103.859 396.104 100.002 397.826 96.6094 398.913C93.2141 400.001 90.2957 400.449 88.1061 400.191C85.9214 399.934 84.4902 398.981 83.9966 397.286C83.4966 395.569 83.9413 393.045 85.6445 389.612L85.4012 389.452C79.3173 396.601 70.505 401.945 61.1185 405.959C51.7422 409.969 41.8036 412.646 33.4623 414.468C31.0666 414.2 28.8045 413.885 26.6877 413.529C23.098 411.989 20.0663 410.118 19.2035 406.722C31.0528 385.649 34.1259 368.365 34.3859 351.127C38.3302 332.909 42.3985 315.193 55.2795 286.807L55.0348 286.651C45.0411 298.182 38.0822 311.297 33.4423 325.212C32.4387 308.062 31.5742 289.304 35.9106 265.738Z" stroke="#F12C4C" stroke-width="0.29363"/>
<mask id="path-18-inside-2_376_508" fill="white">
<path d="M56.0035 209.645L54.6528 209.475L55.1872 209.833C55.4574 209.769 55.7216 209.71 56.0035 209.645V209.645Z"/>
</mask>
<path d="M54.6528 209.475L54.6896 209.184L54.4893 209.719L54.6528 209.475ZM55.1872 209.833L55.0237 210.077L55.1305 210.149L55.2555 210.119L55.1872 209.833ZM56.0403 209.354L54.6896 209.184L54.6161 209.766L55.9668 209.937L56.0403 209.354ZM54.4893 209.719L55.0237 210.077L55.3507 209.589L54.8163 209.231L54.4893 209.719ZM55.2555 210.119C55.5239 210.055 55.7848 209.997 56.0691 209.932L55.9379 209.359C55.6585 209.423 55.3909 209.483 55.119 209.548L55.2555 210.119Z" fill="#F12C4C" mask="url(#path-18-inside-2_376_508)"/>
<path d="M50.4952 194.102L50.4952 194.102C49.6613 191.151 50.162 188.903 51.4607 186.902C52.7599 184.901 54.8585 183.144 57.2537 181.187H57.2596L57.3002 181.154C58.9621 179.795 64.765 175.945 69.3925 173.304C73.2544 172.511 76.9592 171.939 80.0157 171.547C85.8568 173.317 94.467 175.111 103.344 176.168C92.1639 178.326 78.4005 180.071 61.5399 180.893L61.4311 180.899L61.4047 181.004C60.7111 183.78 60.8837 186.182 61.7536 188.247C62.623 190.311 64.1835 192.026 66.2445 193.44C70.3622 196.265 76.5007 197.906 83.2211 198.732C95.8916 200.289 110.707 198.96 118.164 197.135C99.9117 206.398 72.9682 209.059 53.4935 199.065C52.1545 197.793 51.1539 196.436 50.4952 194.102Z" stroke="#F12C4C" stroke-width="0.29363"/>
<path d="M124.228 153.6L124.231 153.599C135.087 154.116 146.912 151.969 161.108 145.706C145.705 158.652 122.018 166.344 98.1427 162.451C81.8312 157.697 74.8683 149.302 71.9439 143.676C74.3656 146.476 77.1463 148.68 80.3346 150.05L80.3346 150.05L80.3401 150.052C95.254 155.765 110.746 156.595 124.228 153.6Z" stroke="#F12C4C" stroke-width="0.29363"/>
<path d="M89.0406 29.396L89.0527 29.3825C98.7479 21.4957 111.69 16.5879 128.156 13.7038L128.131 13.5592L128.156 13.7038C139.688 11.6826 153.035 10.6937 167.968 10.3073C124.045 20.3452 106.328 48.1406 105.842 72.1743C105.596 84.3184 109.751 95.5006 117.148 102.926C124.531 110.338 135.135 113.998 147.783 111.144C148.307 111.872 148.84 112.619 149.367 113.412C134.208 119.452 121.876 117.517 113.056 110.965C104.196 104.385 98.8533 93.1288 97.7582 80.5448C95.5683 55.3811 110.369 24.9624 147.891 16.2098L147.858 15.92C115.659 15.7524 93.218 27.0383 81.4483 45.2768C69.6804 63.5123 68.6051 88.6611 79.0574 116.17L79.0931 116.264L79.1936 116.265L97.0741 116.402L83.6171 124.549L83.4918 124.625L83.5673 124.75C92.7245 139.967 108.631 142.136 123.838 143.027C114.805 144.189 106.928 144.522 100.152 143.594C80.8223 135.466 71.1615 114.582 69.7792 91.871C68.3965 69.1552 75.3015 44.6642 89.0406 29.396Z" stroke="#F12C4C" stroke-width="0.29363"/>
<path d="M343.263 163.83C341.357 161.093 338.844 158.863 336.007 157.211L336.006 157.211C331.103 154.361 325.304 152.86 318.875 151.732C318.005 151.577 317.112 151.433 316.212 151.294C317.593 150.904 318.957 150.483 320.311 150.048C328.797 149.337 336.754 146.759 344.234 143.271L353.617 150.336C350.99 154.867 348.128 159.089 345.368 162.054C344.687 162.646 343.985 163.238 343.263 163.83Z" stroke="#F12C4C" stroke-width="0.29363"/>
<path d="M199.54 262.922C194.123 261.329 188.749 258.157 183.257 252.77C196.105 261.44 211.67 259.996 225.217 255.483C239.087 250.862 250.878 243.012 255.552 239.43C255.557 239.438 255.563 239.445 255.569 239.453C255.633 239.534 255.728 239.608 255.843 239.676C256.074 239.814 256.419 239.948 256.859 240.074C257.742 240.326 259.043 240.549 260.675 240.669C263.939 240.909 268.542 240.738 273.802 239.551C283.965 237.257 296.584 231.167 306.739 216.91C306.179 217.893 305.639 218.852 305.113 219.786C301.184 226.768 298.018 232.393 292.934 236.575L292.934 236.575C286.697 241.714 276.957 245.487 257.309 246.39L256.158 246.443L256.124 246.445L256.094 246.461L255.084 247.019L255.084 247.019L254.548 247.314C242.266 254.065 229.454 261.107 217.355 263.376C211.219 264.527 205.349 264.631 199.54 262.922Z" stroke="#F12C4C" stroke-width="0.29363"/>
<path d="M204.825 187.609C210.299 185.905 217.339 185.5 226.932 187.479C228.938 190.256 233.018 191.887 237.969 192.779C242.96 193.677 248.877 193.831 254.553 193.622C260.23 193.412 265.673 192.839 269.72 192.281C271.743 192.003 273.418 191.727 274.599 191.503C275.189 191.391 275.658 191.291 275.985 191.21C276.086 191.185 276.175 191.161 276.25 191.139C274.959 195.518 274.778 198.868 275.55 202.065L275.128 208.08C252.552 204.847 238.247 213.664 225.247 221.676C223.348 222.846 221.478 223.999 219.613 225.094C212.28 229.404 205.047 232.828 196.58 232.973C188.115 233.119 178.392 229.988 166.083 221.136L165.999 221.076L165.914 221.135C165.24 221.603 164.824 222.561 164.606 223.825C164.386 225.096 164.363 226.713 164.508 228.547C164.778 231.957 165.634 236.14 166.93 240.294C163.913 235.906 160.952 231.292 158.701 227.137C157.506 224.93 156.513 222.856 155.819 221.015C155.124 219.172 154.734 217.574 154.734 216.317V216.295L154.727 216.274C154.43 215.293 154.573 214.353 155.127 213.492C155.684 212.627 156.663 211.835 158.048 211.175C160.819 209.854 165.177 209.076 170.879 209.258C175.902 209.419 179.523 207.621 182.727 204.97C184.327 203.647 185.823 202.11 187.336 200.501C187.644 200.174 187.952 199.844 188.262 199.512C189.48 198.209 190.724 196.876 192.062 195.579C195.415 192.329 199.341 189.315 204.825 187.609ZM199.938 179.379C208.932 178.236 217.988 179.637 226.231 186.838C213.384 181.208 205.767 180.282 198.734 182.342C195.147 183.393 191.72 185.219 187.837 187.575C186.328 188.491 184.752 189.486 183.07 190.547C180.42 192.219 177.509 194.057 174.184 196.012C160.633 201.258 151.886 199.285 147.248 193.395C142.699 187.617 142.047 178.01 144.779 167.522C144.847 174.412 145.604 179.49 146.949 183.143C148.35 186.95 150.394 189.217 152.967 190.365C155.534 191.51 158.603 191.529 162.037 190.891C165.471 190.253 169.288 188.955 173.358 187.445C174.531 187.01 175.726 186.558 176.939 186.098C184.151 183.365 192.015 180.386 199.938 179.379Z" stroke="#F12C4C" stroke-width="0.29363"/>
<mask id="path-26-inside-3_376_508" fill="white">
<path d="M297.097 164.955C298.924 164.837 300.955 164.873 303.099 165.02C300.938 164.785 298.935 164.773 297.097 164.955Z"/>
</mask>
<path d="M297.097 164.955L297.068 164.663L297.116 165.248L297.097 164.955ZM303.099 165.02L303.079 165.312L303.131 164.728L303.099 165.02ZM297.116 165.248C298.926 165.132 300.944 165.166 303.079 165.312L303.119 164.727C300.967 164.579 298.921 164.543 297.078 164.662L297.116 165.248ZM303.131 164.728C300.951 164.491 298.928 164.478 297.068 164.663L297.126 165.247C298.942 165.067 300.924 165.078 303.067 165.311L303.131 164.728Z" fill="#F12C4C" mask="url(#path-26-inside-3_376_508)"/>
<path d="M299.847 212.793L299.819 212.785C289.25 207.981 282.861 198.364 281.161 189.005C279.528 180.012 282.224 171.295 289.65 167.285C284.615 172.548 284.212 179.665 285.242 185.314C285.766 188.189 286.663 190.693 287.52 192.395C287.947 193.244 288.368 193.901 288.733 194.303C288.913 194.503 289.09 194.652 289.257 194.725C289.341 194.762 289.431 194.782 289.52 194.773C289.613 194.763 289.694 194.723 289.761 194.657L289.774 194.643L289.784 194.626C292.849 189.315 295.925 186.719 298.57 185.931C301.202 185.148 303.435 186.146 304.862 188.102C307.727 192.026 307.337 199.82 300.186 204.673L300.128 204.713L300.122 204.783C300.01 206.255 300.655 207.883 301.658 209.434C302.6 210.892 303.868 212.3 305.161 213.475C303.464 213.567 301.68 213.339 299.847 212.793Z" stroke="#F12C4C" stroke-width="0.29363"/>
<path d="M261.626 151.784C264.501 153.204 267.528 154.379 270.793 155.196C268.241 161.484 268.66 166.251 270.149 169.733C271.516 172.928 273.776 175.026 275.432 176.222C263.668 174.873 256.11 162.557 261.626 151.784Z" stroke="#F12C4C" stroke-width="0.29363"/>
<path d="M142.644 52.2895C136.126 59.1191 130.564 66.9829 126.17 75.9641C123.417 65.2221 126.482 53.0992 135.261 41.771C135.391 41.9561 135.523 42.1424 135.655 42.3297C137.885 45.4875 140.328 48.9463 142.644 52.2895Z" stroke="#F12C4C" stroke-width="0.29363"/>
<path d="M274.579 11.9817C267.092 16.5969 257.267 22.4211 245.509 28.5392L245.509 28.5392C242.911 29.8927 240.233 31.2504 237.491 32.6018L260.838 15.7689L261.174 15.5264L260.76 15.5033C216.725 13.0464 173.327 22.5718 145.472 49.4269C144.71 46.7749 144.085 44.6062 143.506 42.5938C142.768 40.0272 142.102 37.715 141.316 34.9789C151.351 25.1194 166.053 16.2948 185.288 10.1179C201.52 10.1292 219.275 10.6026 238.338 11.1108C249.949 11.4203 262.046 11.7428 274.579 11.9817Z" stroke="#F12C4C" stroke-width="0.29363"/>
<path d="M346.426 138.039C355.123 132.726 363.162 126.383 370.531 119.188C368.835 129.051 365.813 138.316 358.829 147.812C362.158 141.276 365.207 134.52 366.269 126.338L366.32 125.949L366.026 126.209C359.685 131.828 353.082 135.123 346.426 138.039Z" stroke="#F12C4C" stroke-width="0.29363"/>
<path d="M338.311 201.876C338.456 201.854 338.456 201.854 338.456 201.853L338.456 201.852L338.455 201.849L338.453 201.834L338.444 201.778C338.437 201.728 338.425 201.653 338.41 201.556C338.379 201.362 338.333 201.076 338.272 200.712C338.151 199.983 337.972 198.938 337.74 197.67C337.277 195.136 336.601 191.715 335.754 188.167C334.907 184.62 333.888 180.943 332.735 177.899C332.159 176.377 331.549 175.01 330.908 173.895C330.269 172.783 329.594 171.911 328.884 171.39C327.369 170.278 324.203 169.043 320.309 167.944C316.408 166.844 311.754 165.874 307.243 165.297C300.601 164.167 293.967 164.287 288.561 165.643C283.465 166.92 279.434 169.304 277.538 172.802C277.708 170.419 278.345 167.465 280.148 164.844C282.129 161.964 285.529 159.471 291.309 158.59C294.54 158.988 297.68 159.337 300.7 159.672C306.727 160.341 312.276 160.957 317.109 161.805C322.989 162.838 327.736 164.232 330.873 166.057L330.873 166.057C332.42 166.956 333.585 167.867 334.464 168.95C335.342 170.029 335.942 171.287 336.352 172.886C337.166 179.716 339.013 186.318 340.573 191.891C340.839 192.844 341.098 193.767 341.341 194.656C342.192 197.769 342.847 200.467 343.087 202.318C343.166 202.938 343.2 203.217 343.214 203.362C343.222 203.442 343.224 203.478 343.225 203.51C339.886 205.545 334.897 207.43 329.828 208.85L338.403 201.991L338.469 201.938L338.456 201.854L338.311 201.876Z" stroke="#F12C4C" stroke-width="0.29363"/>
<path d="M164.365 145.758C165.378 146.066 166.365 146.47 167.345 146.912C165.438 149.03 163.546 151.358 161.66 153.924C162.15 151.024 163.108 148.319 164.365 145.758Z" stroke="#F12C4C" stroke-width="0.29363"/>
<mask id="path-35-inside-4_376_508" fill="white">
<path d="M160.694 110.04C160.682 110.105 160.67 110.169 160.659 110.234L161.164 110.187C160.993 110.134 160.829 110.087 160.694 110.04Z"/>
</mask>
<path d="M160.694 110.04L160.79 109.763L160.466 109.65L160.405 109.988L160.694 110.04ZM160.659 110.234L160.37 110.181L160.301 110.562L160.686 110.526L160.659 110.234ZM161.164 110.187L161.191 110.479L161.251 109.907L161.164 110.187ZM160.405 109.988C160.399 110.02 160.393 110.052 160.387 110.085C160.382 110.117 160.376 110.149 160.37 110.181L160.948 110.287C160.953 110.254 160.959 110.222 160.965 110.19C160.971 110.157 160.977 110.125 160.983 110.093L160.405 109.988ZM160.686 110.526L161.191 110.479L161.137 109.895L160.631 109.942L160.686 110.526ZM161.251 109.907C161.071 109.851 160.919 109.808 160.79 109.763L160.597 110.318C160.739 110.367 160.916 110.418 161.077 110.467L161.251 109.907Z" fill="#F12C4C" mask="url(#path-35-inside-4_376_508)"/>
<path d="M165.551 140.677C163.433 140.04 161.251 139.894 158.9 140.864C156.808 139.874 156.033 137.474 156.043 134.236C158.985 130.141 161.09 125.542 162.155 120.514C166.836 119.928 171.635 120.584 176.503 121.771C176.495 123.353 176.334 124.852 176.101 125.924L176.101 125.924C175.898 126.873 175.365 128.734 174.65 130.769L174.901 130.912C176.406 129.111 177.89 127.33 179.243 125.554L179.443 125.55L180.184 125.536C180.811 125.525 181.683 125.509 182.657 125.491C184.598 125.456 186.948 125.415 188.602 125.391C190.809 126.105 193.011 126.808 195.214 127.441C198.798 128.472 202.39 129.216 205.891 129.792C193.348 128.994 181.967 132.678 171.09 143.056C170.816 142.926 170.543 142.795 170.27 142.664C169.176 142.138 168.085 141.614 166.988 141.182C167.007 141.153 167.026 141.124 167.045 141.095C167.228 140.815 167.411 140.535 167.598 140.261L167.86 139.879L167.426 140.041C166.769 140.286 166.14 140.498 165.551 140.677ZM249.454 144.276C236.626 137.971 225.034 133.115 214.315 130.939C215.617 131.089 216.892 131.228 218.133 131.364C218.402 131.393 218.67 131.422 218.936 131.452C222.509 131.843 225.787 132.216 228.627 132.755C231.469 133.294 233.859 133.996 235.661 135.038L235.726 134.926L235.661 135.038C239.664 137.351 243.375 139.978 247.054 142.583C247.855 143.15 248.654 143.715 249.454 144.276Z" stroke="#F12C4C" stroke-width="0.29363"/>
<path d="M248.985 163.207C231.671 172.665 214.806 172.556 199.381 171.607C197.716 171.504 196.068 171.392 194.438 171.281C188.394 170.869 182.594 170.474 177.115 170.658C170.241 170.889 163.855 172.03 158.095 175.199C158.096 175.112 158.099 175.004 158.105 174.877C158.121 174.51 158.156 173.982 158.233 173.341C158.389 172.059 158.714 170.326 159.395 168.521C160.718 165.011 163.377 161.238 168.732 159.956L168.908 159.995L180.355 162.537C180.395 162.548 180.427 162.558 180.457 162.57L180.457 162.571L180.464 162.573C180.657 162.644 180.938 162.757 181.288 162.897C181.37 162.93 181.457 162.965 181.547 163.001C182.487 163.377 183.81 163.894 185.427 164.476L185.428 164.477C188.643 165.626 193.036 167.031 198.185 168.122V168.128L198.302 168.152C208.696 170.339 222.307 171.319 235.566 166.018L248.985 163.207Z" stroke="#F12C4C" stroke-width="0.29363"/>
<mask id="path-39-inside-5_376_508" fill="white">
<path d="M180.368 162.383C180.215 162.336 180.115 162.324 180.368 162.383V162.383Z"/>
</mask>
<path d="M180.454 162.102C180.379 162.079 180.292 162.056 180.25 162.051C180.247 162.051 180.228 162.049 180.204 162.049C180.199 162.05 180.156 162.05 180.106 162.07C180.081 162.079 180.015 162.109 179.967 162.184C179.906 162.278 179.912 162.381 179.941 162.453C179.964 162.511 180 162.546 180.013 162.558C180.03 162.574 180.045 162.584 180.054 162.59C180.07 162.6 180.085 162.607 180.09 162.61C180.103 162.616 180.114 162.62 180.118 162.621C180.134 162.627 180.151 162.632 180.163 162.635C180.192 162.642 180.237 162.654 180.301 162.669L180.434 162.097C180.372 162.082 180.335 162.073 180.316 162.068C180.304 162.065 180.307 162.065 180.315 162.068C180.317 162.069 180.326 162.072 180.338 162.077C180.343 162.08 180.357 162.086 180.374 162.097C180.382 162.102 180.397 162.113 180.414 162.128C180.427 162.141 180.462 162.175 180.486 162.233C180.515 162.305 180.521 162.408 180.46 162.502C180.412 162.577 180.345 162.607 180.321 162.616C180.271 162.636 180.228 162.636 180.224 162.636C180.201 162.637 180.183 162.635 180.181 162.635C180.164 162.633 180.204 162.639 180.281 162.663L180.454 162.102Z" fill="#F12C4C" mask="url(#path-39-inside-5_376_508)"/>
<path d="M287.015 294.206C293.11 305.248 298.838 321.607 303.476 344.033C294.456 312.296 279.303 285.581 268.959 270.225C275.329 276.834 281.411 284.054 287.015 294.206Z" stroke="#F12C4C" stroke-width="0.29363"/>
<path d="M248.741 276.741C261.728 293.63 270.326 313.531 274.59 332.417C267.49 313.105 259.174 294.394 248.741 276.741Z" stroke="#F12C4C" stroke-width="0.29363"/>
<path d="M236.713 322.48C241.008 328.087 244.852 333.258 247.216 338.842C243.74 339.86 240.378 340.382 236.983 339.581C235.167 339.15 232.394 338.184 229.283 336.712C234.153 338.285 239.14 338.811 244.515 337.192L244.688 337.14L244.601 336.981L236.713 322.48Z" stroke="#F12C4C" stroke-width="0.29363"/>
<path d="M214.84 370.49H214.987L214.987 370.353C218.98 359.483 218.087 351.983 217.198 344.517C217.05 343.28 216.903 342.043 216.778 340.792C220.8 358.466 223.712 378.763 209.181 397.692C209.045 397.263 208.909 396.835 208.773 396.406C204.095 381.666 199.244 366.383 188.404 353.47C199.646 363.396 206.891 378.165 211.229 387.962L211.431 388.417L211.508 387.925C214.39 369.744 212.138 356.231 206.475 342.826C208.723 345.798 210.677 348.856 212.115 352.814C213.701 357.177 214.663 362.643 214.693 370.302L214.624 370.49H214.834H214.84Z" stroke="#F12C4C" stroke-width="0.29363"/>
<path d="M172.443 390.794L172.402 390.974H172.586H172.592H172.643L172.682 390.943C173.436 390.356 174.148 389.407 174.813 388.2C175.48 386.992 176.106 385.514 176.684 383.857C177.721 380.884 178.609 377.327 179.305 373.696C179.889 388.477 176.617 397.396 171.623 403.288L171.623 403.288C166.579 409.239 158.65 412.381 149.839 414.974C151.215 409.232 151.818 403.175 152.067 397.705L152.067 397.704C152.16 395.618 152.203 393.621 152.214 391.789C152.827 395.462 153.564 399.802 154.519 405.305L154.558 405.534L154.748 405.399C162.662 399.781 167.592 393.779 170.256 386.143C172.772 378.927 173.262 370.265 172.357 359.111C174.343 367.555 175.718 376.654 172.443 390.794Z" stroke="#F12C4C" stroke-width="0.29363"/>
<path d="M66.6509 414.934L66.6508 414.934C64.0529 415.131 61.4735 415.268 58.9306 415.354C59.2649 415.294 59.599 415.234 59.9331 415.174C90.2415 409.734 119.903 404.411 142.822 378.503L142.294 379.519C136.417 390.797 125.239 399.07 111.654 404.816C98.071 410.561 82.0964 413.772 66.6509 414.934Z" stroke="#F12C4C" stroke-width="0.29363"/>
<path d="M34.0962 351.079L34.0931 351.094L34.0929 351.108C33.8289 368.318 30.7682 385.576 18.9193 406.629L19.0472 406.701L18.9047 406.736C19.7042 409.966 22.3606 411.855 25.5241 413.331C23.8767 413.034 22.3398 412.705 20.9133 412.361L13.6573 410.05C14.1562 408.8 14.6231 407.555 15.0736 406.317C29.9743 385.049 29.8526 364.097 28.5312 343.443L28.5312 343.443C27.0231 320.094 28.3956 295.472 35.0188 267.764C35.1436 267.508 35.2673 267.249 35.3876 266.983C31.2493 290.328 32.197 308.95 33.1946 325.996L33.4807 326.033C38.0068 312.191 44.8095 299.131 54.5899 287.62C42.0264 315.496 38.0002 333.047 34.0962 351.079Z" stroke="#F12C4C" stroke-width="0.29363"/>
<path d="M52.6284 198.622C50.0697 197.243 47.6481 195.644 45.4018 193.8C43.8392 190.891 43.6734 188.356 44.5021 186.142C45.3356 183.915 47.1836 181.989 49.6881 180.328C54.487 177.144 61.6421 174.967 68.4625 173.504C63.9773 176.118 58.6964 179.634 57.1088 180.932C54.7053 182.896 52.5509 184.69 51.2148 186.748C49.8738 188.814 49.3578 191.144 50.2074 194.168V194.174L50.213 194.193C50.7746 196.184 51.5834 197.491 52.6284 198.622Z" stroke="#F12C4C" stroke-width="0.29363"/>
<path d="M72.4543 158.628C69.5845 153.072 69.1524 149.15 69.6553 145.95L69.6553 145.95C69.852 144.683 70.2445 143.459 70.7718 142.244C70.8514 142.346 70.9314 142.447 71.0103 142.546C71.0538 142.6 71.0969 142.654 71.1395 142.708C73.6314 148.103 79.9714 156.82 95.7981 162.036C88.9079 160.692 82.0216 158.377 75.3388 154.912L75.2445 154.863L75.1686 154.937C73.9126 156.165 73.032 157.393 72.4543 158.628Z" stroke="#F12C4C" stroke-width="0.29363"/>
<path d="M75.626 127.34C70.1499 117.382 67.2888 102.252 66.8327 80.0743C68.6054 58.027 74.8098 43.3678 84.8363 33.2066C85.7111 32.3241 86.6165 31.4723 87.5543 30.6512C74.5962 46.0629 68.1439 69.8206 69.4878 91.8874C70.8503 114.26 80.2318 134.945 99.0364 143.423C88.6401 141.756 80.9119 136.952 75.626 127.34Z" stroke="#F12C4C" stroke-width="0.29363"/>
<path d="M251.426 18.8637C241.934 24.1446 234.515 28.1901 225.528 33.091C224.781 33.4981 224.024 33.9112 223.253 34.3313L230.582 21.7557C237.425 20.6036 244.399 19.6799 251.426 18.8637Z" stroke="#F12C4C" stroke-width="0.29363"/>
<mask id="path-52-inside-6_376_508" fill="white">
<path d="M373.764 100.867C349.405 130.16 316.994 148.13 274.3 145.669C263.635 143.361 254.527 134.294 240.708 126.307C230.255 120.264 217.042 115.42 198.854 115.907C192.794 116.071 169.497 108.202 162.251 109.7L162.174 110.087L161.158 110.187L160.653 110.234L159.526 110.34C154.857 104.179 151.351 95.9929 151.204 88.3586C151.051 80.6654 153.823 73.5361 162.615 67.5049C192.553 64.4218 224.882 50.633 250.158 37.4783C275.897 24.0829 294.308 11.3218 294.308 11.3218L307.134 2.43063L291.53 2.27207C256.899 1.92559 225.692 0.533781 198.115 0.116826C194.667 0.0639727 191.273 0.0287369 187.937 0.0111191C185.019 -0.000626073 182.147 -0.00649867 179.316 0.0111191C159.502 0.116826 141.837 1.07406 126.398 3.78133C106.238 7.31664 89.6534 13.9644 77.6498 26.1325C65.6462 38.3005 58.6696 55.6775 56.7727 79.2795C56.2207 89.2336 57.4481 114.139 65.0531 131.916C62.6453 135.41 60.4666 139.433 59.6855 144.389C59.5504 145.241 59.3743 146.057 59.1864 146.856C58.834 151.671 59.8793 156.992 64.1428 161.678C64.1428 161.678 35.4552 172.349 27.6329 194.952C27.6329 194.952 33.7169 202.774 51.1057 207.12L54.641 209.481L55.9917 209.651C55.7098 209.716 55.4514 209.775 55.1754 209.839L56.3205 210.603C56.3205 210.603 9.66857 237.552 14.7425 325.359C14.8893 327.908 14.9833 330.245 15.0303 332.406C15.2182 333.798 15.3709 335.213 15.459 336.664C16.9036 359.256 20.4976 385.401 2.3102 406.601L0.947754 408.192L1.14155 410.277C1.37058 412.802 2.78001 414.717 4.2599 416.044C5.7398 417.377 7.43698 418.334 9.37494 419.209C13.2509 420.953 18.1721 422.275 24.0271 423.314C35.7429 425.393 51.1291 426.215 67.4021 424.988C74.6313 424.442 82.0484 423.496 89.3833 422.046L133.322 437.502L259.548 404.181C266.477 402.789 270.823 401.204 270.823 401.204C272.221 400.558 273.472 399.906 274.605 399.237L311.967 388.819C312.184 388.86 312.372 388.795 312.525 388.636L320.318 386.904C315.361 336.646 306.652 308.928 295.829 289.337C287.337 273.95 277.718 264.554 268.545 255.528C282.997 253.778 292.522 249.978 299.335 244.37C307.087 237.992 310.951 229.97 315.525 221.86C317.305 221.649 320.67 221.32 326.948 219.952C334.664 218.272 343.802 215.8 350.45 211.055L351.184 210.532L351.689 209.78C353.697 206.78 353.445 203.843 353.075 201.024C352.711 198.206 351.936 195.228 351.049 192.004C349.516 186.402 347.631 180.083 346.662 174.005C376.348 150.737 380.353 127.717 382.514 104.514L384 88.5524L373.752 100.879L373.764 100.867ZM45.2918 193.883C38.9259 182.091 55.1636 176.089 69.3401 173.159C73.2277 172.354 76.9627 171.785 80.0282 171.391C86.0653 173.224 95.0856 175.085 104.3 176.125C92.9479 178.374 78.8831 180.194 61.5471 181.034C56.0445 203.033 105.603 200.619 119.404 196.649C101.111 206.421 73.3569 209.428 53.4077 199.18C50.5184 197.695 47.7935 195.939 45.2859 193.877L45.2918 193.883ZM182.488 9.97105C183.404 9.97105 184.343 9.97105 185.271 9.97105C211.522 9.98867 241.771 11.216 275.087 11.8444C267.546 16.5073 257.569 22.4327 245.583 28.6694C242.494 30.2785 239.293 31.8935 236.005 33.4967C222.621 40.0212 207.798 46.3166 192.976 50.9325C201.667 46.2872 209.924 41.5304 218.815 36.6855L222.709 23.0493C185.952 30.3666 154.135 45.7704 141.285 88.5524C140.158 101.043 143.758 105.325 147.845 110.986C148.421 111.784 149.008 112.607 149.589 113.487C88.4906 138.041 72.6581 33.6142 147.857 16.0727C83.5283 15.7321 58.3113 61.1625 79.1943 116.124L97.5932 116.265L83.6927 124.681C93.1182 140.337 109.726 142.128 125.4 142.974C115.704 144.301 107.301 144.73 100.113 143.743C78.1314 140.73 67.5959 124.457 66.6915 80.0723V80.0841C68.4592 58.0031 74.6783 43.3098 84.7322 33.115C86.0535 31.776 87.4571 30.5075 88.9311 29.3095C98.6502 21.3874 111.635 16.472 128.131 13.5768C140.058 11.4862 153.923 10.4937 169.468 10.1414C173.69 10.0474 178.03 9.99454 182.493 9.9828L182.488 9.97105ZM251.608 299.185C251.608 299.185 256.365 316.38 256.365 330.65C251.655 314.747 242.828 298.739 235.717 287.422C238.042 287.915 240.808 288.133 244.291 288.209C238.048 279.559 240.75 274.479 241.19 268.495C241.208 268.219 241.225 267.937 241.237 267.655C243.398 269.969 245.465 272.365 247.433 274.825C261.732 292.737 270.97 314.289 275.198 334.497C277.101 343.582 277.988 352.391 277.876 360.471C277.829 363.883 277.618 367.166 277.213 370.279C277.148 370.801 277.078 371.306 277.019 371.8C277.13 346.947 266.983 319.064 251.608 299.191V299.185ZM257.322 246.543L256.171 246.596L255.161 247.154C242.723 253.989 229.691 261.219 217.388 263.527C205.085 265.834 193.81 263.949 181.965 251.676C208.057 271.096 246.54 246.208 255.637 239.19C255.208 240.993 287.084 245.956 307.691 215.289C307.733 215.312 307.768 215.342 307.809 215.365C302.559 224.45 299.194 231.627 293.039 236.695C286.767 241.857 276.989 245.633 257.328 246.543H257.322ZM69.2168 232.361C62.569 246.431 51.3406 254.401 52.1451 278.408C69.8862 258.382 101.71 223.334 126.134 213.216C125.617 215.806 80.6037 249.432 64.5657 282.548C48.5276 315.664 61.9758 367.401 61.9758 367.401C79.1649 362.274 91.4446 349.29 114.747 353.947C108.869 361.787 95.8314 365.921 82.6709 369.985C126.563 374.413 139.406 361.065 152.003 326.005C152.003 326.005 163.901 372.569 165.974 376.192C166.943 371.958 167.606 367.66 168.07 363.314C169.051 354.153 169.145 344.803 169.309 335.531C169.732 311.805 170.642 288.573 188.143 270.215C175.258 304.735 177.672 326.076 199.342 354.329C193.44 341.027 188.642 301.593 195.466 305.31C196.887 320.685 199.994 322.57 202.707 327.556C201.673 316.174 202.255 303.108 205.297 294.44C212.297 308.141 222.462 322.916 232.199 327.033C225.545 315.123 222.791 306.244 221.934 298.838C222.086 299.22 222.239 299.596 222.398 299.972C224.465 304.858 227.084 309.192 229.874 313.109C231.817 315.846 233.785 318.412 235.682 320.89C240.468 327.133 244.831 332.776 247.409 338.925C243.868 339.976 240.427 340.534 236.944 339.712C234.689 339.183 230.989 337.827 226.984 335.718C222.204 333.199 216.995 329.593 213.313 324.966C214.164 329.27 215.321 333.874 216.449 338.696C220.701 356.913 224.465 378.207 209.126 397.986C204.11 382.212 199.142 365.733 187.045 352.103C186.575 351.569 186.111 351.034 185.618 350.512L173.955 338.179L177.126 354.851C178.383 361.452 179.105 367.266 179.375 372.393C180.203 387.961 176.885 397.263 171.717 403.359C166.596 409.396 158.527 412.55 149.619 415.163C151.034 409.361 151.65 403.218 151.903 397.674C152.026 394.897 152.062 392.277 152.05 389.993C152.026 384.937 151.768 381.501 151.768 381.501L150.488 364.071L143.505 377.467L142.413 379.569C130.615 402.208 97.5697 412.738 66.6504 415.063C63.3911 415.31 60.1612 415.463 56.9959 415.539C48.4865 415.744 40.441 415.38 33.4585 414.599C31.0448 414.329 28.7663 414.012 26.6345 413.654C26.3468 413.607 26.0473 413.56 25.7595 413.507C24.0036 413.196 22.371 412.849 20.8617 412.485C17.7786 411.745 15.2299 410.923 13.4505 410.124C12.9455 409.895 12.8515 409.766 12.4815 409.555C13.3448 408.445 14.1494 407.335 14.9245 406.225C29.8116 384.995 29.6883 364.083 28.3669 343.429C26.8577 320.056 28.2319 295.421 34.862 267.69C35.138 267.138 35.4023 266.569 35.6313 265.958C35.6666 265.87 35.7077 265.776 35.7488 265.688C38.6734 258.37 47.5175 249.702 55.3809 243.037C59.6209 240.112 63.6437 236.43 69.1991 232.343L69.2168 232.361ZM292.059 353.219C291.6 362.339 289.78 371.177 285.975 379.37C286.344 377.032 286.685 374.448 287.055 371.553C289.985 348.832 284.894 320.091 271.516 293.864C267.576 282.994 261.075 268.019 258.602 259.686C259.031 260.115 259.46 260.537 259.888 260.966C262.59 263.644 265.262 266.246 267.887 268.923C274.687 275.871 281.182 283.352 287.137 294.14C293.509 305.674 299.464 322.993 304.203 346.923C304.05 346.465 303.892 346.007 303.733 345.543C299.194 332.295 293.098 317.848 285.622 305.046C289.569 320.608 292.851 337.339 292.053 353.225L292.059 353.219ZM329.179 209.176L338.311 201.87C338.311 201.87 334.288 175.531 328.798 171.503C325.814 169.312 316.224 166.587 307.222 165.436C305.824 165.26 304.444 165.113 303.099 165.02C300.956 164.867 298.924 164.837 297.097 164.955C294.284 165.131 291.97 165.66 290.567 166.664C290.367 166.805 290.185 166.957 290.021 167.116C279.544 177.593 288.259 195.95 289.657 194.553C301.948 173.253 314.692 195.005 300.268 204.795C300.051 207.643 302.77 211.172 305.519 213.598C303.698 213.744 301.784 213.521 299.804 212.934C292.199 210.679 283.719 203.103 276.484 190.894C275.11 195.404 274.916 198.816 275.703 202.058C276.244 204.29 277.254 206.445 278.681 208.823C277.518 208.6 276.385 208.418 275.269 208.254C223.455 200.719 215.298 256.714 166.003 221.261C163.507 222.988 164.453 232.29 167.377 241.199C160.959 231.938 154.593 221.461 154.593 216.323C153.354 212.229 159.461 208.753 170.889 209.117C190.803 209.751 188.466 179.366 227.025 187.353C200.323 175.432 196 183.365 174.254 196.15C147.087 206.668 138.925 188.328 144.838 166.758C144.868 166.728 144.897 166.699 144.926 166.67C154.299 157.561 161.98 145.17 161.98 145.17C146.571 158.542 122.44 166.576 98.1158 162.606C90.4345 161.349 82.7296 158.912 75.2773 155.048C73.9383 156.357 73.0398 157.661 72.4702 158.971C69.4693 153.257 68.9995 149.222 69.5163 145.934C69.7277 144.571 70.1622 143.262 70.7436 141.964C70.9198 142.193 71.096 142.422 71.278 142.645C73.8679 145.875 76.8805 148.406 80.3982 149.921C95.2852 155.623 110.748 156.445 124.202 153.462C137.615 150.485 149.037 143.714 155.896 134.194C158.862 130.078 160.976 125.45 162.033 120.388C166.802 119.777 171.7 120.446 176.65 121.662C180.62 122.637 184.625 123.952 188.63 125.25C190.844 125.967 193.052 126.671 195.26 127.306C211.774 132.051 228.446 130.694 235.74 134.917C241.208 138.076 246.129 141.823 251.162 145.288C254.521 147.601 257.933 149.78 261.574 151.595C264.528 153.063 267.64 154.273 271.005 155.101C265.779 167.768 272.673 174.204 275.991 176.43C276.937 177.064 277.594 177.364 277.594 177.364C277.594 177.364 277.283 175.772 277.365 173.505C277.541 168.502 279.661 160.21 291.319 158.442C300.997 159.634 309.882 160.386 317.146 161.66C323.031 162.688 327.793 164.092 330.959 165.93C334.071 167.739 335.68 169.618 336.508 172.859C337.46 180.846 339.826 188.528 341.494 194.617C342.346 197.724 343.003 200.437 343.244 202.299C343.409 203.532 343.379 203.42 343.385 203.591C339.879 205.746 334.535 207.731 329.191 209.181L329.179 209.176ZM345.47 162.154C344.742 162.782 343.996 163.41 343.232 164.039C341.336 161.261 338.804 159 335.933 157.332C331.053 154.496 325.268 152.998 318.849 151.871C317.757 151.677 316.641 151.501 315.514 151.33C317.123 150.884 318.708 150.403 320.282 149.898C328.821 147.143 336.866 143.491 344.43 139.057C353.985 133.448 362.765 126.607 370.751 118.761C368.99 129.273 365.771 139.104 357.932 149.24C354.66 153.468 350.585 157.749 345.476 162.154H345.47Z"/>
</mask>
<path d="M373.764 100.867C349.405 130.16 316.994 148.13 274.3 145.669C263.635 143.361 254.527 134.294 240.708 126.307C230.255 120.264 217.042 115.42 198.854 115.907C192.794 116.071 169.497 108.202 162.251 109.7L162.174 110.087L161.158 110.187L160.653 110.234L159.526 110.34C154.857 104.179 151.351 95.9929 151.204 88.3586C151.051 80.6654 153.823 73.5361 162.615 67.5049C192.553 64.4218 224.882 50.633 250.158 37.4783C275.897 24.0829 294.308 11.3218 294.308 11.3218L307.134 2.43063L291.53 2.27207C256.899 1.92559 225.692 0.533781 198.115 0.116826C194.667 0.0639727 191.273 0.0287369 187.937 0.0111191C185.019 -0.000626073 182.147 -0.00649867 179.316 0.0111191C159.502 0.116826 141.837 1.07406 126.398 3.78133C106.238 7.31664 89.6534 13.9644 77.6498 26.1325C65.6462 38.3005 58.6696 55.6775 56.7727 79.2795C56.2207 89.2336 57.4481 114.139 65.0531 131.916C62.6453 135.41 60.4666 139.433 59.6855 144.389C59.5504 145.241 59.3743 146.057 59.1864 146.856C58.834 151.671 59.8793 156.992 64.1428 161.678C64.1428 161.678 35.4552 172.349 27.6329 194.952C27.6329 194.952 33.7169 202.774 51.1057 207.12L54.641 209.481L55.9917 209.651C55.7098 209.716 55.4514 209.775 55.1754 209.839L56.3205 210.603C56.3205 210.603 9.66857 237.552 14.7425 325.359C14.8893 327.908 14.9833 330.245 15.0303 332.406C15.2182 333.798 15.3709 335.213 15.459 336.664C16.9036 359.256 20.4976 385.401 2.3102 406.601L0.947754 408.192L1.14155 410.277C1.37058 412.802 2.78001 414.717 4.2599 416.044C5.7398 417.377 7.43698 418.334 9.37494 419.209C13.2509 420.953 18.1721 422.275 24.0271 423.314C35.7429 425.393 51.1291 426.215 67.4021 424.988C74.6313 424.442 82.0484 423.496 89.3833 422.046L133.322 437.502L259.548 404.181C266.477 402.789 270.823 401.204 270.823 401.204C272.221 400.558 273.472 399.906 274.605 399.237L311.967 388.819C312.184 388.86 312.372 388.795 312.525 388.636L320.318 386.904C315.361 336.646 306.652 308.928 295.829 289.337C287.337 273.95 277.718 264.554 268.545 255.528C282.997 253.778 292.522 249.978 299.335 244.37C307.087 237.992 310.951 229.97 315.525 221.86C317.305 221.649 320.67 221.32 326.948 219.952C334.664 218.272 343.802 215.8 350.45 211.055L351.184 210.532L351.689 209.78C353.697 206.78 353.445 203.843 353.075 201.024C352.711 198.206 351.936 195.228 351.049 192.004C349.516 186.402 347.631 180.083 346.662 174.005C376.348 150.737 380.353 127.717 382.514 104.514L384 88.5524L373.752 100.879L373.764 100.867ZM45.2918 193.883C38.9259 182.091 55.1636 176.089 69.3401 173.159C73.2277 172.354 76.9627 171.785 80.0282 171.391C86.0653 173.224 95.0856 175.085 104.3 176.125C92.9479 178.374 78.8831 180.194 61.5471 181.034C56.0445 203.033 105.603 200.619 119.404 196.649C101.111 206.421 73.3569 209.428 53.4077 199.18C50.5184 197.695 47.7935 195.939 45.2859 193.877L45.2918 193.883ZM182.488 9.97105C183.404 9.97105 184.343 9.97105 185.271 9.97105C211.522 9.98867 241.771 11.216 275.087 11.8444C267.546 16.5073 257.569 22.4327 245.583 28.6694C242.494 30.2785 239.293 31.8935 236.005 33.4967C222.621 40.0212 207.798 46.3166 192.976 50.9325C201.667 46.2872 209.924 41.5304 218.815 36.6855L222.709 23.0493C185.952 30.3666 154.135 45.7704 141.285 88.5524C140.158 101.043 143.758 105.325 147.845 110.986C148.421 111.784 149.008 112.607 149.589 113.487C88.4906 138.041 72.6581 33.6142 147.857 16.0727C83.5283 15.7321 58.3113 61.1625 79.1943 116.124L97.5932 116.265L83.6927 124.681C93.1182 140.337 109.726 142.128 125.4 142.974C115.704 144.301 107.301 144.73 100.113 143.743C78.1314 140.73 67.5959 124.457 66.6915 80.0723V80.0841C68.4592 58.0031 74.6783 43.3098 84.7322 33.115C86.0535 31.776 87.4571 30.5075 88.9311 29.3095C98.6502 21.3874 111.635 16.472 128.131 13.5768C140.058 11.4862 153.923 10.4937 169.468 10.1414C173.69 10.0474 178.03 9.99454 182.493 9.9828L182.488 9.97105ZM251.608 299.185C251.608 299.185 256.365 316.38 256.365 330.65C251.655 314.747 242.828 298.739 235.717 287.422C238.042 287.915 240.808 288.133 244.291 288.209C238.048 279.559 240.75 274.479 241.19 268.495C241.208 268.219 241.225 267.937 241.237 267.655C243.398 269.969 245.465 272.365 247.433 274.825C261.732 292.737 270.97 314.289 275.198 334.497C277.101 343.582 277.988 352.391 277.876 360.471C277.829 363.883 277.618 367.166 277.213 370.279C277.148 370.801 277.078 371.306 277.019 371.8C277.13 346.947 266.983 319.064 251.608 299.191V299.185ZM257.322 246.543L256.171 246.596L255.161 247.154C242.723 253.989 229.691 261.219 217.388 263.527C205.085 265.834 193.81 263.949 181.965 251.676C208.057 271.096 246.54 246.208 255.637 239.19C255.208 240.993 287.084 245.956 307.691 215.289C307.733 215.312 307.768 215.342 307.809 215.365C302.559 224.45 299.194 231.627 293.039 236.695C286.767 241.857 276.989 245.633 257.328 246.543H257.322ZM69.2168 232.361C62.569 246.431 51.3406 254.401 52.1451 278.408C69.8862 258.382 101.71 223.334 126.134 213.216C125.617 215.806 80.6037 249.432 64.5657 282.548C48.5276 315.664 61.9758 367.401 61.9758 367.401C79.1649 362.274 91.4446 349.29 114.747 353.947C108.869 361.787 95.8314 365.921 82.6709 369.985C126.563 374.413 139.406 361.065 152.003 326.005C152.003 326.005 163.901 372.569 165.974 376.192C166.943 371.958 167.606 367.66 168.07 363.314C169.051 354.153 169.145 344.803 169.309 335.531C169.732 311.805 170.642 288.573 188.143 270.215C175.258 304.735 177.672 326.076 199.342 354.329C193.44 341.027 188.642 301.593 195.466 305.31C196.887 320.685 199.994 322.57 202.707 327.556C201.673 316.174 202.255 303.108 205.297 294.44C212.297 308.141 222.462 322.916 232.199 327.033C225.545 315.123 222.791 306.244 221.934 298.838C222.086 299.22 222.239 299.596 222.398 299.972C224.465 304.858 227.084 309.192 229.874 313.109C231.817 315.846 233.785 318.412 235.682 320.89C240.468 327.133 244.831 332.776 247.409 338.925C243.868 339.976 240.427 340.534 236.944 339.712C234.689 339.183 230.989 337.827 226.984 335.718C222.204 333.199 216.995 329.593 213.313 324.966C214.164 329.27 215.321 333.874 216.449 338.696C220.701 356.913 224.465 378.207 209.126 397.986C204.11 382.212 199.142 365.733 187.045 352.103C186.575 351.569 186.111 351.034 185.618 350.512L173.955 338.179L177.126 354.851C178.383 361.452 179.105 367.266 179.375 372.393C180.203 387.961 176.885 397.263 171.717 403.359C166.596 409.396 158.527 412.55 149.619 415.163C151.034 409.361 151.65 403.218 151.903 397.674C152.026 394.897 152.062 392.277 152.05 389.993C152.026 384.937 151.768 381.501 151.768 381.501L150.488 364.071L143.505 377.467L142.413 379.569C130.615 402.208 97.5697 412.738 66.6504 415.063C63.3911 415.31 60.1612 415.463 56.9959 415.539C48.4865 415.744 40.441 415.38 33.4585 414.599C31.0448 414.329 28.7663 414.012 26.6345 413.654C26.3468 413.607 26.0473 413.56 25.7595 413.507C24.0036 413.196 22.371 412.849 20.8617 412.485C17.7786 411.745 15.2299 410.923 13.4505 410.124C12.9455 409.895 12.8515 409.766 12.4815 409.555C13.3448 408.445 14.1494 407.335 14.9245 406.225C29.8116 384.995 29.6883 364.083 28.3669 343.429C26.8577 320.056 28.2319 295.421 34.862 267.69C35.138 267.138 35.4023 266.569 35.6313 265.958C35.6666 265.87 35.7077 265.776 35.7488 265.688C38.6734 258.37 47.5175 249.702 55.3809 243.037C59.6209 240.112 63.6437 236.43 69.1991 232.343L69.2168 232.361ZM292.059 353.219C291.6 362.339 289.78 371.177 285.975 379.37C286.344 377.032 286.685 374.448 287.055 371.553C289.985 348.832 284.894 320.091 271.516 293.864C267.576 282.994 261.075 268.019 258.602 259.686C259.031 260.115 259.46 260.537 259.888 260.966C262.59 263.644 265.262 266.246 267.887 268.923C274.687 275.871 281.182 283.352 287.137 294.14C293.509 305.674 299.464 322.993 304.203 346.923C304.05 346.465 303.892 346.007 303.733 345.543C299.194 332.295 293.098 317.848 285.622 305.046C289.569 320.608 292.851 337.339 292.053 353.225L292.059 353.219ZM329.179 209.176L338.311 201.87C338.311 201.87 334.288 175.531 328.798 171.503C325.814 169.312 316.224 166.587 307.222 165.436C305.824 165.26 304.444 165.113 303.099 165.02C300.956 164.867 298.924 164.837 297.097 164.955C294.284 165.131 291.97 165.66 290.567 166.664C290.367 166.805 290.185 166.957 290.021 167.116C279.544 177.593 288.259 195.95 289.657 194.553C301.948 173.253 314.692 195.005 300.268 204.795C300.051 207.643 302.77 211.172 305.519 213.598C303.698 213.744 301.784 213.521 299.804 212.934C292.199 210.679 283.719 203.103 276.484 190.894C275.11 195.404 274.916 198.816 275.703 202.058C276.244 204.29 277.254 206.445 278.681 208.823C277.518 208.6 276.385 208.418 275.269 208.254C223.455 200.719 215.298 256.714 166.003 221.261C163.507 222.988 164.453 232.29 167.377 241.199C160.959 231.938 154.593 221.461 154.593 216.323C153.354 212.229 159.461 208.753 170.889 209.117C190.803 209.751 188.466 179.366 227.025 187.353C200.323 175.432 196 183.365 174.254 196.15C147.087 206.668 138.925 188.328 144.838 166.758C144.868 166.728 144.897 166.699 144.926 166.67C154.299 157.561 161.98 145.17 161.98 145.17C146.571 158.542 122.44 166.576 98.1158 162.606C90.4345 161.349 82.7296 158.912 75.2773 155.048C73.9383 156.357 73.0398 157.661 72.4702 158.971C69.4693 153.257 68.9995 149.222 69.5163 145.934C69.7277 144.571 70.1622 143.262 70.7436 141.964C70.9198 142.193 71.096 142.422 71.278 142.645C73.8679 145.875 76.8805 148.406 80.3982 149.921C95.2852 155.623 110.748 156.445 124.202 153.462C137.615 150.485 149.037 143.714 155.896 134.194C158.862 130.078 160.976 125.45 162.033 120.388C166.802 119.777 171.7 120.446 176.65 121.662C180.62 122.637 184.625 123.952 188.63 125.25C190.844 125.967 193.052 126.671 195.26 127.306C211.774 132.051 228.446 130.694 235.74 134.917C241.208 138.076 246.129 141.823 251.162 145.288C254.521 147.601 257.933 149.78 261.574 151.595C264.528 153.063 267.64 154.273 271.005 155.101C265.779 167.768 272.673 174.204 275.991 176.43C276.937 177.064 277.594 177.364 277.594 177.364C277.594 177.364 277.283 175.772 277.365 173.505C277.541 168.502 279.661 160.21 291.319 158.442C300.997 159.634 309.882 160.386 317.146 161.66C323.031 162.688 327.793 164.092 330.959 165.93C334.071 167.739 335.68 169.618 336.508 172.859C337.46 180.846 339.826 188.528 341.494 194.617C342.346 197.724 343.003 200.437 343.244 202.299C343.409 203.532 343.379 203.42 343.385 203.591C339.879 205.746 334.535 207.731 329.191 209.181L329.179 209.176ZM345.47 162.154C344.742 162.782 343.996 163.41 343.232 164.039C341.336 161.261 338.804 159 335.933 157.332C331.053 154.496 325.268 152.998 318.849 151.871C317.757 151.677 316.641 151.501 315.514 151.33C317.123 150.884 318.708 150.403 320.282 149.898C328.821 147.143 336.866 143.491 344.43 139.057C353.985 133.448 362.765 126.607 370.751 118.761C368.99 129.273 365.771 139.104 357.932 149.24C354.66 153.468 350.585 157.749 345.476 162.154H345.47Z" stroke="#F12C4C" stroke-width="0.58726" mask="url(#path-52-inside-6_376_508)"/>
<mask id="path-53-inside-7_376_508" fill="white">
<path d="M199.677 152.528C201.503 151.689 203.265 151.084 204.956 150.861C206.959 150.596 209.137 150.737 211.592 151.495H211.604H211.592C215.022 152.558 218.992 154.831 223.837 158.947C215.627 160.48 207.335 159.746 200.381 158.284C197.474 157.673 195.419 156.927 193.117 156.211C193.14 156.193 193.164 156.181 193.187 156.164C188.043 154.126 190.68 147.296 185.177 149.328C183.139 150.708 181.125 152.106 179.07 153.415L169.163 159.717L168.945 159.857L180.397 162.4C180.438 162.412 180.479 162.43 180.52 162.441C180.761 162.535 181.137 162.682 181.607 162.87C182.546 163.246 183.868 163.763 185.483 164.344C188.712 165.501 193.14 166.916 198.338 168.009C208.726 170.193 222.304 171.168 235.529 165.877L249.911 162.864C230.302 159.993 231.007 140.707 203.652 141.012C199.16 141.611 195.225 143.256 191.537 145.329C192.806 148.036 194.544 151.513 199.683 152.534L199.677 152.528ZM180.373 162.383C180.121 162.324 180.221 162.336 180.373 162.383V162.383Z"/>
</mask>
<path d="M199.677 152.528L199.554 152.262L199.171 152.438L199.469 152.736L199.677 152.528ZM204.956 150.861L204.995 151.152L204.995 151.152L204.956 150.861ZM211.592 151.495L211.506 151.775L211.548 151.789H211.592V151.495ZM211.592 151.495V151.201L211.505 151.775L211.592 151.495ZM223.837 158.947L223.89 159.236L224.497 159.123L224.027 158.723L223.837 158.947ZM200.381 158.284L200.442 157.996L200.442 157.996L200.381 158.284ZM193.117 156.211L192.941 155.976L192.481 156.32L193.03 156.491L193.117 156.211ZM193.187 156.164L193.364 156.399L193.783 156.084L193.296 155.891L193.187 156.164ZM185.177 149.328L185.075 149.052L185.042 149.065L185.013 149.085L185.177 149.328ZM179.07 153.415L179.227 153.663L179.227 153.663L179.07 153.415ZM169.163 159.717L169.005 159.469L169.003 159.47L169.163 159.717ZM168.945 159.857L168.786 159.611L168.198 159.992L168.882 160.144L168.945 159.857ZM180.397 162.4L180.478 162.118L180.469 162.116L180.461 162.114L180.397 162.4ZM180.52 162.441L180.627 162.168L180.614 162.163L180.601 162.159L180.52 162.441ZM185.483 164.344L185.383 164.62L185.384 164.621L185.483 164.344ZM198.338 168.009L198.398 167.721L198.398 167.721L198.338 168.009ZM235.529 165.877L235.469 165.59L235.444 165.595L235.42 165.604L235.529 165.877ZM249.911 162.864L249.971 163.152L249.953 162.574L249.911 162.864ZM203.652 141.012L203.649 140.719L203.631 140.719L203.614 140.721L203.652 141.012ZM191.537 145.329L191.393 145.073L191.156 145.206L191.271 145.453L191.537 145.329ZM199.683 152.534L199.625 152.822L200.575 153.011L199.89 152.327L199.683 152.534ZM199.799 152.795C201.611 151.962 203.343 151.37 204.995 151.152L204.918 150.57C203.186 150.798 201.395 151.415 199.554 152.262L199.799 152.795ZM204.995 151.152C206.954 150.893 209.09 151.03 211.506 151.775L211.679 151.214C209.185 150.445 206.964 150.3 204.918 150.57L204.995 151.152ZM211.592 151.789H211.604V151.201H211.592V151.789ZM211.604 151.201H211.592V151.789H211.604V151.201ZM211.505 151.775C214.884 152.823 218.819 155.069 223.646 159.171L224.027 158.723C219.164 154.592 215.16 152.293 211.679 151.214L211.505 151.775ZM223.783 158.659C215.622 160.182 207.371 159.454 200.442 157.996L200.321 158.571C207.298 160.038 215.631 160.778 223.89 159.236L223.783 158.659ZM200.442 157.996C197.553 157.389 195.518 156.65 193.204 155.93L193.03 156.491C195.32 157.204 197.396 157.956 200.321 158.571L200.442 157.996ZM193.293 156.446C193.293 156.446 193.293 156.445 193.296 156.444C193.298 156.442 193.302 156.44 193.308 156.436C193.318 156.43 193.34 156.416 193.364 156.399L193.011 155.929C193.012 155.928 193.011 155.929 193.009 155.93C193.006 155.932 193.003 155.934 192.997 155.938C192.986 155.945 192.964 155.958 192.941 155.976L193.293 156.446ZM193.296 155.891C190.864 154.927 190.275 152.855 189.59 151.112C189.258 150.267 188.882 149.449 188.184 149.005C187.463 148.545 186.485 148.532 185.075 149.052L185.279 149.603C186.621 149.108 187.377 149.187 187.869 149.5C188.385 149.828 188.704 150.464 189.043 151.327C189.701 153 190.366 155.362 193.079 156.437L193.296 155.891ZM185.013 149.085C182.971 150.467 180.963 151.861 178.912 153.168L179.227 153.663C181.287 152.35 183.308 150.949 185.342 149.571L185.013 149.085ZM178.912 153.167L169.005 159.469L169.32 159.964L179.227 153.663L178.912 153.167ZM169.003 159.47L168.786 159.611L169.105 160.104L169.322 159.963L169.003 159.47ZM168.882 160.144L180.333 162.687L180.461 162.114L169.009 159.571L168.882 160.144ZM180.316 162.683C180.326 162.685 180.338 162.689 180.36 162.697C180.379 162.704 180.408 162.715 180.44 162.724L180.601 162.159C180.591 162.156 180.58 162.152 180.557 162.144C180.538 162.138 180.509 162.127 180.478 162.118L180.316 162.683ZM180.413 162.715C180.654 162.809 181.029 162.955 181.498 163.143L181.716 162.598C181.245 162.409 180.868 162.262 180.627 162.168L180.413 162.715ZM181.498 163.143C182.439 163.519 183.764 164.038 185.383 164.62L185.582 164.068C183.971 163.488 182.653 162.973 181.716 162.598L181.498 163.143ZM185.384 164.621C188.622 165.781 193.063 167.2 198.277 168.296L198.398 167.721C193.218 166.633 188.803 165.222 185.582 164.068L185.384 164.621ZM198.277 168.296C208.694 170.487 222.337 171.471 235.638 166.15L235.42 165.604C222.27 170.865 208.758 169.9 198.398 167.721L198.277 168.296ZM235.589 166.164L249.971 163.152L249.851 162.577L235.469 165.59L235.589 166.164ZM249.953 162.574C240.257 161.154 235.603 155.694 229.883 150.529C227.027 147.95 223.911 145.454 219.782 143.626C215.651 141.796 210.524 140.642 203.649 140.719L203.656 141.306C210.458 141.23 215.501 142.372 219.544 144.162C223.589 145.954 226.651 148.402 229.49 150.965C235.158 156.084 239.956 161.703 249.868 163.155L249.953 162.574ZM203.614 140.721C199.072 141.327 195.101 142.988 191.393 145.073L191.681 145.585C195.349 143.523 199.248 141.896 203.691 141.303L203.614 140.721ZM191.271 145.453C192.545 148.172 194.338 151.771 199.625 152.822L199.74 152.246C194.75 151.254 193.066 147.9 191.803 145.204L191.271 145.453ZM199.89 152.327L199.884 152.321L199.469 152.736L199.475 152.742L199.89 152.327ZM180.44 162.097C180.378 162.082 180.341 162.073 180.322 162.068C180.31 162.065 180.312 162.065 180.321 162.068C180.323 162.069 180.332 162.072 180.344 162.077C180.349 162.08 180.363 162.086 180.379 162.097C180.388 162.102 180.403 162.113 180.419 162.128C180.433 162.141 180.468 162.176 180.491 162.233C180.52 162.305 180.527 162.408 180.466 162.502C180.418 162.577 180.351 162.607 180.327 162.616C180.277 162.636 180.234 162.636 180.23 162.636C180.207 162.637 180.189 162.635 180.187 162.635C180.17 162.633 180.21 162.64 180.287 162.663L180.46 162.102C180.385 162.079 180.298 162.056 180.256 162.051C180.253 162.051 180.234 162.049 180.21 162.049C180.205 162.05 180.162 162.05 180.111 162.07C180.087 162.079 180.021 162.109 179.972 162.184C179.912 162.278 179.918 162.381 179.947 162.453C179.97 162.511 180.006 162.546 180.019 162.558C180.036 162.574 180.051 162.584 180.06 162.59C180.076 162.601 180.091 162.607 180.096 162.61C180.109 162.616 180.12 162.62 180.124 162.621C180.139 162.627 180.157 162.632 180.169 162.635C180.197 162.643 180.242 162.654 180.307 162.669L180.44 162.097Z" fill="#F12C4C" mask="url(#path-53-inside-7_376_508)"/>
<path d="M201.138 357.232C200.783 356.772 200.427 356.193 200.072 355.511C200.782 356.426 201.508 357.348 202.26 358.279C201.899 358.081 201.524 357.732 201.138 357.232Z" stroke="#F12C4C" stroke-width="0.29363"/>
<path d="M165.592 140.996L165.508 140.971C163.405 140.332 161.263 140.19 158.954 141.159C156.573 142.162 154 144.357 151.105 148.478C153.617 146.574 155.877 145.536 157.969 145.095C160.27 144.611 162.357 144.851 164.336 145.441C165.473 145.778 166.572 146.233 167.655 146.728L167.655 146.728C168.353 147.048 169.045 147.385 169.735 147.722C174.169 149.887 178.576 152.038 184.507 149.434L184.508 149.434C184.727 149.339 184.935 149.256 185.132 149.184C186.523 148.67 187.444 148.7 188.108 149.123C188.76 149.538 189.12 150.311 189.454 151.16C189.515 151.314 189.575 151.472 189.636 151.631C190.257 153.259 190.966 155.119 193.247 156.021L193.249 156.022C193.375 156.074 193.499 156.121 193.631 156.163L206.548 152.694M165.592 140.996L191.537 145.317M165.592 140.996L165.598 140.991M165.592 140.996L165.598 140.991M206.548 152.694C203.742 153.087 201.487 153.032 199.654 152.667C194.44 151.63 192.675 148.092 191.404 145.379M206.548 152.694C207.006 152.629 207.479 152.553 207.968 152.464L211.598 151.489C210.288 151.84 209.07 152.115 207.936 152.321M191.404 145.379L191.537 145.317M191.404 145.379C191.404 145.379 191.404 145.379 191.404 145.379L191.537 145.317M191.404 145.379C191.373 145.314 191.343 145.249 191.313 145.185C191.007 144.533 190.729 143.939 190.433 143.443C190.107 142.896 189.768 142.484 189.366 142.245C188.583 141.779 187.47 141.924 185.515 143.334L185.511 143.337L185.511 143.337C182.683 145.231 180.136 145.748 177.757 145.531C175.384 145.315 173.187 144.369 171.061 143.359M191.537 145.317C191.506 145.251 191.475 145.186 191.445 145.121C190.135 142.327 189.258 140.454 185.429 143.215C179.827 146.967 175.375 145.246 171.124 143.226M171.061 143.359L171.124 143.226M171.061 143.359C170.74 143.207 170.42 143.053 170.102 142.9C168.967 142.353 167.848 141.814 166.72 141.385C166.344 141.243 165.971 141.107 165.598 140.991M171.061 143.359C171.061 143.359 171.061 143.359 171.061 143.359L171.124 143.226M171.124 143.226L165.598 140.991" stroke="#F12C4C" stroke-width="0.29363"/>
</g>
</svg>
